{
familyName = octagon;
customParameters = (
{
name = glyphOrder;
value = (
.notdef,
NULL,
CR,
space,
A,
B,
C,
D,
E,
F,
G,
H,
I,
J,
K,
L,
M,
N,
O,
P,
Q,
R,
S,
T,
U,
V,
W,
X,
Y,
Z,
a,
b,
c,
d,
e,
f,
g,
h,
i,
j,
k,
l,
m,
n,
o,
p,
q,
r,
s,
t,
u,
v,
w,
x,
y,
z,
zero,
one,
two,
three,
four,
five,
six,
seven,
eight,
nine,
period,
comma,
colon,
hyphen,
diagonals,
horizontals,
verticals
);
},
{
name = Axes;
value = (
{
Name = "Horizontal Rotation";
Tag = HROT;
},
{
Name = "Vertical Rotation";
Tag = VROT;
}
);
}
);
featurePrefixes = (
{
code = "#> languagesystem\012languagesystem DFLT dflt;\012languagesystem latn dflt;\012#< languagesystem\012";
name = Languagesystems;
}
);
fontMaster = (
{
alignmentZones = (
);
ascender = 800;
capHeight = 600;
customParameters = (
{
name = typoAscender;
value = 800;
},
{
name = typoDescender;
value = -200;
},
{
name = typoLineGap;
value = 0;
},
{
name = winAscent;
value = 1050;
},
{
name = winDescent;
value = 450;
},
{
name = underlineThickness;
value = 50;
},
{
name = underlinePosition;
value = -100;
},
{
name = strikeoutPosition;
value = 300;
},
{
name = strikeoutSize;
value = 50;
},
{
name = subscriptXOffset;
value = 0;
},
{
name = subscriptXSize;
value = 650;
},
{
name = subscriptYOffset;
value = 75;
},
{
name = subscriptYSize;
value = 600;
},
{
name = superscriptXOffset;
value = 0;
},
{
name = superscriptXSize;
value = 650;
},
{
name = superscriptYOffset;
value = 350;
},
{
name = superscriptYSize;
value = 600;
},
{
name = hheaAscender;
value = 800;
},
{
name = hheaDescender;
value = -200;
},
{
name = hheaLineGap;
value = 0;
},
{
name = "Axis Location";
value = (
{
Axis = "Horizontal Rotation";
Location = 0;
},
{
Axis = "Vertical Rotation";
Location = 0;
}
);
}
);
descender = -200;
guideLines = (
{
position = "{0, 250}";
}
);
id = "B386CC4D-AD36-4992-A5CF-4B6CB312D231";
weight = Regular;
customValue = 0;
customValue1 = 0;
widthValue = 100;
weightValue = 100;
xHeight = 500;
},
{
alignmentZones = (
);
ascender = 800;
capHeight = 600;

glyphs = (
{
color = 1;
glyphname = A;
layers = (
{
layerId = "E9386F05-ADE6-4680-88CE-E5F12972D961";
paths = (
{
closed = 1;
nodes = (
"147 85 LINE",
"269 520 LINE",
"288 515 LINE",
"166 80 LINE"
);
},
{
closed = 1;
nodes = (
"506 99 LINE",
"487 94 LINE",
"372 515 LINE",
"391 520 LINE"
);
},
{
closed = 1;
nodes = (
"269 520 LINE",
"391 520 LINE",
"391 500 LINE",
"269 500 LINE"
);
},
{
closed = 1;
nodes = (
"186 182 LINE",
"472 182 LINE",
"472 162 LINE",
"186 162 LINE"
);
},
{
closed = 1;
nodes = (
"217 100 LINE",
"343 100 LINE",
"343 80 LINE",
"217 80 LINE"
);
},
{
closed = 1;
nodes = (
"31 20 LINE",
"205 20 LINE",
"205 0 LINE",
"31 0 LINE"
);
},
{
closed = 1;
nodes = (
"350 20 LINE",
"544 20 LINE",
"544 0 LINE",
"350 0 LINE"
);
},
{
closed = 1;
nodes = (
"375 517 LINE",
"374 596 LINE",
"389 581 LINE",
"391 501 LINE"
);
},
{
closed = 1;
nodes = (
"25 0 LINE",
"185 600 LINE",
"204 595 LINE",
"45 0 LINE"
);
},
{
closed = 1;
nodes = (
"550 0 LINE",
"530 0 LINE",
"370 595 LINE",
"389 600 LINE"
);
},
{
closed = 1;
nodes = (
"185 580 LINE",
"185 600 LINE",
"389 600 LINE",
"389 580 LINE"
);
},
{
closed = 1;
nodes = (
"543 18 LINE",
"531 2 LINE",
"481 108 LINE",
"494 124 LINE"
);
},
{
closed = 1;
nodes = (
"348 15 LINE",
"483 112 LINE",
"499 99 LINE",
"362 1 LINE"
);
},
{
closed = 1;
nodes = (
"186 5 LINE",
"210 96 LINE",
"229 91 LINE",
"205 0 LINE"
);
},
{
closed = 1;
nodes = (
"369 5 LINE",
"350 0 LINE",
"326 91 LINE",
"345 96 LINE"
);
},
{
closed = 1;
nodes = (
"327 94 LINE",
"466 184 LINE",
"482 171 LINE",
"341 80 LINE"
);
},
{
closed = 1;
nodes = (
"208 15 LINE",
"194 1 LINE",
"155 80 LINE",
"170 93 LINE"
);
},
{
closed = 1;
nodes = (
"228 94 LINE",
"214 80 LINE",
"175 159 LINE",
"190 172 LINE"
);
},
{
closed = 1;
nodes = (
"32 15 LINE",
"150 93 LINE",
"165 80 LINE",
"46 1 LINE"
);
},
{
closed = 1;
nodes = (
"253 218 LINE",
"307 218 LINE",
"307 198 LINE",
"253 198 LINE"
);
},
{
closed = 1;
nodes = (
"307 218 LINE",
"481 179 LINE",
"472 161 LINE",
"298 200 LINE"
);
},
{
closed = 1;
nodes = (
"253 218 LINE",
"262 200 LINE",
"182 158 LINE",
"173 176 LINE"
);
},
{
closed = 1;
nodes = (
"271 348 LINE",
"290 343 LINE",
"255 200 LINE",
"236 206 LINE"
);
},
{
closed = 1;
nodes = (
"288 343 LINE",
"318 207 LINE",
"299 201 LINE",
"269 338 LINE"
);
},
{
closed = 1;
nodes = (
"286 511 LINE",
"269 501 LINE",
"183 588 LINE",
"201 597 LINE"
);
},
{
closed = 1;
nodes = (
"375 513 LINE",
"394 508 LINE",
"288 335 LINE",
"269 341 LINE"
);
},
{
closed = 1;
nodes = (
"288 511 LINE",
"289 338 LINE",
"270 332 LINE",
"269 506 LINE"
);
}
);
width = 600;
},
{
layerId = "62CD5346-0352-4548-B9DD-500D447F2E30";
paths = (
{
closed = 1;
nodes = (
"52 85 LINE",
"169 520 LINE",
"188 515 LINE",
"71 80 LINE"
);
},
{
closed = 1;
nodes = (
"406 99 LINE",
"387 94 LINE",
"270 515 LINE",
"289 520 LINE"
);
},
{
closed = 1;
nodes = (
"169 520 LINE",
"289 520 LINE",
"289 500 LINE",
"169 500 LINE"
);
},
{
closed = 1;
nodes = (
"86 182 LINE",
"372 182 LINE",
"372 162 LINE",
"86 162 LINE"
);
},
{
closed = 1;
nodes = (
"207 100 LINE",
"323 100 LINE",
"323 80 LINE",
"207 80 LINE"
);
},
{
closed = 1;
nodes = (
"41 20 LINE",
"195 20 LINE",
"195 0 LINE",
"41 0 LINE"
);
},
{
closed = 1;
nodes = (
"330 20 LINE",
"564 20 LINE",
"564 0 LINE",
"330 0 LINE"
);
},
{
closed = 1;
nodes = (
"271 517 LINE",
"396 596 LINE",
"409 581 LINE",
"283 501 LINE"
);
},
{
closed = 1;
nodes = (
"35 0 LINE",
"195 600 LINE",
"214 595 LINE",
"55 0 LINE"
);
},
{
closed = 1;
nodes = (
"570 0 LINE",
"550 0 LINE",
"390 595 LINE",
"409 600 LINE"
);
},
{
closed = 1;
nodes = (
"195 580 LINE",
"195 600 LINE",
"409 600 LINE",
"409 580 LINE"
);
},
{
closed = 1;
nodes = (
"563 18 LINE",
"551 2 LINE",
"381 108 LINE",
"394 124 LINE"
);
},
{
closed = 1;
nodes = (
"328 15 LINE",
"383 112 LINE",
"399 99 LINE",
"342 1 LINE"
);
},
{
closed = 1;
nodes = (
"176 5 LINE",
"200 96 LINE",
"219 91 LINE",
"195 0 LINE"
);
},
{
closed = 1;
nodes = (
"349 5 LINE",
"330 0 LINE",
"306 91 LINE",
"325 96 LINE"
);
},
{
closed = 1;
nodes = (
"307 94 LINE",
"366 184 LINE",
"382 171 LINE",
"321 80 LINE"
);
},
{
closed = 1;
nodes = (
"198 15 LINE",
"184 1 LINE",
"60 80 LINE",
"75 93 LINE"
);
},
{
closed = 1;
nodes = (
"218 94 LINE",
"204 80 LINE",
"75 159 LINE",
"90 172 LINE"
);
},
{
closed = 1;
nodes = (
"37 1 LINE",
"52 85 LINE",
"67 83 LINE",
"56 1 LINE"
);
},
{
closed = 1;
nodes = (
"237 218 LINE",
"287 218 LINE",
"287 198 LINE",
"237 198 LINE"
);
},
{
closed = 1;
nodes = (
"287 218 LINE",
"377 176 LINE",
"368 158 LINE",
"278 200 LINE"
);
},
{
closed = 1;
nodes = (
"237 218 LINE",
"246 200 LINE",
"87 158 LINE",
"78 176 LINE"
);
},
{
closed = 1;
nodes = (
"251 348 LINE",
"270 343 LINE",
"239 200 LINE",
"220 206 LINE"
);
},
{
closed = 1;
nodes = (
"268 343 LINE",
"298 207 LINE",
"279 201 LINE",
"249 338 LINE"
);
},
{
closed = 1;
nodes = (
"188 518 LINE",
"169 520 LINE",
"193 588 LINE",
"211 597 LINE"
);
},
{
closed = 1;
nodes = (
"266 513 LINE",
"285 508 LINE",
"268 335 LINE",
"249 341 LINE"
);
},
{
closed = 1;
nodes = (
"188 511 LINE",
"269 338 LINE",
"250 332 LINE",
"169 506 LINE"
);
}
);
width = 600;
},
{
guideLines = (
{
position = "{0, 410}";
}
);
layerId = "67EC95E2-4054-440D-AB4B-F0B974CBBED7";
paths = (
{
closed = 1;
nodes = (
"92 105 LINE",
"214 430 LINE",
"233 425 LINE",
"111 100 LINE"
);
},
{
closed = 1;
nodes = (
"461 119 LINE",
"442 114 LINE",
"325 425 LINE",
"344 430 LINE"
);
},
{
closed = 1;
nodes = (
"214 430 LINE",
"344 430 LINE",
"344 410 LINE",
"214 410 LINE"
);
},
{
closed = 1;
nodes = (
"121 172 LINE",
"437 172 LINE",
"437 152 LINE",
"121 152 LINE"
);
},
{
closed = 1;
nodes = (
"198 130 LINE",
"350 130 LINE",
"350 110 LINE",
"198 110 LINE"
);
},
{
closed = 1;
nodes = (
"16 70 LINE",
"190 70 LINE",
"190 50 LINE",
"16 50 LINE"
);
},
{
closed = 1;
nodes = (
"355 70 LINE",
"589 70 LINE",
"589 50 LINE",
"355 50 LINE"
);
},
{
closed = 1;
nodes = (
"326 427 LINE",
"431 546 LINE",
"444 531 LINE",
"338 411 LINE"
);
},
{
closed = 1;
nodes = (
"10 50 LINE",
"160 550 LINE",
"179 545 LINE",
"30 50 LINE"
);
},
{
closed = 1;
nodes = (
"595 50 LINE",
"575 50 LINE",
"425 545 LINE",
"444 550 LINE"
);
},
{
closed = 1;
nodes = (
"160 530 LINE",
"160 550 LINE",
"444 550 LINE",
"444 530 LINE"
);
},
{
closed = 1;
nodes = (
"588 68 LINE",
"576 52 LINE",
"436 128 LINE",
"449 154 LINE"
);
},
{
closed = 1;
nodes = (
"353 65 LINE",
"438 132 LINE",
"454 119 LINE",
"367 51 LINE"
);
},
{
closed = 1;
nodes = (
"171 55 LINE",
"191 126 LINE",
"210 121 LINE",
"190 50 LINE"
);
},
{
closed = 1;
nodes = (
"374 55 LINE",
"355 50 LINE",
"333 121 LINE",
"352 126 LINE"
);
},
{
closed = 1;
nodes = (
"334 124 LINE",
"429 174 LINE",
"445 161 LINE",
"348 110 LINE"
);
},
{
closed = 1;
nodes = (
"193 65 LINE",
"179 51 LINE",
"100 100 LINE",
"115 113 LINE"
);
},
{
closed = 1;
nodes = (
"207 128 LINE",
"195 110 LINE",
"110 149 LINE",
"125 162 LINE"
);
},
{
closed = 1;
nodes = (
"17 65 LINE",
"95 113 LINE",
"110 100 LINE",
"31 51 LINE"
);
},
{
closed = 1;
nodes = (
"243 248 LINE",
"312 248 LINE",
"312 228 LINE",
"243 228 LINE"
);
},
{
closed = 1;
nodes = (
"312 248 LINE",
"442 166 LINE",
"433 148 LINE",
"303 230 LINE"
);
},
{
closed = 1;
nodes = (
"243 248 LINE",
"252 230 LINE",
"124 148 LINE",
"115 166 LINE"
);
},
{
closed = 1;
nodes = (
"266 338 LINE",
"285 333 LINE",
"245 230 LINE",
"226 236 LINE"
);
},
{
closed = 1;
nodes = (
"283 333 LINE",
"323 237 LINE",
"304 231 LINE",
"264 328 LINE"
);
},
{
closed = 1;
nodes = (
"231 421 LINE",
"214 411 LINE",
"158 538 LINE",
"176 547 LINE"
);
},
{
closed = 1;
nodes = (
"321 423 LINE",
"340 418 LINE",
"283 325 LINE",
"264 331 LINE"
);
},
{
closed = 1;
nodes = (
"233 421 LINE",
"284 328 LINE",
"265 322 LINE",
"214 416 LINE"
);
}
);
width = 605;
},
{
guideLines = (
{
position = "{0, 550}";
},
{
position = "{0, 50}";
},
{
position = "{0, 784}";
},
{
angle = 90;
position = "{180, 0}";
}
);
layerId = "94D2509E-AE09-4DCD-8AC9-FEB053E4A4EF";
paths = (
{
closed = 1;
nodes = (
"102 165 LINE",
"214 520 LINE",
"233 515 LINE",
"121 160 LINE"
);
},
{
closed = 1;
nodes = (
"454 189 LINE",
"435 184 LINE",
"325 515 LINE",
"344 520 LINE"
);
},
{
closed = 1;
nodes = (
"214 520 LINE",
"344 520 LINE",
"344 500 LINE",
"214 500 LINE"
);
},
{
closed = 1;
nodes = (
"147 278 LINE",
"419 278 LINE",
"419 258 LINE",
"147 258 LINE"
);
},
{
closed = 1;
nodes = (
"211 160 LINE",
"337 160 LINE",
"337 140 LINE",
"211 140 LINE"
);
},
{
closed = 1;
nodes = (
"6 70 LINE",
"199 70 LINE",
"199 50 LINE",
"6 50 LINE"
);
},
{
closed = 1;
nodes = (
"344 70 LINE",
"599 70 LINE",
"599 50 LINE",
"344 50 LINE"
);
},
{
closed = 1;
nodes = (
"326 517 LINE",
"401 546 LINE",
"414 531 LINE",
"338 501 LINE"
);
},
{
closed = 1;
nodes = (
"0 50 LINE",
"182 550 LINE",
"201 545 LINE",
"20 50 LINE"
);
},
{
closed = 1;
nodes = (
"605 50 LINE",
"585 50 LINE",
"395 545 LINE",
"414 550 LINE"
);
},
{
closed = 1;
nodes = (
"182 530 LINE",
"182 550 LINE",
"414 550 LINE",
"414 530 LINE"
);
},
{
closed = 1;
nodes = (
"598 68 LINE",
"586 52 LINE",
"429 198 LINE",
"442 214 LINE"
);
},
{
closed = 1;
nodes = (
"342 65 LINE",
"431 202 LINE",
"447 189 LINE",
"356 51 LINE"
);
},
{
closed = 1;
nodes = (
"180 55 LINE",
"204 156 LINE",
"223 151 LINE",
"199 50 LINE"
);
},
{
closed = 1;
nodes = (
"363 55 LINE",
"344 50 LINE",
"320 151 LINE",
"339 156 LINE"
);
},
{
closed = 1;
nodes = (
"321 154 LINE",
"407 280 LINE",
"423 267 LINE",
"335 140 LINE"
);
},
{
closed = 1;
nodes = (
"202 65 LINE",
"188 51 LINE",
"110 160 LINE",
"125 173 LINE"
);
},
{
closed = 1;
nodes = (
"222 154 LINE",
"208 140 LINE",
"139 255 LINE",
"154 268 LINE"
);
},
{
closed = 1;
nodes = (
"7 65 LINE",
"105 173 LINE",
"120 160 LINE",
"21 51 LINE"
);
},
{
closed = 1;
nodes = (
"252 298 LINE",
"299 298 LINE",
"299 278 LINE",
"252 278 LINE"
);
},
{
closed = 1;
nodes = (
"299 298 LINE",
"421 272 LINE",
"412 254 LINE",
"290 280 LINE"
);
},
{
closed = 1;
nodes = (
"252 298 LINE",
"261 280 LINE",
"154 254 LINE",
"145 272 LINE"
);
},
{
closed = 1;
nodes = (
"266 408 LINE",
"285 403 LINE",
"254 280 LINE",
"235 286 LINE"
);
},
{
closed = 1;
nodes = (
"283 403 LINE",
"310 287 LINE",
"291 281 LINE",
"264 398 LINE"
);
},
{
closed = 1;
nodes = (
"231 511 LINE",
"214 501 LINE",
"180 538 LINE",
"198 547 LINE"
);
},
{
closed = 1;
nodes = (
"321 513 LINE",
"340 508 LINE",
"283 395 LINE",
"264 401 LINE"
);
},
{
closed = 1;
nodes = (
"233 511 LINE",
"284 398 LINE",
"265 392 LINE",
"214 506 LINE"
);
}
);
width = 605;
},
{
guideLines = (
{
angle = 90;
position = "{170, 0}";
}
);
layerId = "B386CC4D-AD36-4992-A5CF-4B6CB312D231";
paths = (
{
closed = 1;
nodes = (
"97 85 LINE",
"214 520 LINE",
"233 515 LINE",
"116 80 LINE"
);
},
{
closed = 1;
nodes = (
"458 99 LINE",
"439 94 LINE",
"325 515 LINE",
"344 520 LINE"
);
},
{
closed = 1;
nodes = (
"214 520 LINE",
"344 520 LINE",
"344 500 LINE",
"214 500 LINE"
);
},
{
closed = 1;
nodes = (
"135 182 LINE",
"427 182 LINE",
"427 162 LINE",
"135 162 LINE"
);
},
{
closed = 1;
nodes = (
"202 100 LINE",
"348 100 LINE",
"348 80 LINE",
"202 80 LINE"
);
},
{
closed = 1;
nodes = (
"16 20 LINE",
"190 20 LINE",
"190 0 LINE",
"16 0 LINE"
);
},
{
closed = 1;
nodes = (
"355 20 LINE",
"589 20 LINE",
"589 0 LINE",
"355 0 LINE"
);
},
{
closed = 1;
nodes = (
"326 517 LINE",
"421 596 LINE",
"434 581 LINE",
"338 501 LINE"
);
},
{
closed = 1;
nodes = (
"10 0 LINE",
"172 600 LINE",
"191 595 LINE",
"30 0 LINE"
);
},
{
closed = 1;
nodes = (
"595 0 LINE",
"575 0 LINE",
"415 595 LINE",
"434 600 LINE"
);
},
{
closed = 1;
nodes = (
"172 580 LINE",
"172 600 LINE",
"434 600 LINE",
"434 580 LINE"
);
},
{
closed = 1;
nodes = (
"588 18 LINE",
"576 2 LINE",
"433 108 LINE",
"446 124 LINE"
);
},
{
closed = 1;
nodes = (
"353 15 LINE",
"435 112 LINE",
"451 99 LINE",
"367 1 LINE"
);
},
{
closed = 1;
nodes = (
"171 5 LINE",
"195 96 LINE",
"214 91 LINE",
"190 0 LINE"
);
},
{
closed = 1;
nodes = (
"374 5 LINE",
"355 0 LINE",
"331 91 LINE",
"350 96 LINE"
);
},
{
closed = 1;
nodes = (
"332 94 LINE",
"421 184 LINE",
"437 171 LINE",
"346 80 LINE"
);
},
{
closed = 1;
nodes = (
"193 15 LINE",
"179 1 LINE",
"105 80 LINE",
"120 93 LINE"
);
},
{
closed = 1;
nodes = (
"213 94 LINE",
"199 80 LINE",
"124 159 LINE",
"139 172 LINE"
);
},
{
closed = 1;
nodes = (
"17 15 LINE",
"100 93 LINE",
"115 80 LINE",
"31 1 LINE"
);
},
{
closed = 1;
nodes = (
"238 218 LINE",
"312 218 LINE",
"312 198 LINE",
"238 198 LINE"
);
},
{
closed = 1;
nodes = (
"312 218 LINE",
"432 176 LINE",
"423 158 LINE",
"303 200 LINE"
);
},
{
closed = 1;
nodes = (
"238 218 LINE",
"246 200 LINE",
"131 158 LINE",
"123 176 LINE"
);
},
{
closed = 1;
nodes = (
"266 348 LINE",
"285 343 LINE",
"240 200 LINE",
"221 206 LINE"
);
},
{
closed = 1;
nodes = (
"283 343 LINE",
"323 207 LINE",
"304 201 LINE",
"264 338 LINE"
);
},
{
closed = 1;
nodes = (
"231 511 LINE",
"214 501 LINE",
"170 588 LINE",
"188 597 LINE"
);
},
{
closed = 1;
nodes = (
"321 513 LINE",
"340 508 LINE",
"283 335 LINE",
"264 341 LINE"
);
},
{
closed = 1;
nodes = (
"233 511 LINE",
"284 338 LINE",
"265 332 LINE",
"214 506 LINE"
);
}
);
width = 605;
}
);
unicode = 0041;
},
{
glyphname = B;
layers = (
{
layerId = "E9386F05-ADE6-4680-88CE-E5F12972D961";
width = 600;
},
{
layerId = "62CD5346-0352-4548-B9DD-500D447F2E30";
width = 600;
},
{
layerId = "67EC95E2-4054-440D-AB4B-F0B974CBBED7";
width = 600;
},
{
layerId = "94D2509E-AE09-4DCD-8AC9-FEB053E4A4EF";
width = 600;
},
{
layerId = "B386CC4D-AD36-4992-A5CF-4B6CB312D231";
paths = (
{
closed = 1;
nodes = (
"25 2 LINE",
"25 600 LINE",
"5 600 LINE",
"5 2 LINE"
);
},
{
closed = 1;
nodes = (
"113 95 LINE",
"113 523 LINE",
"93 523 LINE",
"93 95 LINE"
);
},
{
closed = 1;
nodes = (
"226 366 LINE",
"226 442 LINE",
"206 442 LINE",
"206 366 LINE"
);
},
{
closed = 1;
nodes = (
"226 160 LINE",
"226 242 LINE",
"206 242 LINE",
"206 160 LINE"
);
},
{
closed = 1;
nodes = (
"549 90 LINE",
"549 226 LINE",
"529 226 LINE",
"529 90 LINE"
);
},
{
closed = 1;
nodes = (
"546 380 LINE",
"546 519 LINE",
"526 519 LINE",
"526 380 LINE"
);
},
{
closed = 1;
nodes = (
"6 2 LINE",
"424 2 LINE",
"424 22 LINE",
"6 22 LINE"
);
},
{
closed = 1;
nodes = (
"6 580 LINE",
"425 580 LINE",
"425 600 LINE",
"6 600 LINE"
);
},
{
closed = 1;
nodes = (
"93 503 LINE",
"355 503 LINE",
"355 523 LINE",
"93 523 LINE"
);
},
{
closed = 1;
nodes = (
"94 94 LINE",
"366 94 LINE",
"366 114 LINE",
"94 114 LINE"
);
},
{
closed = 1;
nodes = (
"424 389 LINE",
"424 469 LINE",
"404 469 LINE",
"404 389 LINE"
);
},
{
closed = 1;
nodes = (
"431 139 LINE",
"431 217 LINE",
"411 217 LINE",
"411 139 LINE"
);
},
{
closed = 1;
nodes = (
"206 158 LINE",
"307 158 LINE",
"307 178 LINE",
"206 178 LINE"
);
},
{
closed = 1;
nodes = (
"206 224 LINE",
"307 224 LINE",
"307 244 LINE",
"206 244 LINE"
);
},
{
closed = 1;
nodes = (
"206 423 LINE",
"302 423 LINE",
"302 443 LINE",
"206 443 LINE"
);
},
{
closed = 1;
nodes = (
"206 361 LINE",
"302 361 LINE",
"302 381 LINE",
"206 381 LINE"
);
},
{
closed = 1;
nodes = (
"108 96 LINE",
"95 110 LINE",
"8 31 LINE",
"20 18 LINE"
);
},
{
closed = 1;
nodes = (
"223 240 LINE",
"107 318 LINE",
"95 302 LINE",
"212 225 LINE"
);
},
{
closed = 1;
nodes = (
"222 443 LINE",
"106 522 LINE",
"93 506 LINE",
"210 428 LINE"
);
},
{
closed = 1;
nodes = (
"93 311 LINE",
"104 295 LINE",
"222 366 LINE",
"212 381 LINE"
);
},
{
closed = 1;
nodes = (
"104 110 LINE",
"114 94 LINE",
"229 165 LINE",
"219 180 LINE"
);
},
{
closed = 1;
nodes = (
"419 309 LINE",
"304 383 LINE",
"293 367 LINE",
"403 297 LINE",
"415 306 LINE",
"425 299 LINE",
"546 380 LINE",
"536 395 LINE",
"408 310 LINE",
"415 306 LINE",
"403 297 LINE",
"539 211 LINE",
"549 226 LINE",
"419 309 LINE",
"415 306 LINE",
"408 310 LINE",
"296 236 LINE",
"307 220 LINE",
"425 299 LINE",
"415 306 LINE"
);
},
{
closed = 1;
nodes = (
"546 99 LINE",
"420 158 LINE",
"412 141 LINE",
"538 83 LINE"
);
},
{
closed = 1;
nodes = (
"440 16 LINE",
"365 113 LINE",
"350 102 LINE",
"426 5 LINE"
);
},
{
closed = 1;
nodes = (
"408 467 LINE",
"416 450 LINE",
"543 510 LINE",
"535 526 LINE"
);
},
{
closed = 1;
nodes = (
"413 18 LINE",
"424 2 LINE",
"549 90 LINE",
"539 105 LINE"
);
},
{
closed = 1;
nodes = (
"546 519 LINE",
"425 600 LINE",
"414 584 LINE",
"536 504 LINE"
);
},
{
closed = 1;
nodes = (
"349 108 LINE",
"360 92 LINE",
"431 145 LINE",
"421 160 LINE"
);
},
{
closed = 1;
nodes = (
"340 351 LINE",
"351 335 LINE",
"423 389 LINE",
"413 404 LINE"
);
},
{
closed = 1;
nodes = (
"424 468 LINE",
"352 522 LINE",
"341 506 LINE",
"414 453 LINE"
);
},
{
closed = 1;
nodes = (
"430 218 LINE",
"357 271 LINE",
"345 257 LINE",
"419 205 LINE"
);
},
{
closed = 1;
nodes = (
"332 224 LINE",
"304 244 LINE",
"294 228 LINE",
"322 209 LINE"
);
},
{
closed = 1;
nodes = (
"332 178 LINE",
"332 224 LINE",
"312 224 LINE",
"312 178 LINE"
);
},
{
closed = 1;
nodes = (
"297 175 LINE",
"307 158 LINE",
"332 178 LINE",
"323 194 LINE"
);
},
{
closed = 1;
nodes = (
"418 203 LINE",
"540 212 LINE",
"540 232 LINE",
"417 223 LINE"
);
},
{
closed = 1;
nodes = (
"535 376 LINE",
"535 394 LINE",
"407 400 LINE",
"406 382 LINE"
);
},
{
closed = 1;
nodes = (
"93 299 LINE",
"402 299 LINE",
"402 319 LINE",
"93 319 LINE"
);
},
{
closed = 1;
nodes = (
"288 433 LINE",
"302 422 LINE",
"354 498 LINE",
"339 509 LINE"
);
},
{
closed = 1;
nodes = (
"342 511 LINE",
"357 500 LINE",
"431 584 LINE",
"419 596 LINE"
);
},
{
closed = 1;
nodes = (
"331 423 LINE",
"302 443 LINE",
"292 427 LINE",
"321 408 LINE"
);
},
{
closed = 1;
nodes = (
"331 381 LINE",
"331 423 LINE",
"311 423 LINE",
"311 381 LINE"
);
},
{
closed = 1;
nodes = (
"292 378 LINE",
"302 361 LINE",
"331 381 LINE",
"322 397 LINE"
);
},
{
closed = 1;
nodes = (
"419 452 LINE",
"410 466 LINE",
"318 426 LINE",
"324 408 LINE"
);
},
{
closed = 1;
nodes = (
"317 378 LINE",
"414 384 LINE",
"414 403 LINE",
"317 397 LINE"
);
},
{
closed = 1;
nodes = (
"318 173 LINE",
"410 138 LINE",
"419 152 LINE",
"324 191 LINE"
);
},
{
closed = 1;
nodes = (
"418 202 LINE",
"418 221 LINE",
"317 226 LINE",
"317 207 LINE"
);
},
{
closed = 1;
nodes = (
"369 113 LINE",
"304 174 LINE",
"290 163 LINE",
"354 102 LINE"
);
}
);
width = 554;
}
);
unicode = 0042;
},
{
glyphname = C;
layers = (
{
layerId = "E9386F05-ADE6-4680-88CE-E5F12972D961";
width = 600;
},
{
layerId = "62CD5346-0352-4548-B9DD-500D447F2E30";
width = 600;
},
{
layerId = "67EC95E2-4054-440D-AB4B-F0B974CBBED7";
width = 600;
},
{
layerId = "94D2509E-AE09-4DCD-8AC9-FEB053E4A4EF";
width = 600;
},
{
layerId = "B386CC4D-AD36-4992-A5CF-4B6CB312D231";
paths = (
{
closed = 1;
nodes = (
"343 0 LINE",
"343 19 LINE",
"160 19 LINE",
"160 0 LINE"
);
},
{
closed = 1;
nodes = (
"501 137 LINE",
"485 151 LINE",
"326 13 LINE",
"343 0 LINE"
);
},
{
closed = 1;
nodes = (
"501 136 LINE",
"501 279 LINE",
"480 279 LINE",
"480 136 LINE"
);
},
{
closed = 1;
nodes = (
"503 344 LINE",
"503 475 LINE",
"481 475 LINE",
"481 344 LINE"
);
},
{
closed = 1;
nodes = (
"503 474 LINE",
"354 599 LINE",
"339 584 LINE",
"488 459 LINE"
);
},
{
closed = 1;
nodes = (
"355 576 LINE",
"355 600 LINE",
"141 600 LINE",
"141 576 LINE"
);
},
{
closed = 1;
nodes = (
"156 585 LINE",
"141 600 LINE",
"5 474 LINE",
"20 459 LINE"
);
},
{
closed = 1;
nodes = (
"26 138 LINE",
"26 474 LINE",
"5 474 LINE",
"5 138 LINE"
);
},
{
closed = 1;
nodes = (
"175 15 LINE",
"20 153 LINE",
"5 138 LINE",
"160 0 LINE"
);
},
{
closed = 1;
nodes = (
"335 513 LINE",
"335 533 LINE",
"199 533 LINE",
"199 513 LINE"
);
},
{
closed = 1;
nodes = (
"214 516 LINE",
"201 531 LINE",
"91 442 LINE",
"106 427 LINE"
);
},
{
closed = 1;
nodes = (
"112 166 LINE",
"112 440 LINE",
"90 440 LINE",
"90 166 LINE"
);
},
{
closed = 1;
nodes = (
"215 525 LINE",
"153 594 LINE",
"134 587 LINE",
"200 512 LINE"
);
},
{
closed = 1;
nodes = (
"219 87 LINE",
"105 181 LINE",
"90 166 LINE",
"204 71 LINE"
);
},
{
closed = 1;
nodes = (
"350 21 LINE",
"330 101 LINE",
"313 91 LINE",
"333 11 LINE"
);
},
{
closed = 1;
nodes = (
"366 586 LINE",
"348 594 LINE",
"318 521 LINE",
"336 511 LINE"
);
},
{
closed = 1;
nodes = (
"502 343 LINE",
"502 363 LINE",
"322 363 LINE",
"322 343 LINE"
);
},
{
closed = 1;
nodes = (
"501 259 LINE",
"501 279 LINE",
"322 279 LINE",
"322 259 LINE"
);
},
{
closed = 1;
nodes = (
"234 199 LINE",
"234 422 LINE",
"213 422 LINE",
"213 199 LINE"
);
},
{
closed = 1;
nodes = (
"232 426 LINE",
"103 444 LINE",
"97 426 LINE",
"225 409 LINE"
);
},
{
closed = 1;
nodes = (
"267 441 LINE",
"252 456 LINE",
"218 423 LINE",
"233 408 LINE"
);
},
{
closed = 1;
nodes = (
"268 440 LINE",
"210 533 LINE",
"193 521 LINE",
"253 429 LINE"
);
},
{
closed = 1;
nodes = (
"300 434 LINE",
"300 453 LINE",
"244 453 LINE",
"244 434 LINE"
);
},
{
closed = 1;
nodes = (
"343 514 LINE",
"327 525 LINE",
"289 438 LINE",
"305 427 LINE"
);
},
{
closed = 1;
nodes = (
"343 420 LINE",
"308 453 LINE",
"293 438 LINE",
"327 404 LINE"
);
},
{
closed = 1;
nodes = (
"343 343 LINE",
"343 420 LINE",
"321 420 LINE",
"321 343 LINE"
);
},
{
closed = 1;
nodes = (
"344 201 LINE",
"344 279 LINE",
"322 279 LINE",
"322 201 LINE"
);
},
{
closed = 1;
nodes = (
"301 163 LINE",
"301 182 LINE",
"245 182 LINE",
"245 163 LINE"
);
},
{
closed = 1;
nodes = (
"234 192 LINE",
"228 209 LINE",
"97 180 LINE",
"103 162 LINE"
);
},
{
closed = 1;
nodes = (
"261 181 LINE",
"227 214 LINE",
"211 199 LINE",
"246 166 LINE"
);
},
{
closed = 1;
nodes = (
"265 169 LINE",
"251 180 LINE",
"204 96 LINE",
"218 85 LINE"
);
},
{
closed = 1;
nodes = (
"346 199 LINE",
"331 214 LINE",
"290 175 LINE",
"305 160 LINE"
);
},
{
closed = 1;
nodes = (
"332 94 LINE",
"300 176 LINE",
"285 165 LINE",
"317 83 LINE"
);
},
{
closed = 1;
nodes = (
"483 465 LINE",
"476 483 LINE",
"409 437 LINE",
"416 419 LINE"
);
},
{
closed = 1;
nodes = (
"423 432 LINE",
"337 530 LINE",
"328 511 LINE",
"407 422 LINE"
);
},
{
closed = 1;
nodes = (
"217 90 LINE",
"201 99 LINE",
"166 15 LINE",
"182 6 LINE"
);
},
{
closed = 1;
nodes = (
"329 76 LINE",
"329 95 LINE",
"204 95 LINE",
"204 76 LINE"
);
},
{
closed = 1;
nodes = (
"408 182 LINE",
"327 214 LINE",
"321 196 LINE",
"402 164 LINE"
);
},
{
closed = 1;
nodes = (
"416 165 LINE",
"401 176 LINE",
"315 88 LINE",
"330 77 LINE"
);
},
{
closed = 1;
nodes = (
"492 257 LINE",
"478 270 LINE",
"400 176 LINE",
"414 163 LINE"
);
},
{
closed = 1;
nodes = (
"486 149 LINE",
"410 182 LINE",
"404 162 LINE",
"480 129 LINE"
);
},
{
closed = 1;
nodes = (
"497 361 LINE",
"418 436 LINE",
"403 425 LINE",
"482 350 LINE"
);
},
{
closed = 1;
nodes = (
"420 420 LINE",
"404 430 LINE",
"325 368 LINE",
"341 357 LINE"
);
},
{
closed = 1;
nodes = (
"105 162 LINE",
"99 179 LINE",
"16 157 LINE",
"22 140 LINE"
);
},
{
closed = 1;
nodes = (
"103 444 LINE",
"20 469 LINE",
"14 452 LINE",
"97 427 LINE"
);
},
{
closed = 1;
nodes = (
"422 176 LINE",
"344 270 LINE",
"330 257 LINE",
"408 163 LINE"
);
},
{
closed = 1;
nodes = (
"418 421 LINE",
"412 437 LINE",
"325 425 LINE",
"331 409 LINE"
);
}
);
width = 508;
}
);
unicode = 0043;
},
{
glyphname = D;
layers = (
{
layerId = "E9386F05-ADE6-4680-88CE-E5F12972D961";
width = 600;
},
{
layerId = "62CD5346-0352-4548-B9DD-500D447F2E30";
width = 600;
},
{
layerId = "67EC95E2-4054-440D-AB4B-F0B974CBBED7";
width = 600;
},
{
layerId = "94D2509E-AE09-4DCD-8AC9-FEB053E4A4EF";
width = 600;
},
{
layerId = "B386CC4D-AD36-4992-A5CF-4B6CB312D231";
paths = (
{
closed = 1;
nodes = (
"222 430 LINE",
"301 430 LINE",
"301 447 LINE",
"222 447 LINE"
);
},
{
closed = 1;
nodes = (
"222 168 LINE",
"303 168 LINE",
"303 186 LINE",
"222 186 LINE"
);
},
{
closed = 1;
nodes = (
"222 186 LINE",
"240 186 LINE",
"240 432 LINE",
"222 432 LINE"
);
},
{
closed = 1;
nodes = (
"100 95 LINE",
"118 95 LINE",
"118 519 LINE",
"100 519 LINE"
);
},
{
closed = 1;
nodes = (
"5 0 LINE",
"23 0 LINE",
"23 600 LINE",
"5 600 LINE"
);
},
{
closed = 1;
nodes = (
"225 428 LINE",
"237 444 LINE",
"20 593 LINE",
"12 578 LINE"
);
},
{
closed = 1;
nodes = (
"118 95 LINE",
"118 108 LINE"
);
},
{
closed = 1;
nodes = (
"23 0 LINE",
"404 0 LINE",
"409 20 LINE",
"23 20 LINE"
);
},
{
closed = 1;
nodes = (
"102 510 LINE",
"348 510 LINE",
"348 526 LINE",
"102 526 LINE"
);
},
{
nodes = (
"367 98 LINE",
"318 168 LINE"
);
},
{
closed = 1;
nodes = (
"411 16 LINE",
"367 109 LINE",
"352 100 LINE",
"391 9 LINE"
);
},
{
closed = 1;
nodes = (
"368 108 LINE",
"310 185 LINE",
"295 175 LINE",
"352 98 LINE"
);
},
{
closed = 1;
nodes = (
"346 212 LINE",
"332 223 LINE",
"294 184 LINE",
"308 173 LINE"
);
},
{
closed = 1;
nodes = (
"455 182 LINE",
"439 189 LINE",
"352 108 LINE",
"362 95 LINE"
);
},
{
closed = 1;
nodes = (
"570 146 LINE",
"551 153 LINE",
"391 12 LINE",
"404 0 LINE"
);
},
{
closed = 1;
nodes = (
"452 187 LINE",
"334 225 LINE",
"330 209 LINE",
"441 173 LINE"
);
},
{
closed = 1;
nodes = (
"350 210 LINE",
"350 405 LINE",
"330 405 LINE",
"330 208 LINE"
);
},
{
closed = 1;
nodes = (
"563 158 LINE",
"447 188 LINE",
"441 175 LINE",
"552 145 LINE"
);
},
{
closed = 1;
nodes = (
"350 405 LINE",
"303 446 LINE",
"292 432 LINE",
"337 391 LINE"
);
},
{
closed = 1;
nodes = (
"358 518 LINE",
"341 526 LINE",
"288 439 LINE",
"305 432 LINE"
);
},
{
closed = 1;
nodes = (
"570 146 LINE",
"570 469 LINE",
"552 460 LINE",
"552 150 LINE"
);
},
{
closed = 1;
nodes = (
"452 434 LINE",
"348 523 LINE",
"337 510 LINE",
"442 419 LINE"
);
},
{
closed = 1;
nodes = (
"412 580 LINE",
"394 586 LINE",
"341 524 LINE",
"355 514 LINE"
);
},
{
closed = 1;
nodes = (
"553 460 LINE",
"547 476 LINE",
"435 443 LINE",
"445 429 LINE"
);
},
{
closed = 1;
nodes = (
"570 469 LINE",
"414 600 LINE",
"403 586 LINE",
"552 460 LINE"
);
},
{
closed = 1;
nodes = (
"21 580 LINE",
"411 580 LINE",
"415 600 LINE",
"21 600 LINE"
);
},
{
closed = 1;
nodes = (
"431 184 LINE",
"451 184 LINE",
"451 434 LINE",
"431 434 LINE"
);
},
{
closed = 1;
nodes = (
"117 95 LINE",
"360 95 LINE",
"360 113 LINE",
"117 113 LINE"
);
},
{
closed = 1;
nodes = (
"8 14 LINE",
"27 7 LINE",
"126 108 LINE",
"101 109 LINE"
);
},
{
closed = 1;
nodes = (
"103 112 LINE",
"129 106 LINE",
"251 181 LINE",
"223 185 LINE"
);
},
{
closed = 1;
nodes = (
"331 404 LINE",
"336 389 LINE",
"462 435 LINE",
"443 446 LINE"
);
}
);
width = 575;
}
);
unicode = 0044;
},
{
glyphname = E;
layers = (
{
layerId = "E9386F05-ADE6-4680-88CE-E5F12972D961";
width = 600;
},
{
layerId = "62CD5346-0352-4548-B9DD-500D447F2E30";
width = 600;
},
{
layerId = "67EC95E2-4054-440D-AB4B-F0B974CBBED7";
width = 600;
},
{
layerId = "94D2509E-AE09-4DCD-8AC9-FEB053E4A4EF";
width = 600;
},
{
layerId = "B386CC4D-AD36-4992-A5CF-4B6CB312D231";
paths = (
{
closed = 1;
nodes = (
"125 102 LINE",
"125 513 LINE",
"15 590 LINE",
"15 10 LINE"
);
},
{
closed = 1;
nodes = (
"130 89 LINE",
"117 102 LINE",
"5 13 LINE",
"18 0 LINE"
);
},
{
closed = 1;
nodes = (
"25 0 LINE",
"25 600 LINE",
"5 600 LINE",
"5 0 LINE"
);
},
{
closed = 1;
nodes = (
"135 97 LINE",
"135 521 LINE",
"115 521 LINE",
"115 97 LINE"
);
},
{
closed = 1;
nodes = (
"248 237 LINE",
"130 317 LINE",
"115 304 LINE",
"235 223 LINE"
);
},
{
closed = 1;
nodes = (
"345 225 LINE",
"345 245 LINE",
"235 245 LINE",
"235 225 LINE"
);
},
{
closed = 1;
nodes = (
"248 370 LINE",
"235 385 LINE",
"115 306 LINE",
"130 295 LINE"
);
},
{
closed = 1;
nodes = (
"130 519 LINE",
"18 600 LINE",
"5 587 LINE",
"117 506 LINE"
);
},
{
closed = 1;
nodes = (
"235 297 LINE",
"235 317 LINE",
"135 317 LINE",
"135 297 LINE"
);
},
{
closed = 1;
nodes = (
"229 307 LINE",
"332 375 LINE",
"239 375 LINE",
"136 307 LINE"
);
},
{
closed = 1;
nodes = (
"339 513 LINE",
"455 590 LINE",
"15 590 LINE",
"121 513 LINE"
);
},
{
closed = 1;
nodes = (
"345 365 LINE",
"345 385 LINE",
"235 385 LINE",
"235 365 LINE"
);
},
{
closed = 1;
nodes = (
"348 237 LINE",
"230 317 LINE",
"215 306 LINE",
"335 225 LINE"
);
},
{
closed = 1;
nodes = (
"348 370 LINE",
"335 385 LINE",
"215 306 LINE",
"232 297 LINE"
);
},
{
closed = 1;
nodes = (
"355 225 LINE",
"355 385 LINE",
"335 385 LINE",
"335 225 LINE"
);
},
{
closed = 1;
nodes = (
"245 172 LINE",
"245 238 LINE",
"225 238 LINE",
"225 172 LINE"
);
},
{
closed = 1;
nodes = (
"455 0 LINE",
"455 20 LINE",
"15 20 LINE",
"15 0 LINE"
);
},
{
closed = 1;
nodes = (
"244 165 LINE",
"231 180 LINE",
"121 106 LINE",
"136 95 LINE"
);
},
{
closed = 1;
nodes = (
"345 87 LINE",
"345 107 LINE",
"121 107 LINE",
"121 87 LINE"
);
},
{
closed = 1;
nodes = (
"339 97 LINE",
"442 170 LINE",
"235 170 LINE",
"132 97 LINE"
);
},
{
closed = 1;
nodes = (
"455 160 LINE",
"455 180 LINE",
"231 180 LINE",
"231 160 LINE"
);
},
{
closed = 1;
nodes = (
"458 22 LINE",
"340 107 LINE",
"325 96 LINE",
"445 10 LINE"
);
},
{
closed = 1;
nodes = (
"458 165 LINE",
"445 180 LINE",
"325 96 LINE",
"342 87 LINE"
);
},
{
closed = 1;
nodes = (
"465 0 LINE",
"465 180 LINE",
"445 180 LINE",
"445 0 LINE"
);
},
{
closed = 1;
nodes = (
"15 580 LINE",
"455 580 LINE",
"455 600 LINE",
"15 600 LINE"
);
},
{
closed = 1;
nodes = (
"121 504 LINE",
"231 420 LINE",
"244 435 LINE",
"136 515 LINE"
);
},
{
closed = 1;
nodes = (
"121 503 LINE",
"345 503 LINE",
"345 523 LINE",
"121 523 LINE"
);
},
{
closed = 1;
nodes = (
"231 420 LINE",
"455 420 LINE",
"455 440 LINE",
"231 440 LINE"
);
},
{
closed = 1;
nodes = (
"324 520 LINE",
"339 506 LINE",
"458 580 LINE",
"441 593 LINE"
);
},
{
closed = 1;
nodes = (
"324 514 LINE",
"445 427 LINE",
"458 442 LINE",
"342 523 LINE"
);
},
{
closed = 1;
nodes = (
"445 420 LINE",
"465 420 LINE",
"465 600 LINE",
"445 600 LINE"
);
},
{
closed = 1;
nodes = (
"245 372 LINE",
"245 438 LINE",
"225 438 LINE",
"225 372 LINE"
);
}
);
width = 470;
}
);
unicode = 0045;
},
{
glyphname = F;
layers = (
{
layerId = "E9386F05-ADE6-4680-88CE-E5F12972D961";
width = 600;
},
{
layerId = "62CD5346-0352-4548-B9DD-500D447F2E30";
width = 600;
},
{
layerId = "67EC95E2-4054-440D-AB4B-F0B974CBBED7";
width = 600;
},
{
layerId = "94D2509E-AE09-4DCD-8AC9-FEB053E4A4EF";
width = 600;
},
{
layerId = "B386CC4D-AD36-4992-A5CF-4B6CB312D231";
paths = (
{
closed = 1;
nodes = (
"125 112 LINE",
"125 518 LINE",
"15 590 LINE",
"15 10 LINE"
);
},
{
closed = 1;
nodes = (
"130 109 LINE",
"117 122 LINE",
"5 13 LINE",
"18 0 LINE"
);
},
{
closed = 1;
nodes = (
"25 0 LINE",
"25 600 LINE",
"5 600 LINE",
"5 0 LINE"
);
},
{
closed = 1;
nodes = (
"135 117 LINE",
"135 526 LINE",
"115 526 LINE",
"115 117 LINE"
);
},
{
closed = 1;
nodes = (
"248 237 LINE",
"130 317 LINE",
"115 304 LINE",
"235 223 LINE"
);
},
{
closed = 1;
nodes = (
"345 225 LINE",
"345 245 LINE",
"235 245 LINE",
"235 225 LINE"
);
},
{
closed = 1;
nodes = (
"248 370 LINE",
"235 385 LINE",
"115 306 LINE",
"130 295 LINE"
);
},
{
closed = 1;
nodes = (
"130 524 LINE",
"18 600 LINE",
"5 587 LINE",
"117 511 LINE"
);
},
{
closed = 1;
nodes = (
"235 297 LINE",
"235 317 LINE",
"135 317 LINE",
"135 297 LINE"
);
},
{
closed = 1;
nodes = (
"229 307 LINE",
"332 375 LINE",
"239 375 LINE",
"136 307 LINE"
);
},
{
closed = 1;
nodes = (
"339 518 LINE",
"455 590 LINE",
"15 590 LINE",
"121 518 LINE"
);
},
{
closed = 1;
nodes = (
"345 365 LINE",
"345 385 LINE",
"235 385 LINE",
"235 365 LINE"
);
},
{
closed = 1;
nodes = (
"348 237 LINE",
"230 317 LINE",
"215 306 LINE",
"335 225 LINE"
);
},
{
closed = 1;
nodes = (
"348 370 LINE",
"335 385 LINE",
"215 306 LINE",
"232 297 LINE"
);
},
{
closed = 1;
nodes = (
"355 225 LINE",
"355 385 LINE",
"335 385 LINE",
"335 225 LINE"
);
},
{
closed = 1;
nodes = (
"245 0 LINE",
"245 238 LINE",
"225 238 LINE",
"225 0 LINE"
);
},
{
closed = 1;
nodes = (
"15 580 LINE",
"455 580 LINE",
"455 600 LINE",
"15 600 LINE"
);
},
{
closed = 1;
nodes = (
"121 509 LINE",
"231 425 LINE",
"244 440 LINE",
"136 520 LINE"
);
},
{
closed = 1;
nodes = (
"121 508 LINE",
"345 508 LINE",
"345 528 LINE",
"121 528 LINE"
);
},
{
closed = 1;
nodes = (
"231 425 LINE",
"455 425 LINE",
"455 445 LINE",
"231 445 LINE"
);
},
{
closed = 1;
nodes = (
"324 525 LINE",
"339 511 LINE",
"458 580 LINE",
"441 593 LINE"
);
},
{
closed = 1;
nodes = (
"324 519 LINE",
"445 432 LINE",
"458 447 LINE",
"342 528 LINE"
);
},
{
closed = 1;
nodes = (
"445 425 LINE",
"465 425 LINE",
"465 600 LINE",
"445 600 LINE"
);
},
{
closed = 1;
nodes = (
"245 372 LINE",
"245 443 LINE",
"225 443 LINE",
"225 372 LINE"
);
},
{
closed = 1;
nodes = (
"245 0 LINE",
"245 20 LINE",
"5 20 LINE",
"5 0 LINE"
);
},
{
closed = 1;
nodes = (
"245 13 LINE",
"133 125 LINE",
"120 112 LINE",
"232 0 LINE"
);
}
);
width = 470;
}
);
unicode = 0046;
},
{
glyphname = G;
layers = (
{
layerId = "E9386F05-ADE6-4680-88CE-E5F12972D961";
width = 600;
},
{
layerId = "62CD5346-0352-4548-B9DD-500D447F2E30";
width = 600;
},
{
layerId = "67EC95E2-4054-440D-AB4B-F0B974CBBED7";
width = 600;
},
{
layerId = "94D2509E-AE09-4DCD-8AC9-FEB053E4A4EF";
width = 600;
},
{
layerId = "B386CC4D-AD36-4992-A5CF-4B6CB312D231";
paths = (
{
closed = 1;
nodes = (
"541 339 LINE",
"561 339 LINE",
"561 462 LINE",
"541 462 LINE"
);
},
{
closed = 1;
nodes = (
"541 339 LINE",
"561 339 LINE"
);
},
{
closed = 1;
nodes = (
"548 447 LINE",
"561 462 LINE",
"400 600 LINE",
"387 585 LINE"
);
},
{
closed = 1;
nodes = (
"548 447 LINE",
"561 462 LINE"
);
},
{
closed = 1;
nodes = (
"551 339 LINE",
"551 359 LINE",
"326 359 LINE",
"326 339 LINE"
);
},
{
closed = 1;
nodes = (
"533 347 LINE",
"547 361 LINE",
"459 449 LINE",
"445 435 LINE"
);
},
{
closed = 1;
nodes = (
"439 448 LINE",
"443 428 LINE",
"554 447 LINE",
"551 467 LINE"
);
},
{
closed = 1;
nodes = (
"326 359 LINE",
"339 344 LINE",
"467 432 LINE",
"454 447 LINE"
);
},
{
closed = 1;
nodes = (
"178 14 LINE",
"20 149 LINE",
"5 135 LINE",
"163 0 LINE"
);
},
{
closed = 1;
nodes = (
"109 167 LINE",
"103 184 LINE",
"18 161 LINE",
"24 144 LINE"
);
},
{
closed = 1;
nodes = (
"223 96 LINE",
"206 106 LINE",
"154 17 LINE",
"171 7 LINE"
);
},
{
closed = 1;
nodes = (
"354 0 LINE",
"354 20 LINE",
"163 20 LINE",
"163 0 LINE"
);
},
{
closed = 1;
nodes = (
"218 101 LINE",
"110 187 LINE",
"95 173 LINE",
"204 87 LINE"
);
},
{
closed = 1;
nodes = (
"26 135 LINE",
"26 466 LINE",
"5 466 LINE",
"5 135 LINE"
);
},
{
closed = 1;
nodes = (
"234 198 LINE",
"228 214 LINE",
"105 185 LINE",
"111 169 LINE"
);
},
{
closed = 1;
nodes = (
"327 84 LINE",
"327 103 LINE",
"209 103 LINE",
"209 84 LINE"
);
},
{
closed = 1;
nodes = (
"267 175 LINE",
"252 187 LINE",
"203 102 LINE",
"219 91 LINE"
);
},
{
closed = 1;
nodes = (
"366 17 LINE",
"340 108 LINE",
"321 101 LINE",
"346 10 LINE"
);
},
{
closed = 1;
nodes = (
"116 173 LINE",
"116 438 LINE",
"95 438 LINE",
"95 173 LINE"
);
},
{
closed = 1;
nodes = (
"341 100 LINE",
"314 184 LINE",
"298 172 LINE",
"325 88 LINE"
);
},
{
closed = 1;
nodes = (
"111 448 LINE",
"26 470 LINE",
"19 452 LINE",
"104 430 LINE"
);
},
{
closed = 1;
nodes = (
"181 586 LINE",
"166 600 LINE",
"5 466 LINE",
"20 452 LINE"
);
},
{
closed = 1;
nodes = (
"218 522 LINE",
"205 535 LINE",
"97 442 LINE",
"111 429 LINE"
);
},
{
closed = 1;
nodes = (
"273 449 LINE",
"225 527 LINE",
"208 515 LINE",
"256 437 LINE"
);
},
{
closed = 1;
nodes = (
"228 523 LINE",
"185 592 LINE",
"164 585 LINE",
"209 516 LINE"
);
},
{
closed = 1;
nodes = (
"360 520 LINE",
"360 539 LINE",
"203 539 LINE",
"203 520 LINE"
);
},
{
closed = 1;
nodes = (
"400 582 LINE",
"400 600 LINE",
"166 600 LINE",
"166 582 LINE"
);
},
{
closed = 1;
nodes = (
"234 417 LINE",
"112 447 LINE",
"106 431 LINE",
"228 401 LINE"
);
},
{
closed = 1;
nodes = (
"239 207 LINE",
"239 407 LINE",
"219 407 LINE",
"219 207 LINE"
);
},
{
closed = 1;
nodes = (
"311 167 LINE",
"311 185 LINE",
"250 185 LINE",
"250 167 LINE"
);
},
{
closed = 1;
nodes = (
"312 434 LINE",
"312 452 LINE",
"255 452 LINE",
"255 434 LINE"
);
},
{
closed = 1;
nodes = (
"351 201 LINE",
"334 214 LINE",
"296 179 LINE",
"310 165 LINE"
);
},
{
closed = 1;
nodes = (
"351 201 LINE",
"351 279 LINE",
"331 279 LINE",
"331 203 LINE"
);
},
{
closed = 1;
nodes = (
"345 413 LINE",
"310 449 LINE",
"296 435 LINE",
"331 399 LINE"
);
},
{
closed = 1;
nodes = (
"465 450 LINE",
"374 530 LINE",
"359 515 LINE",
"450 435 LINE"
);
},
{
closed = 1;
nodes = (
"369 517 LINE",
"352 529 LINE",
"293 443 LINE",
"309 431 LINE"
);
},
{
closed = 1;
nodes = (
"411 581 LINE",
"395 593 LINE",
"349 524 LINE",
"366 513 LINE"
);
},
{
closed = 1;
nodes = (
"461 180 LINE",
"447 194 LINE",
"323 97 LINE",
"337 83 LINE"
);
},
{
closed = 1;
nodes = (
"346 342 LINE",
"346 411 LINE",
"326 411 LINE",
"326 342 LINE"
);
},
{
closed = 1;
nodes = (
"566 258 LINE",
"566 279 LINE",
"331 279 LINE",
"331 258 LINE"
);
},
{
closed = 1;
nodes = (
"459 89 LINE",
"446 104 LINE",
"341 15 LINE",
"354 0 LINE"
);
},
{
closed = 1;
nodes = (
"546 0 LINE",
"567 0 LINE",
"566 268 LINE",
"546 268 LINE"
);
},
{
closed = 1;
nodes = (
"545 0 LINE",
"559 16 LINE",
"461 100 LINE",
"446 85 LINE"
);
},
{
closed = 1;
nodes = (
"264 185 LINE",
"232 216 LINE",
"218 202 LINE",
"250 171 LINE"
);
},
{
closed = 1;
nodes = (
"270 435 LINE",
"256 449 LINE",
"223 413 LINE",
"237 399 LINE"
);
},
{
closed = 1;
nodes = (
"556 253 LINE",
"542 267 LINE",
"449 190 LINE",
"463 176 LINE"
);
},
{
closed = 1;
nodes = (
"463 89 LINE",
"463 188 LINE",
"443 188 LINE",
"443 89 LINE"
);
},
{
closed = 1;
nodes = (
"453 190 LINE",
"356 267 LINE",
"342 253 LINE",
"439 176 LINE"
);
},
{
closed = 1;
nodes = (
"456 431 LINE",
"450 447 LINE",
"328 417 LINE",
"334 401 LINE"
);
}
);
width = 572;
}
);
unicode = 0047;
},
{
glyphname = H;
layers = (
{
layerId = "E9386F05-ADE6-4680-88CE-E5F12972D961";
paths = (
{
closed = 1;
nodes = (
"158 117 LINE",
"158 483 LINE",
"35 590 LINE",
"35 10 LINE"
);
},
{
closed = 1;
nodes = (
"225 0 LINE",
"225 20 LINE",
"25 20 LINE",
"25 0 LINE"
);
},
{
closed = 1;
nodes = (
"163 112 LINE",
"150 125 LINE",
"25 13 LINE",
"38 0 LINE"
);
},
{
closed = 1;
nodes = (
"45 0 LINE",
"45 600 LINE",
"25 600 LINE",
"25 0 LINE"
);
},
{
closed = 1;
nodes = (
"225 13 LINE",
"166 125 LINE",
"153 112 LINE",
"212 0 LINE"
);
},
{
closed = 1;
nodes = (
"225 0 LINE",
"225 228 LINE",
"205 228 LINE",
"205 0 LINE"
);
},
{
closed = 1;
nodes = (
"168 110 LINE",
"168 490 LINE",
"148 490 LINE",
"148 110 LINE"
);
},
{
closed = 1;
nodes = (
"302 0 LINE",
"302 228 LINE",
"282 228 LINE",
"282 0 LINE"
);
},
{
closed = 1;
nodes = (
"228 232 LINE",
"163 320 LINE",
"148 309 LINE",
"212 217 LINE"
);
},
{
closed = 1;
nodes = (
"475 0 LINE",
"475 20 LINE",
"282 20 LINE",
"282 0 LINE"
);
},
{
closed = 1;
nodes = (
"413 112 LINE",
"400 125 LINE",
"282 13 LINE",
"295 0 LINE"
);
},
{
closed = 1;
nodes = (
"292 220 LINE",
"292 240 LINE",
"215 240 LINE",
"215 220 LINE"
);
},
{
closed = 1;
nodes = (
"228 385 LINE",
"212 403 LINE",
"148 309 LINE",
"163 298 LINE"
);
},
{
closed = 1;
nodes = (
"408 117 LINE",
"408 316 LINE",
"406 314 LINE",
"292 230 LINE",
"292 10 LINE"
);
},
{
closed = 1;
nodes = (
"475 13 LINE",
"416 125 LINE",
"403 112 LINE",
"462 0 LINE"
);
},
{
closed = 1;
nodes = (
"163 488 LINE",
"38 600 LINE",
"25 587 LINE",
"150 475 LINE"
);
},
{
closed = 1;
nodes = (
"388 300 LINE",
"388 320 LINE",
"168 320 LINE",
"168 300 LINE"
);
},
{
closed = 1;
nodes = (
"392 310 LINE",
"279 390 LINE",
"219 390 LINE",
"169 310 LINE"
);
},
{
closed = 1;
nodes = (
"162 483 LINE",
"215 590 LINE",
"35 590 LINE",
"154 483 LINE"
);
},
{
closed = 1;
nodes = (
"418 311 LINE",
"404 322 LINE",
"279 234 LINE",
"292 220 LINE"
);
},
{
closed = 1;
nodes = (
"292 380 LINE",
"282 400 LINE",
"215 400 LINE",
"215 380 LINE"
);
},
{
closed = 1;
nodes = (
"225 580 LINE",
"225 600 LINE",
"30 600 LINE",
"30 580 LINE"
);
},
{
closed = 1;
nodes = (
"224 587 LINE",
"211 600 LINE",
"152 488 LINE",
"165 475 LINE"
);
},
{
closed = 1;
nodes = (
"225 390 LINE",
"225 600 LINE",
"205 600 LINE",
"205 390 LINE"
);
},
{
closed = 1;
nodes = (
"418 311 LINE",
"292 400 LINE",
"279 387 LINE",
"403 300 LINE"
);
},
{
closed = 1;
nodes = (
"418 110 LINE",
"418 490 LINE",
"398 490 LINE",
"398 110 LINE"
);
},
{
closed = 1;
nodes = (
"302 390 LINE",
"302 600 LINE",
"282 600 LINE",
"282 390 LINE"
);
},
{
closed = 1;
nodes = (
"408 311 LINE",
"408 483 LINE",
"292 590 LINE",
"292 311 LINE"
);
},
{
closed = 1;
nodes = (
"475 0 LINE",
"475 600 LINE",
"455 600 LINE",
"455 0 LINE"
);
},
{
closed = 1;
nodes = (
"413 488 LINE",
"295 600 LINE",
"282 587 LINE",
"400 475 LINE"
);
},
{
closed = 1;
nodes = (
"412 483 LINE",
"465 590 LINE",
"292 590 LINE",
"404 483 LINE"
);
},
{
closed = 1;
nodes = (
"474 587 LINE",
"461 600 LINE",
"402 488 LINE",
"415 475 LINE"
);
},
{
closed = 1;
nodes = (
"475 580 LINE",
"475 600 LINE",
"287 600 LINE",
"287 580 LINE"
);
}
);
width = 480;
},
{
layerId = "62CD5346-0352-4548-B9DD-500D447F2E30";
paths = (
{
closed = 1;
nodes = (
"72 117 LINE",
"72 483 LINE",
"35 590 LINE",
"35 10 LINE"
);
},
{
closed = 1;
nodes = (
"225 0 LINE",
"225 20 LINE",
"25 20 LINE",
"25 0 LINE"
);
},
{
closed = 1;
nodes = (
"77 112 LINE",
"64 125 LINE",
"25 13 LINE",
"38 0 LINE"
);
},
{
closed = 1;
nodes = (
"45 0 LINE",
"45 600 LINE",
"25 600 LINE",
"25 0 LINE"
);
},
{
closed = 1;
nodes = (
"225 13 LINE",
"80 125 LINE",
"67 112 LINE",
"212 0 LINE"
);
},
{
closed = 1;
nodes = (
"225 0 LINE",
"225 228 LINE",
"205 228 LINE",
"205 0 LINE"
);
},
{
closed = 1;
nodes = (
"82 110 LINE",
"82 490 LINE",
"62 490 LINE",
"62 110 LINE"
);
},
{
closed = 1;
nodes = (
"302 0 LINE",
"302 228 LINE",
"282 228 LINE",
"282 0 LINE"
);
},
{
closed = 1;
nodes = (
"228 232 LINE",
"77 320 LINE",
"62 309 LINE",
"215 220 LINE"
);
},
{
closed = 1;
nodes = (
"482 0 LINE",
"482 20 LINE",
"282 20 LINE",
"282 0 LINE"
);
},
{
closed = 1;
nodes = (
"333 112 LINE",
"320 125 LINE",
"282 13 LINE",
"295 0 LINE"
);
},
{
closed = 1;
nodes = (
"292 220 LINE",
"292 240 LINE",
"215 240 LINE",
"215 220 LINE"
);
},
{
closed = 1;
nodes = (
"228 385 LINE",
"215 400 LINE",
"62 309 LINE",
"77 298 LINE"
);
},
{
closed = 1;
nodes = (
"328 117 LINE",
"328 316 LINE",
"292 316 LINE",
"292 230 LINE",
"292 10 LINE"
);
},
{
closed = 1;
nodes = (
"482 13 LINE",
"336 125 LINE",
"323 112 LINE",
"469 0 LINE"
);
},
{
closed = 1;
nodes = (
"77 488 LINE",
"38 600 LINE",
"25 587 LINE",
"64 475 LINE"
);
},
{
closed = 1;
nodes = (
"322 300 LINE",
"322 320 LINE",
"82 320 LINE",
"82 300 LINE"
);
},
{
closed = 1;
nodes = (
"326 310 LINE",
"279 390 LINE",
"219 390 LINE",
"83 310 LINE"
);
},
{
closed = 1;
nodes = (
"76 483 LINE",
"215 590 LINE",
"35 590 LINE",
"68 483 LINE"
);
},
{
closed = 1;
nodes = (
"296 311 LINE",
"282 322 LINE",
"282 234 LINE",
"295 220 LINE"
);
},
{
closed = 1;
nodes = (
"292 380 LINE",
"282 400 LINE",
"215 400 LINE",
"215 380 LINE"
);
},
{
closed = 1;
nodes = (
"225 580 LINE",
"225 600 LINE",
"30 600 LINE",
"30 580 LINE"
);
},
{
closed = 1;
nodes = (
"224 587 LINE",
"211 600 LINE",
"66 488 LINE",
"79 475 LINE"
);
},
{
closed = 1;
nodes = (
"225 390 LINE",
"225 600 LINE",
"205 600 LINE",
"205 390 LINE"
);
},
{
closed = 1;
nodes = (
"297 311 LINE",
"297 400 LINE",
"282 387 LINE",
"282 300 LINE"
);
},
{
closed = 1;
nodes = (
"338 110 LINE",
"338 490 LINE",
"318 490 LINE",
"318 110 LINE"
);
},
{
closed = 1;
nodes = (
"302 390 LINE",
"302 600 LINE",
"282 600 LINE",
"282 390 LINE"
);
},
{
closed = 1;
nodes = (
"328 311 LINE",
"328 483 LINE",
"292 590 LINE",
"292 311 LINE"
);
},
{
closed = 1;
nodes = (
"482 0 LINE",
"482 600 LINE",
"462 600 LINE",
"462 0 LINE"
);
},
{
closed = 1;
nodes = (
"333 488 LINE",
"295 600 LINE",
"282 587 LINE",
"320 475 LINE"
);
},
{
closed = 1;
nodes = (
"332 483 LINE",
"472 590 LINE",
"292 590 LINE",
"324 483 LINE"
);
},
{
closed = 1;
nodes = (
"481 587 LINE",
"468 600 LINE",
"322 488 LINE",
"335 475 LINE"
);
},
{
closed = 1;
nodes = (
"482 580 LINE",
"482 600 LINE",
"287 600 LINE",
"287 580 LINE"
);
}
);
width = 487;
},
{
layerId = "67EC95E2-4054-440D-AB4B-F0B974CBBED7";
paths = (
{
closed = 1;
nodes = (
"125 111 LINE",
"125 396 LINE",
"15 540 LINE",
"15 60 LINE"
);
},
{
closed = 1;
nodes = (
"245 50 LINE",
"245 69 LINE",
"5 69 LINE",
"5 50 LINE"
);
},
{
closed = 1;
nodes = (
"130 106 LINE",
"117 121 LINE",
"5 66 LINE",
"18 50 LINE"
);
},
{
closed = 1;
nodes = (
"25 50 LINE",
"25 550 LINE",
"5 550 LINE",
"5 50 LINE"
);
},
{
closed = 1;
nodes = (
"245 66 LINE",
"133 121 LINE",
"120 106 LINE",
"232 50 LINE"
);
},
{
closed = 1;
nodes = (
"245 50 LINE",
"245 221 LINE",
"225 227 LINE",
"225 50 LINE"
);
},
{
closed = 1;
nodes = (
"135 104 LINE",
"135 403 LINE",
"115 403 LINE",
"115 104 LINE"
);
},
{
closed = 1;
nodes = (
"335 50 LINE",
"335 227 LINE",
"315 221 LINE",
"315 50 LINE"
);
},
{
closed = 1;
nodes = (
"248 227 LINE",
"130 257 LINE",
"115 247 LINE",
"235 211 LINE"
);
},
{
closed = 1;
nodes = (
"555 50 LINE",
"555 69 LINE",
"315 69 LINE",
"315 50 LINE"
);
},
{
closed = 1;
nodes = (
"440 106 LINE",
"427 121 LINE",
"315 66 LINE",
"328 50 LINE"
);
},
{
closed = 1;
nodes = (
"325 210 LINE",
"325 230 LINE",
"235 230 LINE",
"235 210 LINE"
);
},
{
closed = 1;
nodes = (
"248 362 LINE",
"235 377 LINE",
"115 252 LINE",
"130 241 LINE"
);
},
{
closed = 1;
nodes = (
"435 113 LINE",
"435 259 LINE",
"429 256 LINE",
"325 227 LINE",
"325 60 LINE"
);
},
{
closed = 1;
nodes = (
"555 66 LINE",
"443 121 LINE",
"430 106 LINE",
"542 50 LINE"
);
},
{
closed = 1;
nodes = (
"130 401 LINE",
"18 550 LINE",
"5 537 LINE",
"117 388 LINE"
);
},
{
closed = 1;
nodes = (
"415 253 LINE",
"415 273 LINE",
"135 273 LINE",
"135 253 LINE"
);
},
{
closed = 1;
nodes = (
"419 253 LINE",
"312 367 LINE",
"239 367 LINE",
"136 253 LINE"
);
},
{
closed = 1;
nodes = (
"129 396 LINE",
"235 540 LINE",
"15 540 LINE",
"121 396 LINE"
);
},
{
closed = 1;
nodes = (
"445 249 LINE",
"431 259 LINE",
"312 228 LINE",
"325 211 LINE"
);
},
{
closed = 1;
nodes = (
"325 357 LINE",
"315 377 LINE",
"235 377 LINE",
"235 357 LINE"
);
},
{
closed = 1;
nodes = (
"245 530 LINE",
"245 550 LINE",
"10 550 LINE",
"10 530 LINE"
);
},
{
closed = 1;
nodes = (
"244 537 LINE",
"231 550 LINE",
"119 401 LINE",
"132 388 LINE"
);
},
{
closed = 1;
nodes = (
"245 367 LINE",
"245 550 LINE",
"225 550 LINE",
"225 367 LINE"
);
},
{
closed = 1;
nodes = (
"445 254 LINE",
"325 377 LINE",
"312 364 LINE",
"430 243 LINE"
);
},
{
closed = 1;
nodes = (
"445 104 LINE",
"445 403 LINE",
"425 403 LINE",
"425 104 LINE"
);
},
{
closed = 1;
nodes = (
"335 367 LINE",
"335 550 LINE",
"315 550 LINE",
"315 367 LINE"
);
},
{
closed = 1;
nodes = (
"435 254 LINE",
"435 396 LINE",
"325 540 LINE",
"325 264 LINE"
);
},
{
closed = 1;
nodes = (
"555 50 LINE",
"555 550 LINE",
"535 550 LINE",
"535 50 LINE"
);
},
{
closed = 1;
nodes = (
"440 401 LINE",
"328 550 LINE",
"315 537 LINE",
"427 388 LINE"
);
},
{
closed = 1;
nodes = (
"439 396 LINE",
"545 540 LINE",
"325 540 LINE",
"431 396 LINE"
);
},
{
closed = 1;
nodes = (
"554 537 LINE",
"541 550 LINE",
"429 401 LINE",
"442 388 LINE"
);
},
{
closed = 1;
nodes = (
"555 530 LINE",
"555 550 LINE",
"320 550 LINE",
"320 530 LINE"
);
}
);
width = 560;
},
{
layerId = "94D2509E-AE09-4DCD-8AC9-FEB053E4A4EF";
paths = (
{
closed = 1;
nodes = (
"125 220 LINE",
"125 499 LINE",
"15 540 LINE",
"15 60 LINE"
);
},
{
closed = 1;
nodes = (
"245 50 LINE",
"245 70 LINE",
"5 70 LINE",
"5 50 LINE"
);
},
{
closed = 1;
nodes = (
"133 215 LINE",
"117 228 LINE",
"5 63 LINE",
"21 50 LINE"
);
},
{
closed = 1;
nodes = (
"25 50 LINE",
"25 550 LINE",
"5 550 LINE",
"5 50 LINE"
);
},
{
closed = 1;
nodes = (
"245 63 LINE",
"133 228 LINE",
"117 215 LINE",
"229 50 LINE"
);
},
{
closed = 1;
nodes = (
"245 50 LINE",
"245 248 LINE",
"225 248 LINE",
"225 50 LINE"
);
},
{
closed = 1;
nodes = (
"135 213 LINE",
"135 506 LINE",
"115 506 LINE",
"115 213 LINE"
);
},
{
closed = 1;
nodes = (
"335 50 LINE",
"335 248 LINE",
"315 248 LINE",
"315 50 LINE"
);
},
{
closed = 1;
nodes = (
"248 252 LINE",
"130 380 LINE",
"115 366 LINE",
"232 240 LINE"
);
},
{
closed = 1;
nodes = (
"555 50 LINE",
"555 70 LINE",
"315 70 LINE",
"315 50 LINE"
);
},
{
closed = 1;
nodes = (
"443 215 LINE",
"427 228 LINE",
"315 63 LINE",
"331 50 LINE"
);
},
{
closed = 1;
nodes = (
"325 240 LINE",
"325 260 LINE",
"235 260 LINE",
"235 240 LINE"
);
},
{
closed = 1;
nodes = (
"248 378 LINE",
"235 393 LINE",
"115 376 LINE",
"130 358 LINE"
);
},
{
closed = 1;
nodes = (
"435 220 LINE",
"435 376 LINE",
"433 374 LINE",
"325 250 LINE",
"325 60 LINE"
);
},
{
closed = 1;
nodes = (
"555 63 LINE",
"443 228 LINE",
"427 215 LINE",
"539 50 LINE"
);
},
{
closed = 1;
nodes = (
"130 504 LINE",
"18 550 LINE",
"5 533 LINE",
"117 488 LINE"
);
},
{
closed = 1;
nodes = (
"415 360 LINE",
"415 380 LINE",
"135 380 LINE",
"135 360 LINE"
);
},
{
closed = 1;
nodes = (
"419 370 LINE",
"312 383 LINE",
"239 383 LINE",
"136 370 LINE"
);
},
{
closed = 1;
nodes = (
"129 499 LINE",
"235 540 LINE",
"15 540 LINE",
"121 499 LINE"
);
},
{
closed = 1;
nodes = (
"445 368 LINE",
"431 382 LINE",
"312 254 LINE",
"328 240 LINE"
);
},
{
closed = 1;
nodes = (
"325 373 LINE",
"315 393 LINE",
"235 393 LINE",
"235 373 LINE"
);
},
{
closed = 1;
nodes = (
"245 530 LINE",
"245 550 LINE",
"10 550 LINE",
"10 530 LINE"
);
},
{
closed = 1;
nodes = (
"244 533 LINE",
"231 550 LINE",
"119 504 LINE",
"132 488 LINE"
);
},
{
closed = 1;
nodes = (
"245 383 LINE",
"245 550 LINE",
"225 550 LINE",
"225 383 LINE"
);
},
{
closed = 1;
nodes = (
"445 378 LINE",
"325 393 LINE",
"312 380 LINE",
"430 360 LINE"
);
},
{
closed = 1;
nodes = (
"445 213 LINE",
"445 506 LINE",
"425 506 LINE",
"425 213 LINE"
);
},
{
closed = 1;
nodes = (
"335 383 LINE",
"335 550 LINE",
"315 550 LINE",
"315 383 LINE"
);
},
{
closed = 1;
nodes = (
"435 371 LINE",
"435 499 LINE",
"325 540 LINE",
"325 367 LINE"
);
},
{
closed = 1;
nodes = (
"555 50 LINE",
"555 550 LINE",
"535 550 LINE",
"535 50 LINE"
);
},
{
closed = 1;
nodes = (
"440 504 LINE",
"328 550 LINE",
"315 533 LINE",
"427 488 LINE"
);
},
{
closed = 1;
nodes = (
"439 499 LINE",
"545 540 LINE",
"325 540 LINE",
"431 499 LINE"
);
},
{
closed = 1;
nodes = (
"554 533 LINE",
"541 550 LINE",
"429 504 LINE",
"442 488 LINE"
);
},
{
closed = 1;
nodes = (
"555 530 LINE",
"555 550 LINE",
"320 550 LINE",
"320 530 LINE"
);
}
);
width = 560;
},
{
layerId = "B386CC4D-AD36-4992-A5CF-4B6CB312D231";
paths = (
{
closed = 1;
nodes = (
"125 117 LINE",
"125 483 LINE",
"15 590 LINE",
"15 10 LINE"
);
},
{
closed = 1;
nodes = (
"245 0 LINE",
"245 20 LINE",
"5 20 LINE",
"5 0 LINE"
);
},
{
closed = 1;
nodes = (
"130 112 LINE",
"117 125 LINE",
"5 13 LINE",
"18 0 LINE"
);
},
{
closed = 1;
nodes = (
"25 0 LINE",
"25 600 LINE",
"5 600 LINE",
"5 0 LINE"
);
},
{
closed = 1;
nodes = (
"245 13 LINE",
"133 125 LINE",
"120 112 LINE",
"232 0 LINE"
);
},
{
closed = 1;
nodes = (
"245 0 LINE",
"245 228 LINE",
"225 228 LINE",
"225 0 LINE"
);
},
{
closed = 1;
nodes = (
"135 110 LINE",
"135 490 LINE",
"115 490 LINE",
"115 110 LINE"
);
},
{
closed = 1;
nodes = (
"335 0 LINE",
"335 228 LINE",
"315 228 LINE",
"315 0 LINE"
);
},
{
closed = 1;
nodes = (
"248 232 LINE",
"130 320 LINE",
"115 309 LINE",
"235 220 LINE"
);
},
{
closed = 1;
nodes = (
"555 0 LINE",
"555 20 LINE",
"315 20 LINE",
"315 0 LINE"
);
},
{
closed = 1;
nodes = (
"440 112 LINE",
"427 125 LINE",
"315 13 LINE",
"328 0 LINE"
);
},
{
closed = 1;
nodes = (
"325 220 LINE",
"325 240 LINE",
"235 240 LINE",
"235 220 LINE"
);
},
{
closed = 1;
nodes = (
"248 385 LINE",
"235 400 LINE",
"115 309 LINE",
"130 298 LINE"
);
},
{
closed = 1;
nodes = (
"435 117 LINE",
"435 316 LINE",
"433 315 LINE",
"325 230 LINE",
"325 10 LINE"
);
},
{
closed = 1;
nodes = (
"555 13 LINE",
"443 125 LINE",
"430 112 LINE",
"542 0 LINE"
);
},
{
closed = 1;
nodes = (
"130 488 LINE",
"18 600 LINE",
"5 587 LINE",
"117 475 LINE"
);
},
{
closed = 1;
nodes = (
"415 300 LINE",
"415 320 LINE",
"135 320 LINE",
"135 300 LINE"
);
},
{
closed = 1;
nodes = (
"419 310 LINE",
"312 390 LINE",
"239 390 LINE",
"136 310 LINE"
);
},
{
closed = 1;
nodes = (
"129 483 LINE",
"235 590 LINE",
"15 590 LINE",
"121 483 LINE"
);
},
{
closed = 1;
nodes = (
"445 311 LINE",
"431 322 LINE",
"312 234 LINE",
"325 220 LINE"
);
},
{
closed = 1;
nodes = (
"325 380 LINE",
"315 400 LINE",
"235 400 LINE",
"235 380 LINE"
);
},
{
closed = 1;
nodes = (
"245 580 LINE",
"245 600 LINE",
"10 600 LINE",
"10 580 LINE"
);
},
{
closed = 1;
nodes = (
"244 587 LINE",
"231 600 LINE",
"119 488 LINE",
"132 475 LINE"
);
},
{
closed = 1;
nodes = (
"245 390 LINE",
"245 600 LINE",
"225 600 LINE",
"225 390 LINE"
);
},
{
closed = 1;
nodes = (
"445 311 LINE",
"325 400 LINE",
"312 387 LINE",
"430 300 LINE"
);
},
{
closed = 1;
nodes = (
"445 110 LINE",
"445 490 LINE",
"425 490 LINE",
"425 110 LINE"
);
},
{
closed = 1;
nodes = (
"335 390 LINE",
"335 600 LINE",
"315 600 LINE",
"315 390 LINE"
);
},
{
closed = 1;
nodes = (
"435 311 LINE",
"435 483 LINE",
"325 590 LINE",
"325 311 LINE"
);
},
{
closed = 1;
nodes = (
"555 0 LINE",
"555 600 LINE",
"535 600 LINE",
"535 0 LINE"
);
},
{
closed = 1;
nodes = (
"440 488 LINE",
"328 600 LINE",
"315 587 LINE",
"427 475 LINE"
);
},
{
closed = 1;
nodes = (
"439 483 LINE",
"545 590 LINE",
"325 590 LINE",
"431 483 LINE"
);
},
{
closed = 1;
nodes = (
"554 587 LINE",
"541 600 LINE",
"429 488 LINE",
"442 475 LINE"
);
},
{
closed = 1;
nodes = (
"555 580 LINE",
"555 600 LINE",
"320 600 LINE",
"320 580 LINE"
);
}
);
width = 560;
}
);
unicode = 0048;
},
{
glyphname = I;
layers = (
{
layerId = "E9386F05-ADE6-4680-88CE-E5F12972D961";
paths = (
{
closed = 1;
nodes = (
"158 117 LINE",
"158 483 LINE",
"15 590 LINE",
"15 10 LINE"
);
},
{
closed = 1;
nodes = (
"225 0 LINE",
"225 20 LINE",
"5 20 LINE",
"5 0 LINE"
);
},
{
closed = 1;
nodes = (
"163 112 LINE",
"150 125 LINE",
"5 13 LINE",
"18 0 LINE"
);
},
{
closed = 1;
nodes = (
"225 13 LINE",
"166 125 LINE",
"153 112 LINE",
"212 0 LINE"
);
},
{
closed = 1;
nodes = (
"25 0 LINE",
"25 600 LINE",
"5 600 LINE",
"5 0 LINE"
);
},
{
closed = 1;
nodes = (
"168 110 LINE",
"168 490 LINE",
"148 490 LINE",
"148 110 LINE"
);
},
{
closed = 1;
nodes = (
"225 0 LINE",
"225 600 LINE",
"205 600 LINE",
"205 0 LINE"
);
},
{
closed = 1;
nodes = (
"163 488 LINE",
"18 600 LINE",
"5 587 LINE",
"150 475 LINE"
);
},
{
closed = 1;
nodes = (
"162 483 LINE",
"215 590 LINE",
"15 590 LINE",
"154 483 LINE"
);
},
{
closed = 1;
nodes = (
"225 580 LINE",
"225 600 LINE",
"10 600 LINE",
"10 580 LINE"
);
},
{
closed = 1;
nodes = (
"224 587 LINE",
"211 600 LINE",
"152 488 LINE",
"165 475 LINE"
);
}
);
width = 230;
},
{
layerId = "62CD5346-0352-4548-B9DD-500D447F2E30";
paths = (
{
closed = 1;
nodes = (
"72 117 LINE",
"72 483 LINE",
"15 590 LINE",
"15 10 LINE"
);
},
{
closed = 1;
nodes = (
"225 0 LINE",
"225 20 LINE",
"5 20 LINE",
"5 0 LINE"
);
},
{
closed = 1;
nodes = (
"77 112 LINE",
"64 125 LINE",
"5 13 LINE",
"18 0 LINE"
);
},
{
closed = 1;
nodes = (
"225 13 LINE",
"80 125 LINE",
"67 112 LINE",
"212 0 LINE"
);
},
{
closed = 1;
nodes = (
"25 0 LINE",
"25 600 LINE",
"5 600 LINE",
"5 0 LINE"
);
},
{
closed = 1;
nodes = (
"82 110 LINE",
"82 490 LINE",
"62 490 LINE",
"62 110 LINE"
);
},
{
closed = 1;
nodes = (
"225 0 LINE",
"225 600 LINE",
"205 600 LINE",
"205 0 LINE"
);
},
{
closed = 1;
nodes = (
"77 488 LINE",
"18 600 LINE",
"5 587 LINE",
"64 475 LINE"
);
},
{
closed = 1;
nodes = (
"76 483 LINE",
"215 590 LINE",
"15 590 LINE",
"68 483 LINE"
);
},
{
closed = 1;
nodes = (
"225 580 LINE",
"225 600 LINE",
"10 600 LINE",
"10 580 LINE"
);
},
{
closed = 1;
nodes = (
"224 587 LINE",
"211 600 LINE",
"66 488 LINE",
"79 475 LINE"
);
}
);
width = 230;
},
{
layerId = "67EC95E2-4054-440D-AB4B-F0B974CBBED7";
paths = (
{
closed = 1;
nodes = (
"125 111 LINE",
"125 395 LINE",
"15 540 LINE",
"15 60 LINE"
);
},
{
closed = 1;
nodes = (
"245 50 LINE",
"245 69 LINE",
"5 69 LINE",
"5 50 LINE"
);
},
{
closed = 1;
nodes = (
"130 106 LINE",
"117 121 LINE",
"5 66 LINE",
"18 50 LINE"
);
},
{
closed = 1;
nodes = (
"245 66 LINE",
"133 121 LINE",
"120 106 LINE",
"232 50 LINE"
);
},
{
closed = 1;
nodes = (
"25 50 LINE",
"25 550 LINE",
"5 550 LINE",
"5 50 LINE"
);
},
{
closed = 1;
nodes = (
"135 104 LINE",
"135 402 LINE",
"115 402 LINE",
"115 104 LINE"
);
},
{
closed = 1;
nodes = (
"245 50 LINE",
"245 550 LINE",
"225 550 LINE",
"225 50 LINE"
);
},
{
closed = 1;
nodes = (
"130 400 LINE",
"18 550 LINE",
"5 537 LINE",
"117 387 LINE"
);
},
{
closed = 1;
nodes = (
"129 395 LINE",
"235 540 LINE",
"15 540 LINE",
"121 395 LINE"
);
},
{
closed = 1;
nodes = (
"245 530 LINE",
"245 550 LINE",
"10 550 LINE",
"10 530 LINE"
);
},
{
closed = 1;
nodes = (
"244 537 LINE",
"231 550 LINE",
"119 400 LINE",
"132 387 LINE"
);
}
);
width = 250;
},
{
layerId = "94D2509E-AE09-4DCD-8AC9-FEB053E4A4EF";
paths = (
{
closed = 1;
nodes = (
"125 220 LINE",
"125 499 LINE",
"15 540 LINE",
"15 60 LINE"
);
},
{
closed = 1;
nodes = (
"245 50 LINE",
"245 70 LINE",
"5 70 LINE",
"5 50 LINE"
);
},
{
closed = 1;
nodes = (
"133 215 LINE",
"117 228 LINE",
"5 63 LINE",
"21 50 LINE"
);
},
{
closed = 1;
nodes = (
"245 63 LINE",
"133 228 LINE",
"117 215 LINE",
"229 50 LINE"
);
},
{
closed = 1;
nodes = (
"25 50 LINE",
"25 550 LINE",
"5 550 LINE",
"5 50 LINE"
);
},
{
closed = 1;
nodes = (
"135 213 LINE",
"135 506 LINE",
"115 506 LINE",
"115 213 LINE"
);
},
{
closed = 1;
nodes = (
"245 50 LINE",
"245 550 LINE",
"225 550 LINE",
"225 50 LINE"
);
},
{
closed = 1;
nodes = (
"130 504 LINE",
"18 550 LINE",
"5 533 LINE",
"117 488 LINE"
);
},
{
closed = 1;
nodes = (
"129 499 LINE",
"235 540 LINE",
"15 540 LINE",
"121 499 LINE"
);
},
{
closed = 1;
nodes = (
"245 530 LINE",
"245 550 LINE",
"10 550 LINE",
"10 530 LINE"
);
},
{
closed = 1;
nodes = (
"244 533 LINE",
"231 550 LINE",
"119 504 LINE",
"132 488 LINE"
);
}
);
width = 250;
},
{
layerId = "B386CC4D-AD36-4992-A5CF-4B6CB312D231";
paths = (
{
closed = 1;
nodes = (
"125 117 LINE",
"125 483 LINE",
"15 590 LINE",
"15 10 LINE"
);
},
{
closed = 1;
nodes = (
"245 0 LINE",
"245 20 LINE",
"5 20 LINE",
"5 0 LINE"
);
},
{
closed = 1;
nodes = (
"130 112 LINE",
"117 125 LINE",
"5 13 LINE",
"18 0 LINE"
);
},
{
closed = 1;
nodes = (
"245 13 LINE",
"133 125 LINE",
"120 112 LINE",
"232 0 LINE"
);
},
{
closed = 1;
nodes = (
"25 0 LINE",
"25 600 LINE",
"5 600 LINE",
"5 0 LINE"
);
},
{
closed = 1;
nodes = (
"135 110 LINE",
"135 490 LINE",
"115 490 LINE",
"115 110 LINE"
);
},
{
closed = 1;
nodes = (
"245 0 LINE",
"245 600 LINE",
"225 600 LINE",
"225 0 LINE"
);
},
{
closed = 1;
nodes = (
"130 488 LINE",
"18 600 LINE",
"5 587 LINE",
"117 475 LINE"
);
},
{
closed = 1;
nodes = (
"129 483 LINE",
"235 590 LINE",
"15 590 LINE",
"121 483 LINE"
);
},
{
closed = 1;
nodes = (
"245 580 LINE",
"245 600 LINE",
"10 600 LINE",
"10 580 LINE"
);
},
{
closed = 1;
nodes = (
"244 587 LINE",
"231 600 LINE",
"119 488 LINE",
"132 475 LINE"
);
}
);
width = 250;
}
);
unicode = 0049;
},
{
glyphname = J;
layers = (
{
layerId = "E9386F05-ADE6-4680-88CE-E5F12972D961";
width = 600;
},
{
layerId = "62CD5346-0352-4548-B9DD-500D447F2E30";
width = 600;
},
{
layerId = "67EC95E2-4054-440D-AB4B-F0B974CBBED7";
width = 600;
},
{
layerId = "94D2509E-AE09-4DCD-8AC9-FEB053E4A4EF";
width = 600;
},
{
layerId = "B386CC4D-AD36-4992-A5CF-4B6CB312D231";
paths = (
{
closed = 1;
nodes = (
"319 146 LINE",
"319 600 LINE",
"299 600 LINE",
"299 146 LINE"
);
},
{
closed = 1;
nodes = (
"102 204 LINE",
"102 600 LINE",
"82 600 LINE",
"82 204 LINE"
);
},
{
closed = 1;
nodes = (
"319 146 LINE",
"305 160 LINE",
"137 14 LINE",
"151 0 LINE"
);
},
{
closed = 1;
nodes = (
"151 0 LINE",
"151 18 LINE",
"5 18 LINE",
"5 0 LINE"
);
},
{
closed = 1;
nodes = (
"25 0 LINE",
"25 185 LINE",
"5 185 LINE",
"5 0 LINE"
);
},
{
closed = 1;
nodes = (
"55 167 LINE",
"55 185 LINE",
"6 185 LINE",
"6 167 LINE"
);
},
{
closed = 1;
nodes = (
"102 204 LINE",
"90 218 LINE",
"43 181 LINE",
"55 167 LINE"
);
},
{
closed = 1;
nodes = (
"156 18 LINE",
"104 106 LINE",
"87 97 LINE",
"139 9 LINE"
);
},
{
closed = 1;
nodes = (
"316 582 LINE",
"316 600 LINE",
"86 600 LINE",
"86 582 LINE"
);
},
{
closed = 1;
nodes = (
"314 579 LINE",
"294 586 LINE",
"184 517 LINE",
"204 510 LINE"
);
},
{
closed = 1;
nodes = (
"203 180 LINE",
"189 194 LINE",
"86 106 LINE",
"100 92 LINE"
);
},
{
closed = 1;
nodes = (
"206 181 LINE",
"206 524 LINE",
"186 524 LINE",
"186 181 LINE"
);
},
{
closed = 1;
nodes = (
"107 102 LINE",
"93 113 LINE",
"13 20 LINE",
"27 4 LINE"
);
},
{
closed = 1;
nodes = (
"208 518 LINE",
"105 588 LINE",
"85 581 LINE",
"188 511 LINE"
);
},
{
closed = 1;
nodes = (
"319 159 LINE",
"190 196 LINE",
"184 179 LINE",
"313 142 LINE"
);
},
{
closed = 1;
nodes = (
"195 196 LINE",
"88 222 LINE",
"82 205 LINE",
"189 179 LINE"
);
},
{
closed = 1;
nodes = (
"106 103 LINE",
"57 184 LINE",
"40 175 LINE",
"89 94 LINE"
);
}
);
width = 324;
}
);
unicode = 004A;
},
{
glyphname = K;
layers = (
{
layerId = "E9386F05-ADE6-4680-88CE-E5F12972D961";
width = 600;
},
{
layerId = "62CD5346-0352-4548-B9DD-500D447F2E30";
width = 600;
},
{
layerId = "67EC95E2-4054-440D-AB4B-F0B974CBBED7";
width = 600;
},
{
layerId = "94D2509E-AE09-4DCD-8AC9-FEB053E4A4EF";
width = 600;
},
{
layerId = "B386CC4D-AD36-4992-A5CF-4B6CB312D231";
paths = (
{
closed = 1;
nodes = (
"245 0 LINE",
"245 20 LINE",
"5 20 LINE",
"5 0 LINE"
);
},
{
closed = 1;
nodes = (
"130 112 LINE",
"117 125 LINE",
"5 13 LINE",
"18 0 LINE"
);
},
{
closed = 1;
nodes = (
"245 13 LINE",
"133 125 LINE",
"120 112 LINE",
"232 0 LINE"
);
},
{
closed = 1;
nodes = (
"25 0 LINE",
"25 600 LINE",
"5 600 LINE",
"5 0 LINE"
);
},
{
closed = 1;
nodes = (
"135 110 LINE",
"135 490 LINE",
"115 490 LINE",
"115 110 LINE"
);
},
{
closed = 1;
nodes = (
"245 0 LINE",
"245 600 LINE",
"225 600 LINE",
"225 0 LINE"
);
},
{
closed = 1;
nodes = (
"130 488 LINE",
"18 600 LINE",
"5 587 LINE",
"117 475 LINE"
);
},
{
closed = 1;
nodes = (
"245 580 LINE",
"245 600 LINE",
"10 600 LINE",
"10 580 LINE"
);
},
{
closed = 1;
nodes = (
"244 587 LINE",
"231 600 LINE",
"119 488 LINE",
"132 475 LINE"
);
},
{
closed = 1;
nodes = (
"586 600 LINE",
"565 600 LINE",
"412 350 LINE",
"427 339 LINE"
);
},
{
closed = 1;
nodes = (
"572 580 LINE",
"572 600 LINE",
"375 600 LINE",
"367 580 LINE"
);
},
{
closed = 1;
nodes = (
"395 598 LINE",
"375 600 LINE",
"238 363 LINE",
"244 339 LINE"
);
},
{
closed = 1;
nodes = (
"433 354 LINE",
"417 345 LINE",
"559 6 LINE",
"581 0 LINE"
);
},
{
closed = 1;
nodes = (
"247 252 LINE",
"241 215 LINE",
"321 0 LINE",
"338 13 LINE"
);
},
{
closed = 1;
nodes = (
"555 6 LINE",
"567 20 LINE",
"409 113 LINE",
"400 97 LINE"
);
},
{
closed = 1;
nodes = (
"581 0 LINE",
"562 16 LINE",
"321 16 LINE",
"321 0 LINE"
);
},
{
closed = 1;
nodes = (
"249 359 LINE",
"244 359 LINE",
"225 215 LINE",
"249 225 LINE"
);
},
{
closed = 1;
nodes = (
"415 97 LINE",
"404 108 LINE",
"316 16 LINE",
"335 11 LINE"
);
},
{
closed = 1;
nodes = (
"327 323 LINE",
"307 324 LINE",
"401 96 LINE",
"416 108 LINE"
);
},
{
closed = 1;
nodes = (
"455 531 LINE",
"436 537 LINE",
"307 324 LINE",
"323 316 LINE"
);
},
{
closed = 1;
nodes = (
"572 581 LINE",
"569 599 LINE",
"440 535 LINE",
"436 514 LINE"
);
},
{
closed = 1;
nodes = (
"321 332 LINE",
"321 314 LINE",
"434 345 LINE",
"423 361 LINE"
);
},
{
closed = 1;
nodes = (
"435 519 LINE",
"447 531 LINE",
"390 593 LINE",
"372 588 LINE"
);
},
{
closed = 1;
nodes = (
"233 246 LINE",
"245 233 LINE",
"327 318 LINE",
"318 333 LINE"
);
},
{
closed = 1;
nodes = (
"327 330 LINE",
"237 364 LINE",
"235 344 LINE",
"316 315 LINE"
);
}
);
width = 591;
}
);
unicode = 004B;
},
{
glyphname = L;
layers = (
{
layerId = "E9386F05-ADE6-4680-88CE-E5F12972D961";
width = 600;
},
{
layerId = "62CD5346-0352-4548-B9DD-500D447F2E30";
width = 600;
},
{
layerId = "67EC95E2-4054-440D-AB4B-F0B974CBBED7";
width = 600;
},
{
layerId = "94D2509E-AE09-4DCD-8AC9-FEB053E4A4EF";
width = 600;
},
{
layerId = "B386CC4D-AD36-4992-A5CF-4B6CB312D231";
paths = (
{
closed = 1;
nodes = (
"125 102 LINE",
"125 513 LINE",
"15 590 LINE",
"15 10 LINE"
);
},
{
closed = 1;
nodes = (
"130 89 LINE",
"117 102 LINE",
"5 13 LINE",
"18 0 LINE"
);
},
{
closed = 1;
nodes = (
"25 0 LINE",
"25 600 LINE",
"5 600 LINE",
"5 0 LINE"
);
},
{
closed = 1;
nodes = (
"135 97 LINE",
"135 521 LINE",
"115 521 LINE",
"115 97 LINE"
);
},
{
closed = 1;
nodes = (
"130 519 LINE",
"18 600 LINE",
"5 587 LINE",
"117 506 LINE"
);
},
{
closed = 1;
nodes = (
"129 513 LINE",
"245 590 LINE",
"15 590 LINE",
"121 513 LINE"
);
},
{
closed = 1;
nodes = (
"245 172 LINE",
"245 588 LINE",
"225 588 LINE",
"225 172 LINE"
);
},
{
closed = 1;
nodes = (
"435 0 LINE",
"435 20 LINE",
"15 20 LINE",
"15 0 LINE"
);
},
{
closed = 1;
nodes = (
"244 165 LINE",
"231 180 LINE",
"121 106 LINE",
"136 95 LINE"
);
},
{
closed = 1;
nodes = (
"345 87 LINE",
"345 107 LINE",
"121 107 LINE",
"121 87 LINE"
);
},
{
closed = 1;
nodes = (
"339 97 LINE",
"422 170 LINE",
"235 170 LINE",
"132 97 LINE"
);
},
{
closed = 1;
nodes = (
"435 160 LINE",
"435 180 LINE",
"231 180 LINE",
"231 160 LINE"
);
},
{
closed = 1;
nodes = (
"438 22 LINE",
"340 107 LINE",
"324 95 LINE",
"424 9 LINE"
);
},
{
closed = 1;
nodes = (
"438 165 LINE",
"425 180 LINE",
"325 96 LINE",
"342 87 LINE"
);
},
{
closed = 1;
nodes = (
"445 0 LINE",
"445 180 LINE",
"425 180 LINE",
"425 0 LINE"
);
},
{
closed = 1;
nodes = (
"15 580 LINE",
"245 580 LINE",
"245 600 LINE",
"15 600 LINE"
);
},
{
closed = 1;
nodes = (
"121 503 LINE",
"135 503 LINE",
"135 523 LINE",
"121 523 LINE"
);
},
{
closed = 1;
nodes = (
"116 519 LINE",
"129 506 LINE",
"242 577 LINE",
"231 593 LINE"
);
}
);
width = 450;
}
);
unicode = 004C;
},
{
glyphname = M;
layers = (
{
layerId = "E9386F05-ADE6-4680-88CE-E5F12972D961";
paths = (
{
closed = 1;
nodes = (
"780 20 LINE",
"716 120 LINE",
"709 100 LINE",
"773 0 LINE"
);
},
{
closed = 1;
nodes = (
"780 0 LINE",
"780 20 LINE",
"550 20 LINE",
"550 0 LINE"
);
},
{
closed = 1;
nodes = (
"722 99 LINE",
"715 119 LINE",
"553 26 LINE",
"559 6 LINE"
);
},
{
closed = 1;
nodes = (
"780 0 LINE",
"780 599 LINE",
"760 599 LINE",
"760 0 LINE"
);
},
{
closed = 1;
nodes = (
"570 2 LINE",
"570 594 LINE",
"550 594 LINE",
"550 2 LINE"
);
},
{
closed = 1;
nodes = (
"725 100 LINE",
"725 524 LINE",
"705 524 LINE",
"705 101 LINE"
);
},
{
closed = 1;
nodes = (
"780 579 LINE",
"780 599 LINE",
"411 599 LINE",
"411 579 LINE"
);
},
{
closed = 1;
nodes = (
"721 524 LINE",
"571 596 LINE",
"557 582 LINE",
"707 510 LINE"
);
},
{
closed = 1;
nodes = (
"774 580 LINE",
"766 599 LINE",
"709 524 LINE",
"723 510 LINE"
);
},
{
closed = 1;
nodes = (
"405 92 LINE",
"567 581 LINE",
"548 588 LINE",
"386 98 LINE"
);
},
{
closed = 1;
nodes = (
"437 1 LINE",
"449 17 LINE",
"406 105 LINE",
"394 88 LINE"
);
},
{
closed = 1;
nodes = (
"407 94 LINE",
"388 102 LINE",
"310 8 LINE",
"329 1 LINE"
);
},
{
closed = 1;
nodes = (
"445 0 LINE",
"570 377 LINE",
"552 385 LINE",
"425 6 LINE"
);
},
{
closed = 1;
nodes = (
"445 0 LINE",
"445 20 LINE",
"307 20 LINE",
"307 0 LINE"
);
},
{
closed = 1;
nodes = (
"327 7 LINE",
"170 483 LINE",
"151 477 LINE",
"307 1 LINE"
);
},
{
closed = 1;
nodes = (
"411 94 LINE",
"240 564 LINE",
"221 558 LINE",
"392 88 LINE"
);
},
{
closed = 1;
nodes = (
"430 593 LINE",
"411 599 LINE",
"325 272 LINE",
"341 259 LINE"
);
},
{
closed = 1;
nodes = (
"267 580 LINE",
"267 600 LINE",
"31 600 LINE",
"31 580 LINE"
);
},
{
closed = 1;
nodes = (
"50 0 LINE",
"50 600 LINE",
"30 600 LINE",
"30 0 LINE"
);
},
{
closed = 1;
nodes = (
"157 79 LINE",
"157 484 LINE",
"137 484 LINE",
"137 80 LINE"
);
},
{
closed = 1;
nodes = (
"205 0 LINE",
"205 382 LINE",
"185 382 LINE",
"185 0 LINE"
);
},
{
closed = 1;
nodes = (
"360 334 LINE",
"267 600 LINE",
"245 595 LINE",
"341 330 LINE"
);
},
{
closed = 1;
nodes = (
"155 88 LINE",
"143 100 LINE",
"34 16 LINE",
"46 4 LINE"
);
},
{
closed = 1;
nodes = (
"201 17 LINE",
"152 100 LINE",
"141 86 LINE",
"190 3 LINE"
);
},
{
closed = 1;
nodes = (
"205 0 LINE",
"205 20 LINE",
"30 20 LINE",
"30 0 LINE"
);
},
{
closed = 1;
nodes = (
"157 484 LINE",
"45 597 LINE",
"32 581 LINE",
"142 472 LINE"
);
},
{
closed = 1;
nodes = (
"269 584 LINE",
"249 592 LINE",
"143 476 LINE",
"157 463 LINE"
);
}
);
width = 800;
},
{
layerId = "62CD5346-0352-4548-B9DD-500D447F2E30";
paths = (
{
closed = 1;
nodes = (
"780 20 LINE",
"626 120 LINE",
"619 100 LINE",
"773 0 LINE"
);
},
{
closed = 1;
nodes = (
"780 0 LINE",
"780 20 LINE",
"550 20 LINE",
"550 0 LINE"
);
},
{
closed = 1;
nodes = (
"632 99 LINE",
"625 119 LINE",
"553 26 LINE",
"559 6 LINE"
);
},
{
closed = 1;
nodes = (
"780 0 LINE",
"780 599 LINE",
"760 599 LINE",
"760 0 LINE"
);
},
{
closed = 1;
nodes = (
"570 2 LINE",
"570 594 LINE",
"550 594 LINE",
"550 2 LINE"
);
},
{
closed = 1;
nodes = (
"635 100 LINE",
"635 524 LINE",
"615 524 LINE",
"615 101 LINE"
);
},
{
closed = 1;
nodes = (
"780 579 LINE",
"780 599 LINE",
"411 599 LINE",
"411 579 LINE"
);
},
{
closed = 1;
nodes = (
"631 524 LINE",
"571 596 LINE",
"557 582 LINE",
"617 510 LINE"
);
},
{
closed = 1;
nodes = (
"774 580 LINE",
"766 599 LINE",
"619 524 LINE",
"633 510 LINE"
);
},
{
closed = 1;
nodes = (
"331 98 LINE",
"557 591 LINE",
"538 598 LINE",
"312 104 LINE"
);
},
{
closed = 1;
nodes = (
"427 1 LINE",
"439 17 LINE",
"326 105 LINE",
"314 88 LINE"
);
},
{
closed = 1;
nodes = (
"327 94 LINE",
"308 102 LINE",
"320 8 LINE",
"339 1 LINE"
);
},
{
closed = 1;
nodes = (
"435 0 LINE",
"570 307 LINE",
"552 315 LINE",
"415 6 LINE"
);
},
{
closed = 1;
nodes = (
"435 0 LINE",
"435 20 LINE",
"317 20 LINE",
"317 0 LINE"
);
},
{
closed = 1;
nodes = (
"337 7 LINE",
"89 483 LINE",
"70 477 LINE",
"317 1 LINE"
);
},
{
closed = 1;
nodes = (
"331 94 LINE",
"119 500 LINE",
"100 494 LINE",
"312 88 LINE"
);
},
{
closed = 1;
nodes = (
"430 593 LINE",
"411 599 LINE",
"241 247 LINE",
"257 234 LINE"
);
},
{
closed = 1;
nodes = (
"267 580 LINE",
"267 600 LINE",
"31 600 LINE",
"31 580 LINE"
);
},
{
closed = 1;
nodes = (
"50 0 LINE",
"50 600 LINE",
"30 600 LINE",
"30 0 LINE"
);
},
{
closed = 1;
nodes = (
"77 79 LINE",
"77 484 LINE",
"57 484 LINE",
"57 80 LINE"
);
},
{
closed = 1;
nodes = (
"205 0 LINE",
"195 273 LINE",
"175 273 LINE",
"185 0 LINE"
);
},
{
closed = 1;
nodes = (
"352 431 LINE",
"267 600 LINE",
"245 595 LINE",
"333 427 LINE"
);
},
{
closed = 1;
nodes = (
"75 88 LINE",
"63 100 LINE",
"34 16 LINE",
"46 4 LINE"
);
},
{
closed = 1;
nodes = (
"201 17 LINE",
"72 100 LINE",
"61 86 LINE",
"190 3 LINE"
);
},
{
closed = 1;
nodes = (
"205 0 LINE",
"205 20 LINE",
"30 20 LINE",
"30 0 LINE"
);
},
{
closed = 1;
nodes = (
"77 484 LINE",
"45 597 LINE",
"32 581 LINE",
"62 472 LINE"
);
},
{
closed = 1;
nodes = (
"269 584 LINE",
"249 592 LINE",
"63 476 LINE",
"77 463 LINE"
);
}
);
width = 800;
},
{
guideLines = (
{
position = "{0, 390}";
}
);
layerId = "67EC95E2-4054-440D-AB4B-F0B974CBBED7";
paths = (
{
closed = 1;
nodes = (
"790 70 LINE",
"676 140 LINE",
"669 120 LINE",
"783 50 LINE"
);
},
{
closed = 1;
nodes = (
"790 50 LINE",
"790 70 LINE",
"560 70 LINE",
"560 50 LINE"
);
},
{
closed = 1;
nodes = (
"682 119 LINE",
"675 139 LINE",
"563 76 LINE",
"569 56 LINE"
);
},
{
closed = 1;
nodes = (
"790 50 LINE",
"790 549 LINE",
"770 549 LINE",
"770 50 LINE"
);
},
{
closed = 1;
nodes = (
"580 52 LINE",
"580 544 LINE",
"560 544 LINE",
"560 52 LINE"
);
},
{
closed = 1;
nodes = (
"685 120 LINE",
"685 434 LINE",
"665 434 LINE",
"665 121 LINE"
);
},
{
closed = 1;
nodes = (
"790 529 LINE",
"790 549 LINE",
"421 549 LINE",
"421 529 LINE"
);
},
{
closed = 1;
nodes = (
"681 434 LINE",
"581 546 LINE",
"567 532 LINE",
"667 420 LINE"
);
},
{
closed = 1;
nodes = (
"784 530 LINE",
"776 549 LINE",
"669 434 LINE",
"683 420 LINE"
);
},
{
closed = 1;
nodes = (
"368 117 LINE",
"584 541 LINE",
"565 548 LINE",
"349 123 LINE"
);
},
{
closed = 1;
nodes = (
"447 51 LINE",
"459 67 LINE",
"366 125 LINE",
"354 108 LINE"
);
},
{
closed = 1;
nodes = (
"367 115 LINE",
"348 123 LINE",
"310 58 LINE",
"329 51 LINE"
);
},
{
closed = 1;
nodes = (
"455 50 LINE",
"577 263 LINE",
"559 271 LINE",
"435 56 LINE"
);
},
{
closed = 1;
nodes = (
"455 50 LINE",
"455 70 LINE",
"307 70 LINE",
"307 50 LINE"
);
},
{
closed = 1;
nodes = (
"327 57 LINE",
"132 393 LINE",
"113 387 LINE",
"307 51 LINE"
);
},
{
closed = 1;
nodes = (
"371 114 LINE",
"177 450 LINE",
"158 444 LINE",
"352 108 LINE"
);
},
{
closed = 1;
nodes = (
"440 543 LINE",
"421 549 LINE",
"272 259 LINE",
"288 246 LINE"
);
},
{
closed = 1;
nodes = (
"257 530 LINE",
"257 550 LINE",
"21 550 LINE",
"21 530 LINE"
);
},
{
closed = 1;
nodes = (
"40 50 LINE",
"40 550 LINE",
"20 550 LINE",
"20 50 LINE"
);
},
{
closed = 1;
nodes = (
"117 105 LINE",
"117 394 LINE",
"97 394 LINE",
"97 106 LINE"
);
},
{
closed = 1;
nodes = (
"195 50 LINE",
"195 280 LINE",
"175 280 LINE",
"175 50 LINE"
);
},
{
closed = 1;
nodes = (
"351 380 LINE",
"257 550 LINE",
"235 545 LINE",
"332 376 LINE"
);
},
{
closed = 1;
nodes = (
"115 108 LINE",
"103 120 LINE",
"24 66 LINE",
"36 54 LINE"
);
},
{
closed = 1;
nodes = (
"191 67 LINE",
"112 120 LINE",
"101 106 LINE",
"180 53 LINE"
);
},
{
closed = 1;
nodes = (
"195 50 LINE",
"195 70 LINE",
"20 70 LINE",
"20 50 LINE"
);
},
{
closed = 1;
nodes = (
"117 394 LINE",
"35 547 LINE",
"22 531 LINE",
"102 382 LINE"
);
},
{
closed = 1;
nodes = (
"259 534 LINE",
"239 542 LINE",
"103 386 LINE",
"117 373 LINE"
);
}
);
width = 810;
},
{
guideLines = (
{
position = "{0, 550}";
},
{
position = "{0, 50}";
}
);
layerId = "94D2509E-AE09-4DCD-8AC9-FEB053E4A4EF";
paths = (
{
closed = 1;
nodes = (
"790 70 LINE",
"676 220 LINE",
"669 200 LINE",
"783 50 LINE"
);
},
{
closed = 1;
nodes = (
"790 50 LINE",
"790 70 LINE",
"560 70 LINE",
"560 50 LINE"
);
},
{
closed = 1;
nodes = (
"682 199 LINE",
"675 219 LINE",
"563 76 LINE",
"569 56 LINE"
);
},
{
closed = 1;
nodes = (
"790 50 LINE",
"790 549 LINE",
"770 549 LINE",
"770 50 LINE"
);
},
{
closed = 1;
nodes = (
"580 52 LINE",
"580 544 LINE",
"560 544 LINE",
"560 52 LINE"
);
},
{
closed = 1;
nodes = (
"685 200 LINE",
"685 514 LINE",
"665 514 LINE",
"665 201 LINE"
);
},
{
closed = 1;
nodes = (
"790 529 LINE",
"790 549 LINE",
"421 549 LINE",
"421 529 LINE"
);
},
{
closed = 1;
nodes = (
"681 514 LINE",
"581 546 LINE",
"567 532 LINE",
"667 500 LINE"
);
},
{
closed = 1;
nodes = (
"784 530 LINE",
"776 549 LINE",
"669 514 LINE",
"683 500 LINE"
);
},
{
closed = 1;
nodes = (
"365 192 LINE",
"567 541 LINE",
"548 548 LINE",
"346 198 LINE"
);
},
{
closed = 1;
nodes = (
"447 51 LINE",
"459 67 LINE",
"366 205 LINE",
"354 188 LINE"
);
},
{
closed = 1;
nodes = (
"367 194 LINE",
"348 202 LINE",
"310 58 LINE",
"329 51 LINE"
);
},
{
closed = 1;
nodes = (
"455 50 LINE",
"580 257 LINE",
"562 265 LINE",
"435 56 LINE"
);
},
{
closed = 1;
nodes = (
"455 50 LINE",
"455 70 LINE",
"307 70 LINE",
"307 50 LINE"
);
},
{
closed = 1;
nodes = (
"327 57 LINE",
"130 473 LINE",
"111 467 LINE",
"307 51 LINE"
);
},
{
closed = 1;
nodes = (
"371 194 LINE",
"189 510 LINE",
"170 504 LINE",
"352 188 LINE"
);
},
{
closed = 1;
nodes = (
"440 543 LINE",
"421 549 LINE",
"285 312 LINE",
"301 299 LINE"
);
},
{
closed = 1;
nodes = (
"257 530 LINE",
"257 550 LINE",
"21 550 LINE",
"21 530 LINE"
);
},
{
closed = 1;
nodes = (
"40 50 LINE",
"40 550 LINE",
"20 550 LINE",
"20 50 LINE"
);
},
{
closed = 1;
nodes = (
"117 179 LINE",
"117 474 LINE",
"97 474 LINE",
"97 180 LINE"
);
},
{
closed = 1;
nodes = (
"195 50 LINE",
"195 333 LINE",
"175 333 LINE",
"175 50 LINE"
);
},
{
closed = 1;
nodes = (
"347 382 LINE",
"257 550 LINE",
"235 545 LINE",
"328 378 LINE"
);
},
{
closed = 1;
nodes = (
"115 188 LINE",
"103 200 LINE",
"24 66 LINE",
"36 54 LINE"
);
},
{
closed = 1;
nodes = (
"191 67 LINE",
"112 200 LINE",
"101 186 LINE",
"180 53 LINE"
);
},
{
closed = 1;
nodes = (
"195 50 LINE",
"195 70 LINE",
"20 70 LINE",
"20 50 LINE"
);
},
{
closed = 1;
nodes = (
"117 474 LINE",
"35 547 LINE",
"22 531 LINE",
"102 462 LINE"
);
},
{
closed = 1;
nodes = (
"259 534 LINE",
"239 542 LINE",
"103 466 LINE",
"117 453 LINE"
);
}
);
width = 810;
},
{
layerId = "B386CC4D-AD36-4992-A5CF-4B6CB312D231";
paths = (
{
closed = 1;
nodes = (
"790 20 LINE",
"676 120 LINE",
"669 100 LINE",
"783 0 LINE"
);
},
{
closed = 1;
nodes = (
"790 0 LINE",
"790 20 LINE",
"560 20 LINE",
"560 0 LINE"
);
},
{
closed = 1;
nodes = (
"682 99 LINE",
"675 119 LINE",
"563 26 LINE",
"569 6 LINE"
);
},
{
closed = 1;
nodes = (
"790 0 LINE",
"790 599 LINE",
"770 599 LINE",
"770 0 LINE"
);
},
{
closed = 1;
nodes = (
"580 2 LINE",
"580 594 LINE",
"560 594 LINE",
"560 2 LINE"
);
},
{
closed = 1;
nodes = (
"685 100 LINE",
"685 524 LINE",
"665 524 LINE",
"665 101 LINE"
);
},
{
closed = 1;
nodes = (
"790 579 LINE",
"790 599 LINE",
"421 599 LINE",
"421 579 LINE"
);
},
{
closed = 1;
nodes = (
"681 524 LINE",
"581 596 LINE",
"567 582 LINE",
"667 510 LINE"
);
},
{
closed = 1;
nodes = (
"784 580 LINE",
"776 599 LINE",
"669 524 LINE",
"683 510 LINE"
);
},
{
closed = 1;
nodes = (
"365 92 LINE",
"567 591 LINE",
"548 598 LINE",
"346 98 LINE"
);
},
{
closed = 1;
nodes = (
"447 1 LINE",
"459 17 LINE",
"366 105 LINE",
"354 88 LINE"
);
},
{
closed = 1;
nodes = (
"367 94 LINE",
"348 102 LINE",
"310 8 LINE",
"329 1 LINE"
);
},
{
closed = 1;
nodes = (
"455 0 LINE",
"580 307 LINE",
"562 315 LINE",
"435 6 LINE"
);
},
{
closed = 1;
nodes = (
"455 0 LINE",
"455 20 LINE",
"307 20 LINE",
"307 0 LINE"
);
},
{
closed = 1;
nodes = (
"326 7 LINE",
"115 484 LINE",
"96 478 LINE",
"307 1 LINE"
);
},
{
closed = 1;
nodes = (
"371 94 LINE",
"178 527 LINE",
"159 521 LINE",
"352 88 LINE"
);
},
{
closed = 1;
nodes = (
"440 593 LINE",
"421 599 LINE",
"285 252 LINE",
"301 239 LINE"
);
},
{
closed = 1;
nodes = (
"257 580 LINE",
"257 600 LINE",
"21 600 LINE",
"21 580 LINE"
);
},
{
closed = 1;
nodes = (
"40 0 LINE",
"40 600 LINE",
"20 600 LINE",
"20 0 LINE"
);
},
{
closed = 1;
nodes = (
"117 79 LINE",
"117 484 LINE",
"97 484 LINE",
"97 80 LINE"
);
},
{
closed = 1;
nodes = (
"195 0 LINE",
"195 303 LINE",
"175 303 LINE",
"175 0 LINE"
);
},
{
closed = 1;
nodes = (
"354 374 LINE",
"257 600 LINE",
"235 595 LINE",
"335 370 LINE"
);
},
{
closed = 1;
nodes = (
"115 88 LINE",
"103 100 LINE",
"24 16 LINE",
"36 4 LINE"
);
},
{
closed = 1;
nodes = (
"191 17 LINE",
"112 100 LINE",
"101 86 LINE",
"180 3 LINE"
);
},
{
closed = 1;
nodes = (
"195 0 LINE",
"195 20 LINE",
"20 20 LINE",
"20 0 LINE"
);
},
{
closed = 1;
nodes = (
"121 473 LINE",
"35 597 LINE",
"22 581 LINE",
"106 461 LINE"
);
},
{
closed = 1;
nodes = (
"259 584 LINE",
"239 592 LINE",
"103 476 LINE",
"117 463 LINE"
);
}
);
width = 810;
}
);
unicode = 004D;
},
{
glyphname = N;
layers = (
{
layerId = "E9386F05-ADE6-4680-88CE-E5F12972D961";
width = 600;
},
{
layerId = "62CD5346-0352-4548-B9DD-500D447F2E30";
width = 600;
},
{
layerId = "67EC95E2-4054-440D-AB4B-F0B974CBBED7";
width = 600;
},
{
layerId = "94D2509E-AE09-4DCD-8AC9-FEB053E4A4EF";
width = 600;
},
{
layerId = "B386CC4D-AD36-4992-A5CF-4B6CB312D231";
paths = (
{
closed = 1;
nodes = (
"25 0 LINE",
"25 600 LINE",
"5 600 LINE",
"5 0 LINE"
);
},
{
closed = 1;
nodes = (
"187 0 LINE",
"187 388 LINE",
"167 388 LINE",
"167 0 LINE"
);
},
{
closed = 1;
nodes = (
"616 0 LINE",
"616 600 LINE",
"596 600 LINE",
"596 0 LINE"
);
},
{
closed = 1;
nodes = (
"518 85 LINE",
"518 549 LINE",
"498 549 LINE",
"498 85 LINE"
);
},
{
closed = 1;
nodes = (
"610 34 LINE",
"473 123 LINE",
"463 108 LINE",
"600 18 LINE"
);
},
{
closed = 1;
nodes = (
"483 108 LINE",
"473 123 LINE",
"337 36 LINE",
"347 20 LINE"
);
},
{
closed = 1;
nodes = (
"102 90 LINE",
"89 103 LINE",
"6 22 LINE",
"19 9 LINE"
);
},
{
closed = 1;
nodes = (
"186 25 LINE",
"92 102 LINE",
"81 88 LINE",
"174 11 LINE"
);
},
{
closed = 1;
nodes = (
"614 0 LINE",
"614 20 LINE",
"335 20 LINE",
"335 0 LINE"
);
},
{
closed = 1;
nodes = (
"353 8 LINE",
"100 589 LINE",
"82 581 LINE",
"334 0 LINE"
);
},
{
closed = 1;
nodes = (
"187 0 LINE",
"187 20 LINE",
"6 20 LINE",
"6 0 LINE"
);
},
{
closed = 1;
nodes = (
"326 580 LINE",
"326 600 LINE",
"5 600 LINE",
"5 580 LINE"
);
},
{
closed = 1;
nodes = (
"330 582 LINE",
"319 597 LINE",
"216 522 LINE",
"227 507 LINE"
);
},
{
closed = 1;
nodes = (
"455 300 LINE",
"326 600 LINE",
"311 595 LINE",
"439 295 LINE"
);
},
{
closed = 1;
nodes = (
"455 90 LINE",
"455 600 LINE",
"435 600 LINE",
"435 90 LINE"
);
},
{
closed = 1;
nodes = (
"95 83 LINE",
"95 582 LINE",
"75 582 LINE",
"75 83 LINE"
);
},
{
closed = 1;
nodes = (
"616 580 LINE",
"616 600 LINE",
"435 600 LINE",
"435 580 LINE"
);
},
{
closed = 1;
nodes = (
"597 581 LINE",
"588 596 LINE",
"498 549 LINE",
"508 531 LINE"
);
},
{
closed = 1;
nodes = (
"422 75 LINE",
"227 526 LINE",
"209 518 LINE",
"403 67 LINE"
);
},
{
closed = 1;
nodes = (
"229 522 LINE",
"94 600 LINE",
"83 585 LINE",
"218 507 LINE"
);
},
{
closed = 1;
nodes = (
"524 549 LINE",
"445 599 LINE",
"436 584 LINE",
"514 531 LINE"
);
}
);
width = 621;
}
);
unicode = 004E;
},
{
glyphname = O;
layers = (
{
layerId = "E8B12265-2867-491B-BB49-91DFAD081543";
name = "15. Sept. 22, 17:44";
paths = (
{
closed = 1;
nodes = (
"47 180 LINE",
"47 430 LINE",
"30 460 LINE",
"30 140 LINE"
);
},
{
closed = 1;
nodes = (
"40 137 LINE",
"40 463 LINE",
"20 463 LINE",
"20 137 LINE"
);
},
{
closed = 1;
nodes = (
"57 176 LINE",
"57 439 LINE",
"37 439 LINE",
"37 176 LINE"
);
},
{
closed = 1;
nodes = (
"145 191 LINE",
"145 403 LINE",
"125 403 LINE",
"125 191 LINE"
);
},
{
closed = 1;
nodes = (
"154 432 LINE",
"112 521 LINE",
"99 511 LINE",
"139 421 LINE"
);
},
{
closed = 1;
nodes = (
"155 423 LINE",
"138 436 LINE",
"125 403 LINE",
"142 390 LINE"
);
},
{
closed = 1;
nodes = (
"168 418 LINE",
"168 436 LINE",
"138 436 LINE",
"138 418 LINE"
);
},
{
closed = 1;
nodes = (
"181 403 LINE",
"168 436 LINE",
"151 423 LINE",
"164 390 LINE"
);
},
{
closed = 1;
nodes = (
"181 191 LINE",
"181 403 LINE",
"161 403 LINE",
"161 191 LINE"
);
},
{
closed = 1;
nodes = (
"125 191 LINE",
"138 158 LINE",
"155 171 LINE",
"142 204 LINE"
);
},
{
closed = 1;
nodes = (
"138 158 LINE",
"168 158 LINE",
"168 176 LINE",
"138 176 LINE"
);
},
{
closed = 1;
nodes = (
"151 171 LINE",
"168 158 LINE",
"181 191 LINE",
"164 204 LINE"
);
},
{
closed = 1;
nodes = (
"397 463 LINE",
"377 463 LINE",
"377 137 LINE",
"397 137 LINE"
);
},
{
closed = 1;
nodes = (
"240 439 LINE",
"220 429 LINE",
"220 176 LINE",
"240 176 LINE"
);
},
{
closed = 1;
nodes = (
"201 88 LINE",
"201 106 LINE",
"95 106 LINE",
"95 88 LINE"
);
},
{
closed = 1;
nodes = (
"191 504 LINE",
"191 522 LINE",
"105 522 LINE",
"105 504 LINE"
);
},
{
closed = 1;
nodes = (
"287 0 LINE",
"287 18 LINE",
"119 18 LINE",
"119 0 LINE"
);
},
{
closed = 1;
nodes = (
"277 582 LINE",
"277 600 LINE",
"119 600 LINE",
"119 582 LINE"
);
},
{
closed = 1;
nodes = (
"201 511 LINE",
"188 521 LINE",
"149 432 LINE",
"164 421 LINE"
);
},
{
closed = 1;
nodes = (
"89 101 LINE",
"102 91 LINE",
"151 170 LINE",
"136 181 LINE"
);
},
{
closed = 1;
nodes = (
"149 160 LINE",
"188 91 LINE",
"201 101 LINE",
"164 171 LINE"
);
},
{
closed = 1;
nodes = (
"136 190 LINE",
"132 206 LINE",
"42 184 LINE",
"47 168 LINE"
);
},
{
closed = 1;
nodes = (
"40 430 LINE",
"136 393 LINE",
"136 411 LINE",
"44 445 LINE"
);
},
{
closed = 1;
nodes = (
"170 414 LINE",
"170 396 LINE",
"226 426 LINE",
"207 440 LINE"
);
},
{
closed = 1;
nodes = (
"292 583 LINE",
"279 593 LINE",
"182 512 LINE",
"195 503 LINE"
);
},
{
closed = 1;
nodes = (
"117 512 LINE",
"130 593 LINE",
"117 583 LINE",
"104 503 LINE"
);
},
{
closed = 1;
nodes = (
"187 94 LINE",
"284 13 LINE",
"297 23 LINE",
"200 103 LINE"
);
},
{
closed = 1;
nodes = (
"117 23 LINE",
"130 13 LINE",
"103 94 LINE",
"90 103 LINE"
);
},
{
closed = 1;
nodes = (
"397 137 LINE",
"387 150 LINE",
"277 13 LINE",
"287 0 LINE"
);
},
{
closed = 1;
nodes = (
"129 13 LINE",
"30 150 LINE",
"20 137 LINE",
"119 0 LINE"
);
},
{
closed = 1;
nodes = (
"106 102 LINE",
"47 189 LINE",
"37 176 LINE",
"96 89 LINE"
);
},
{
closed = 1;
nodes = (
"223 184 LINE",
"173 206 LINE",
"169 190 LINE",
"218 168 LINE"
);
},
{
closed = 1;
nodes = (
"240 176 LINE",
"230 189 LINE",
"187 102 LINE",
"197 89 LINE"
);
},
{
closed = 1;
nodes = (
"393 154 LINE",
"223 186 LINE",
"219 170 LINE",
"388 138 LINE"
);
},
{
closed = 1;
nodes = (
"55 170 LINE",
"51 186 LINE",
"21 154 LINE",
"26 138 LINE"
);
},
{
closed = 1;
nodes = (
"219 442 LINE",
"223 426 LINE",
"393 448 LINE",
"388 464 LINE"
);
},
{
closed = 1;
nodes = (
"21 458 LINE",
"51 426 LINE",
"55 442 LINE",
"36 471 LINE"
);
},
{
closed = 1;
nodes = (
"267 587 LINE",
"387 450 LINE",
"397 463 LINE",
"277 600 LINE"
);
},
{
closed = 1;
nodes = (
"20 463 LINE",
"30 450 LINE",
"129 587 LINE",
"119 600 LINE"
);
},
{
closed = 1;
nodes = (
"41 439 LINE",
"51 426 LINE",
"110 513 LINE",
"100 526 LINE"
);
},
{
closed = 1;
nodes = (
"183 507 LINE",
"230 421 LINE",
"240 434 LINE",
"193 520 LINE"
);
},
{
closed = 1;
nodes = (
"50 176 LINE",
"26 151 LINE",
"126 7 LINE",
"101 102 LINE"
);
},
{
closed = 1;
nodes = (
"194 103 LINE",
"155 167 LINE",
"136 167 LINE",
"97 101 LINE"
);
},
{
closed = 1;
nodes = (
"178 199 LINE",
"164 166 LINE",
"199 95 LINE",
"230 176 LINE"
);
},
{
closed = 1;
nodes = (
"173 197 LINE",
"232 173 LINE",
"226 437 LINE",
"174 406 LINE"
);
},
{
closed = 1;
nodes = (
"167 400 LINE",
"232 440 LINE",
"194 512 LINE",
"158 431 LINE"
);
},
{
closed = 1;
nodes = (
"116 587 LINE",
"115 508 LINE",
"187 515 LINE",
"283 586 LINE"
);
},
{
closed = 1;
nodes = (
"37 467 LINE",
"50 435 LINE",
"110 518 LINE",
"124 590 LINE"
);
}
);
width = 417;
},
{
layerId = "5C408D9C-FBE9-43BC-96E3-8D1C776DB785";
name = public.background;
paths = (
{
closed = 1;
nodes = (
"244 102 LINE",
"180 176 LINE",
"16 151 LINE",
"129 12 LINE"
);
},
{
closed = 1;
nodes = (
"142 13 LINE",
"20 150 LINE",
"10 137 LINE",
"132 0 LINE"
);
},
{
closed = 1;
nodes = (
"185 170 LINE",
"181 186 LINE",
"11 154 LINE",
"16 138 LINE"
);
},
{
closed = 1;
nodes = (
"246 94 LINE",
"233 103 LINE",
"120 13 LINE",
"133 3 LINE"
);
},
{
closed = 1;
nodes = (
"367 0 LINE",
"367 18 LINE",
"132 18 LINE",
"132 0 LINE"
);
},
{
closed = 1;
nodes = (
"30 137 LINE",
"30 463 LINE",
"10 463 LINE",
"10 137 LINE"
);
},
{
closed = 1;
nodes = (
"236 190 LINE",
"232 206 LINE",
"172 184 LINE",
"177 168 LINE"
);
},
{
closed = 1;
nodes = (
"249 102 LINE",
"177 189 LINE",
"167 176 LINE",
"239 89 LINE"
);
},
{
closed = 1;
nodes = (
"177 180 LINE",
"177 430 LINE",
"20 460 LINE",
"20 140 LINE"
);
},
{
closed = 1;
nodes = (
"363 88 LINE",
"363 106 LINE",
"232 106 LINE",
"232 88 LINE"
);
},
{
closed = 1;
nodes = (
"257 170 LINE",
"242 181 LINE",
"240 101 LINE",
"253 91 LINE"
);
},
{
closed = 1;
nodes = (
"371 103 LINE",
"272 167 LINE",
"249 167 LINE",
"240 101 LINE"
);
},
{
closed = 1;
nodes = (
"372 16 LINE",
"372 103 LINE",
"356 101 LINE",
"356 13 LINE"
);
},
{
closed = 1;
nodes = (
"264 171 LINE",
"238 204 LINE",
"225 191 LINE",
"251 158 LINE"
);
},
{
closed = 1;
nodes = (
"187 176 LINE",
"187 439 LINE",
"167 439 LINE",
"167 176 LINE"
);
},
{
closed = 1;
nodes = (
"285 158 LINE",
"285 176 LINE",
"251 176 LINE",
"251 158 LINE"
);
},
{
closed = 1;
nodes = (
"376 103 LINE",
"281 171 LINE",
"266 160 LINE",
"365 91 LINE"
);
},
{
closed = 1;
nodes = (
"312 191 LINE",
"299 204 LINE",
"272 171 LINE",
"285 158 LINE"
);
},
{
closed = 1;
nodes = (
"423 176 LINE",
"309 199 LINE",
"281 166 LINE",
"369 98 LINE"
);
},
{
closed = 1;
nodes = (
"181 426 LINE",
"185 442 LINE",
"26 471 LINE",
"11 458 LINE"
);
},
{
closed = 1;
nodes = (
"245 191 LINE",
"245 403 LINE",
"225 403 LINE",
"225 191 LINE"
);
},
{
closed = 1;
nodes = (
"236 410 LINE",
"174 445 LINE",
"170 430 LINE",
"236 393 LINE"
);
},
{
closed = 1;
nodes = (
"430 163 LINE",
"420 176 LINE",
"355 101 LINE",
"365 88 LINE"
);
},
{
closed = 1;
nodes = (
"474 137 LINE",
"464 150 LINE",
"357 13 LINE",
"367 0 LINE"
);
},
{
closed = 1;
nodes = (
"250 518 LINE",
"137 580 LINE",
"27 467 LINE",
"180 435 LINE"
);
},
{
closed = 1;
nodes = (
"416 184 LINE",
"304 206 LINE",
"300 190 LINE",
"411 168 LINE"
);
},
{
closed = 1;
nodes = (
"152 587 LINE",
"142 600 LINE",
"10 463 LINE",
"20 450 LINE"
);
},
{
closed = 1;
nodes = (
"312 191 LINE",
"312 403 LINE",
"292 403 LINE",
"292 191 LINE"
);
},
{
closed = 1;
nodes = (
"264 510 LINE",
"253 523 LINE",
"171 439 LINE",
"181 426 LINE"
);
},
{
closed = 1;
nodes = (
"264 423 LINE",
"251 436 LINE",
"225 403 LINE",
"238 390 LINE"
);
},
{
closed = 1;
nodes = (
"421 436 LINE",
"305 406 LINE",
"304 197 LINE",
"423 173 LINE"
);
},
{
closed = 1;
nodes = (
"285 418 LINE",
"285 436 LINE",
"251 436 LINE",
"251 418 LINE"
);
},
{
closed = 1;
nodes = (
"259 432 LINE",
"271 521 LINE",
"256 518 LINE",
"245 421 LINE"
);
},
{
closed = 1;
nodes = (
"470 147 LINE",
"416 179 LINE",
"412 163 LINE",
"463 133 LINE"
);
},
{
closed = 1;
nodes = (
"312 403 LINE",
"285 436 LINE",
"272 423 LINE",
"299 390 LINE"
);
},
{
closed = 1;
nodes = (
"267 512 LINE",
"143 593 LINE",
"130 583 LINE",
"258 504 LINE"
);
},
{
closed = 1;
nodes = (
"431 163 LINE",
"431 438 LINE",
"411 436 LINE",
"411 163 LINE"
);
},
{
closed = 1;
nodes = (
"365 506 LINE",
"353 518 LINE",
"266 432 LINE",
"281 421 LINE"
);
},
{
closed = 1;
nodes = (
"358 504 LINE",
"358 522 LINE",
"255 522 LINE",
"258 504 LINE"
);
},
{
closed = 1;
nodes = (
"420 425 LINE",
"409 442 LINE",
"301 414 LINE",
"301 396 LINE"
);
},
{
closed = 1;
nodes = (
"423 435 LINE",
"359 511 LINE",
"275 431 LINE",
"298 400 LINE"
);
},
{
closed = 1;
nodes = (
"357 511 LINE",
"338 586 LINE",
"139 587 LINE",
"265 508 LINE"
);
},
{
closed = 1;
nodes = (
"474 137 LINE",
"474 463 LINE",
"454 463 LINE",
"454 137 LINE"
);
},
{
closed = 1;
nodes = (
"429 436 LINE",
"359 521 LINE",
"349 508 LINE",
"416 426 LINE"
);
},
{
closed = 1;
nodes = (
"337 582 LINE",
"337 600 LINE",
"142 600 LINE",
"142 582 LINE"
);
},
{
closed = 1;
nodes = (
"345 583 LINE",
"332 593 LINE",
"352 512 LINE",
"365 503 LINE"
);
},
{
closed = 1;
nodes = (
"467 454 LINE",
"461 470 LINE",
"414 441 LINE",
"422 426 LINE"
);
},
{
closed = 1;
nodes = (
"474 463 LINE",
"337 600 LINE",
"327 587 LINE",
"464 450 LINE"
);
}
);
width = 530;
},
{
layerId = "E9386F05-ADE6-4680-88CE-E5F12972D961";
paths = (
{
closed = 1;
nodes = (
"425 445 LINE",
"295 405 LINE",
"295 190 LINE",
"425 165 LINE"
);
},
{
closed = 1;
nodes = (
"159 14 LINE",
"19 164 LINE",
"5 150 LINE",
"145 0 LINE"
);
},
{
closed = 1;
nodes = (
"260 98 LINE",
"175 175 LINE",
"15 150 LINE",
"145 10 LINE"
);
},
{
closed = 1;
nodes = (
"178 169 LINE",
"172 186 LINE",
"19 164 LINE",
"25 147 LINE"
);
},
{
closed = 1;
nodes = (
"275 98 LINE",
"260 107 LINE",
"142 18 LINE",
"157 9 LINE"
);
},
{
closed = 1;
nodes = (
"358 0 LINE",
"358 18 LINE",
"145 18 LINE",
"145 0 LINE"
);
},
{
closed = 1;
nodes = (
"264 103 LINE",
"179 189 LINE",
"165 175 LINE",
"260 89 LINE"
);
},
{
closed = 1;
nodes = (
"25 150 LINE",
"25 460 LINE",
"5 460 LINE",
"5 150 LINE"
);
},
{
closed = 1;
nodes = (
"235 188 LINE",
"229 204 LINE",
"174 187 LINE",
"180 171 LINE"
);
},
{
closed = 1;
nodes = (
"366 89 LINE",
"366 107 LINE",
"260 107 LINE",
"260 89 LINE"
);
},
{
closed = 1;
nodes = (
"260 167 LINE",
"244 177 LINE",
"254 103 LINE",
"270 99 LINE"
);
},
{
closed = 1;
nodes = (
"175 175 LINE",
"175 435 LINE",
"15 460 LINE",
"15 150 LINE"
);
},
{
closed = 1;
nodes = (
"370 98 LINE",
"273 168 LINE",
"250 167 LINE",
"260 98 LINE"
);
},
{
closed = 1;
nodes = (
"355 18 LINE",
"377 107 LINE",
"355 98 LINE",
"333 9 LINE"
);
},
{
closed = 1;
nodes = (
"185 175 LINE",
"185 435 LINE",
"165 435 LINE",
"165 175 LINE"
);
},
{
closed = 1;
nodes = (
"261 173 LINE",
"229 204 LINE",
"215 190 LINE",
"247 159 LINE"
);
},
{
closed = 1;
nodes = (
"273 159 LINE",
"273 177 LINE",
"250 177 LINE",
"250 159 LINE"
);
},
{
closed = 1;
nodes = (
"373 103 LINE",
"273 177 LINE",
"260 167 LINE",
"360 93 LINE"
);
},
{
closed = 1;
nodes = (
"305 190 LINE",
"291 204 LINE",
"269 173 LINE",
"283 159 LINE"
);
},
{
closed = 1;
nodes = (
"425 165 LINE",
"295 190 LINE",
"273 168 LINE",
"370 98 LINE"
);
},
{
closed = 1;
nodes = (
"178 441 LINE",
"25 463 LINE",
"19 446 LINE",
"172 424 LINE"
);
},
{
closed = 1;
nodes = (
"435 165 LINE",
"421 179 LINE",
"351 103 LINE",
"365 89 LINE"
);
},
{
closed = 1;
nodes = (
"235 190 LINE",
"235 403 LINE",
"215 403 LINE",
"215 190 LINE"
);
},
{
closed = 1;
nodes = (
"473 140 LINE",
"459 154 LINE",
"344 14 LINE",
"358 0 LINE"
);
},
{
closed = 1;
nodes = (
"426 177 LINE",
"291 204 LINE",
"285 188 LINE",
"420 161 LINE"
);
},
{
closed = 1;
nodes = (
"235 407 LINE",
"185 437 LINE",
"179 421 LINE",
"229 391 LINE"
);
},
{
closed = 1;
nodes = (
"305 190 LINE",
"305 405 LINE",
"285 405 LINE",
"285 190 LINE"
);
},
{
closed = 1;
nodes = (
"159 586 LINE",
"145 600 LINE",
"5 460 LINE",
"19 446 LINE"
);
},
{
closed = 1;
nodes = (
"260 518 LINE",
"145 592 LINE",
"15 460 LINE",
"175 434 LINE"
);
},
{
closed = 1;
nodes = (
"264 512 LINE",
"260 526 LINE",
"165 435 LINE",
"179 421 LINE"
);
},
{
closed = 1;
nodes = (
"463 158 LINE",
"432 180 LINE",
"422 158 LINE",
"453 136 LINE"
);
},
{
closed = 1;
nodes = (
"261 422 LINE",
"247 436 LINE",
"215 405 LINE",
"229 391 LINE"
);
},
{
closed = 1;
nodes = (
"273 418 LINE",
"273 436 LINE",
"255 436 LINE",
"255 418 LINE"
);
},
{
closed = 1;
nodes = (
"260 428 LINE",
"272 520 LINE",
"257 510 LINE",
"245 418 LINE"
);
},
{
closed = 1;
nodes = (
"305 405 LINE",
"283 436 LINE",
"269 422 LINE",
"291 391 LINE"
);
},
{
closed = 1;
nodes = (
"435 165 LINE",
"435 445 LINE",
"415 445 LINE",
"415 165 LINE"
);
},
{
closed = 1;
nodes = (
"273 515 LINE",
"161 586 LINE",
"144 580 LINE",
"256 509 LINE"
);
},
{
closed = 1;
nodes = (
"375 510 LINE",
"360 520 LINE",
"258 428 LINE",
"273 418 LINE"
);
},
{
closed = 1;
nodes = (
"421 431 LINE",
"415 447 LINE",
"285 407 LINE",
"291 391 LINE"
);
},
{
closed = 1;
nodes = (
"367 508 LINE",
"367 526 LINE",
"260 526 LINE",
"260 508 LINE"
);
},
{
closed = 1;
nodes = (
"425 445 LINE",
"370 518 LINE",
"273 428 LINE",
"295 405 LINE"
);
},
{
closed = 1;
nodes = (
"370 518 LINE",
"341 592 LINE",
"145 592 LINE",
"260 518 LINE"
);
},
{
closed = 1;
nodes = (
"473 140 LINE",
"475 460 LINE",
"455 460 LINE",
"453 140 LINE"
);
},
{
closed = 1;
nodes = (
"435 445 LINE",
"365 526 LINE",
"351 512 LINE",
"421 431 LINE"
);
},
{
closed = 1;
nodes = (
"345 582 LINE",
"345 600 LINE",
"145 600 LINE",
"145 582 LINE"
);
},
{
closed = 1;
nodes = (
"346 580 LINE",
"329 586 LINE",
"357 515 LINE",
"374 509 LINE"
);
},
{
closed = 1;
nodes = (
"463 444 LINE",
"453 465 LINE",
"420 453 LINE",
"430 432 LINE"
);
},
{
closed = 1;
nodes = (
"475 460 LINE",
"345 600 LINE",
"331 586 LINE",
"461 446 LINE"
);
}
);
width = 480;
},
{
layerId = "5C408D9C-FBE9-43BC-96E3-8D1C776DB785";
name = public.background;
paths = (
{
closed = 1;
nodes = (
"124 102 LINE",
"43 176 LINE",
"16 151 LINE",
"129 9 LINE"
);
},
{
closed = 1;
nodes = (
"136 13 LINE",
"20 150 LINE",
"10 137 LINE",
"126 0 LINE"
);
},
{
closed = 1;
nodes = (
"48 170 LINE",
"44 186 LINE",
"11 154 LINE",
"16 138 LINE"
);
},
{
closed = 1;
nodes = (
"126 94 LINE",
"113 103 LINE",
"114 23 LINE",
"133 13 LINE"
);
},
{
closed = 1;
nodes = (
"334 0 LINE",
"334 18 LINE",
"126 18 LINE",
"126 0 LINE"
);
},
{
closed = 1;
nodes = (
"30 137 LINE",
"30 443 LINE",
"10 443 LINE",
"10 137 LINE"
);
},
{
closed = 1;
nodes = (
"169 190 LINE",
"165 206 LINE",
"35 184 LINE",
"40 168 LINE"
);
},
{
closed = 1;
nodes = (
"129 102 LINE",
"40 189 LINE",
"30 176 LINE",
"119 89 LINE"
);
},
{
closed = 1;
nodes = (
"40 180 LINE",
"42 433 LINE",
"20 440 LINE",
"20 140 LINE"
);
},
{
closed = 1;
nodes = (
"228 88 LINE",
"228 106 LINE",
"118 106 LINE",
"118 88 LINE"
);
},
{
closed = 1;
nodes = (
"198 170 LINE",
"183 181 LINE",
"112 101 LINE",
"125 91 LINE"
);
},
{
closed = 1;
nodes = (
"224 103 LINE",
"205 167 LINE",
"183 167 LINE",
"120 101 LINE"
);
},
{
closed = 1;
nodes = (
"344 23 LINE",
"230 103 LINE",
"217 94 LINE",
"331 13 LINE"
);
},
{
closed = 1;
nodes = (
"198 171 LINE",
"171 204 LINE",
"158 191 LINE",
"185 158 LINE"
);
},
{
closed = 1;
nodes = (
"50 176 LINE",
"50 435 LINE",
"30 435 LINE",
"30 176 LINE"
);
},
{
closed = 1;
nodes = (
"218 158 LINE",
"218 176 LINE",
"185 176 LINE",
"185 158 LINE"
);
},
{
closed = 1;
nodes = (
"231 101 LINE",
"214 171 LINE",
"199 160 LINE",
"218 91 LINE"
);
},
{
closed = 1;
nodes = (
"244 191 LINE",
"231 204 LINE",
"205 171 LINE",
"218 158 LINE"
);
},
{
closed = 1;
nodes = (
"300 176 LINE",
"241 199 LINE",
"214 166 LINE",
"229 95 LINE"
);
},
{
closed = 1;
nodes = (
"44 426 LINE",
"48 442 LINE",
"23 446 LINE",
"14 433 LINE"
);
},
{
closed = 1;
nodes = (
"178 191 LINE",
"178 403 LINE",
"158 403 LINE",
"158 191 LINE"
);
},
{
closed = 1;
nodes = (
"169 411 LINE",
"41 442 LINE",
"37 427 LINE",
"169 393 LINE"
);
},
{
closed = 1;
nodes = (
"310 176 LINE",
"300 189 LINE",
"217 102 LINE",
"227 89 LINE"
);
},
{
closed = 1;
nodes = (
"474 137 LINE",
"459 150 LINE",
"319 13 LINE",
"334 0 LINE"
);
},
{
closed = 1;
nodes = (
"124 515 LINE",
"141 580 LINE",
"22 444 LINE",
"44 433 LINE"
);
},
{
closed = 1;
nodes = (
"293 184 LINE",
"236 206 LINE",
"232 190 LINE",
"288 168 LINE"
);
},
{
closed = 1;
nodes = (
"156 587 LINE",
"146 600 LINE",
"10 443 LINE",
"20 430 LINE"
);
},
{
closed = 1;
nodes = (
"244 191 LINE",
"244 403 LINE",
"224 403 LINE",
"224 191 LINE"
);
},
{
closed = 1;
nodes = (
"130 510 LINE",
"120 523 LINE",
"33 435 LINE",
"44 424 LINE"
);
},
{
closed = 1;
nodes = (
"198 423 LINE",
"185 436 LINE",
"158 403 LINE",
"171 390 LINE"
);
},
{
closed = 1;
nodes = (
"296 437 LINE",
"237 406 LINE",
"236 197 LINE",
"302 173 LINE"
);
},
{
closed = 1;
nodes = (
"218 418 LINE",
"218 436 LINE",
"185 436 LINE",
"191 418 LINE"
);
},
{
closed = 1;
nodes = (
"208 432 LINE",
"129 521 LINE",
"116 511 LINE",
"193 421 LINE"
);
},
{
closed = 1;
nodes = (
"470 154 LINE",
"293 186 LINE",
"289 170 LINE",
"465 138 LINE"
);
},
{
closed = 1;
nodes = (
"244 403 LINE",
"218 436 LINE",
"205 423 LINE",
"231 390 LINE"
);
},
{
closed = 1;
nodes = (
"134 512 LINE",
"147 593 LINE",
"134 583 LINE",
"119 506 LINE"
);
},
{
closed = 1;
nodes = (
"310 176 LINE",
"310 437 LINE",
"290 429 LINE",
"290 176 LINE"
);
},
{
closed = 1;
nodes = (
"221 511 LINE",
"208 521 LINE",
"207 432 LINE",
"222 421 LINE"
);
},
{
closed = 1;
nodes = (
"221 504 LINE",
"221 522 LINE",
"122 522 LINE",
"122 504 LINE"
);
},
{
closed = 1;
nodes = (
"296 426 LINE",
"284 440 LINE",
"233 414 LINE",
"233 396 LINE"
);
},
{
closed = 1;
nodes = (
"302 440 LINE",
"224 512 LINE",
"208 431 LINE",
"230 400 LINE"
);
},
{
closed = 1;
nodes = (
"217 515 LINE",
"340 586 LINE",
"143 587 LINE",
"132 508 LINE"
);
},
{
closed = 1;
nodes = (
"474 137 LINE",
"474 463 LINE",
"454 463 LINE",
"454 137 LINE"
);
},
{
closed = 1;
nodes = (
"310 434 LINE",
"223 520 LINE",
"213 507 LINE",
"300 421 LINE"
);
},
{
closed = 1;
nodes = (
"334 582 LINE",
"334 600 LINE",
"146 600 LINE",
"146 582 LINE"
);
},
{
closed = 1;
nodes = (
"349 583 LINE",
"336 593 LINE",
"212 512 LINE",
"225 503 LINE"
);
},
{
closed = 1;
nodes = (
"470 448 LINE",
"465 464 LINE",
"289 442 LINE",
"293 426 LINE"
);
},
{
closed = 1;
nodes = (
"474 463 LINE",
"334 600 LINE",
"321 585 LINE",
"461 448 LINE"
);
}
);
width = 530;
},
{
layerId = "62CD5346-0352-4548-B9DD-500D447F2E30";
paths = (
{
closed = 1;
nodes = (
"305 435 LINE",
"245 405 LINE",
"245 190 LINE",
"305 175 LINE"
);
},
{
closed = 1;
nodes = (
"149 14 LINE",
"19 164 LINE",
"5 160 LINE",
"135 0 LINE"
);
},
{
closed = 1;
nodes = (
"120 98 LINE",
"35 175 LINE",
"15 160 LINE",
"135 10 LINE"
);
},
{
closed = 1;
nodes = (
"38 169 LINE",
"32 186 LINE",
"19 164 LINE",
"25 157 LINE"
);
},
{
closed = 1;
nodes = (
"130 98 LINE",
"115 98 LINE",
"132 18 LINE",
"147 9 LINE"
);
},
{
closed = 1;
nodes = (
"325 0 LINE",
"325 18 LINE",
"135 18 LINE",
"135 0 LINE"
);
},
{
closed = 1;
nodes = (
"134 103 LINE",
"39 189 LINE",
"25 175 LINE",
"120 89 LINE"
);
},
{
closed = 1;
nodes = (
"25 160 LINE",
"25 450 LINE",
"5 450 LINE",
"5 160 LINE"
);
},
{
closed = 1;
nodes = (
"185 188 LINE",
"179 204 LINE",
"34 187 LINE",
"40 171 LINE"
);
},
{
closed = 1;
nodes = (
"220 89 LINE",
"220 107 LINE",
"120 107 LINE",
"120 89 LINE"
);
},
{
closed = 1;
nodes = (
"210 167 LINE",
"197 177 LINE",
"117 103 LINE",
"130 93 LINE"
);
},
{
closed = 1;
nodes = (
"35 175 LINE",
"35 435 LINE",
"15 450 LINE",
"15 160 LINE"
);
},
{
closed = 1;
nodes = (
"220 98 LINE",
"233 168 LINE",
"207 168 LINE",
"120 98 LINE"
);
},
{
closed = 1;
nodes = (
"328 18 LINE",
"215 102 LINE",
"200 93 LINE",
"313 9 LINE"
);
},
{
closed = 1;
nodes = (
"45 175 LINE",
"45 435 LINE",
"25 435 LINE",
"25 175 LINE"
);
},
{
closed = 1;
nodes = (
"211 173 LINE",
"179 204 LINE",
"165 190 LINE",
"197 159 LINE"
);
},
{
closed = 1;
nodes = (
"233 159 LINE",
"233 177 LINE",
"207 177 LINE",
"207 159 LINE"
);
},
{
closed = 1;
nodes = (
"223 103 LINE",
"233 177 LINE",
"220 167 LINE",
"210 93 LINE"
);
},
{
closed = 1;
nodes = (
"255 190 LINE",
"241 204 LINE",
"219 173 LINE",
"233 159 LINE"
);
},
{
closed = 1;
nodes = (
"305 175 LINE",
"245 190 LINE",
"233 168 LINE",
"220 98 LINE"
);
},
{
closed = 1;
nodes = (
"38 441 LINE",
"25 453 LINE",
"19 446 LINE",
"32 424 LINE"
);
},
{
closed = 1;
nodes = (
"315 175 LINE",
"301 189 LINE",
"206 103 LINE",
"220 89 LINE"
);
},
{
closed = 1;
nodes = (
"185 190 LINE",
"185 405 LINE",
"165 405 LINE",
"165 190 LINE"
);
},
{
closed = 1;
nodes = (
"475 150 LINE",
"461 164 LINE",
"311 14 LINE",
"325 0 LINE"
);
},
{
closed = 1;
nodes = (
"306 187 LINE",
"241 204 LINE",
"235 188 LINE",
"300 171 LINE"
);
},
{
closed = 1;
nodes = (
"185 407 LINE",
"45 437 LINE",
"39 421 LINE",
"179 391 LINE"
);
},
{
closed = 1;
nodes = (
"255 190 LINE",
"255 405 LINE",
"235 405 LINE",
"235 190 LINE"
);
},
{
closed = 1;
nodes = (
"149 586 LINE",
"135 600 LINE",
"5 450 LINE",
"19 446 LINE"
);
},
{
closed = 1;
nodes = (
"120 518 LINE",
"135 592 LINE",
"15 450 LINE",
"35 434 LINE"
);
},
{
closed = 1;
nodes = (
"134 512 LINE",
"120 526 LINE",
"25 435 LINE",
"39 421 LINE"
);
},
{
closed = 1;
nodes = (
"461 164 LINE",
"308 186 LINE",
"302 169 LINE",
"455 147 LINE"
);
},
{
closed = 1;
nodes = (
"211 422 LINE",
"197 436 LINE",
"165 405 LINE",
"179 391 LINE"
);
},
{
closed = 1;
nodes = (
"233 418 LINE",
"233 436 LINE",
"200 436 LINE",
"200 418 LINE"
);
},
{
closed = 1;
nodes = (
"212 428 LINE",
"130 520 LINE",
"115 510 LINE",
"197 418 LINE"
);
},
{
closed = 1;
nodes = (
"255 405 LINE",
"233 436 LINE",
"219 422 LINE",
"241 391 LINE"
);
},
{
closed = 1;
nodes = (
"315 175 LINE",
"315 435 LINE",
"295 435 LINE",
"295 175 LINE"
);
},
{
closed = 1;
nodes = (
"128 515 LINE",
"151 586 LINE",
"134 580 LINE",
"111 509 LINE"
);
},
{
closed = 1;
nodes = (
"225 510 LINE",
"210 520 LINE",
"218 428 LINE",
"233 418 LINE"
);
},
{
closed = 1;
nodes = (
"301 421 LINE",
"295 437 LINE",
"235 407 LINE",
"241 391 LINE"
);
},
{
closed = 1;
nodes = (
"220 508 LINE",
"220 526 LINE",
"120 526 LINE",
"120 508 LINE"
);
},
{
closed = 1;
nodes = (
"305 435 LINE",
"220 518 LINE",
"229 428 LINE",
"245 405 LINE"
);
},
{
closed = 1;
nodes = (
"220 518 LINE",
"325 592 LINE",
"135 592 LINE",
"120 518 LINE"
);
},
{
closed = 1;
nodes = (
"475 150 LINE",
"475 460 LINE",
"455 460 LINE",
"455 150 LINE"
);
},
{
closed = 1;
nodes = (
"315 435 LINE",
"220 526 LINE",
"206 512 LINE",
"301 421 LINE"
);
},
{
closed = 1;
nodes = (
"325 582 LINE",
"325 600 LINE",
"135 600 LINE",
"135 582 LINE"
);
},
{
closed = 1;
nodes = (
"326 580 LINE",
"309 586 LINE",
"202 520 LINE",
"219 514 LINE"
);
},
{
closed = 1;
nodes = (
"461 446 LINE",
"455 463 LINE",
"302 441 LINE",
"308 424 LINE"
);
},
{
closed = 1;
nodes = (
"475 460 LINE",
"325 600 LINE",
"311 586 LINE",
"461 446 LINE"
);
}
);
width = 480;
},
{
layerId = "5C408D9C-FBE9-43BC-96E3-8D1C776DB785";
name = public.background;
paths = (
{
closed = 1;
nodes = (
"103 185 LINE",
"223 245 LINE",
"223 380 LINE",
"103 335 LINE"
);
},
{
closed = 1;
nodes = (
"369 536 LINE",
"509 396 LINE",
"523 410 LINE",
"383 550 LINE"
);
},
{
closed = 1;
nodes = (
"338 422 LINE",
"423 335 LINE",
"513 410 LINE",
"383 540 LINE"
);
},
{
closed = 1;
nodes = (
"420 341 LINE",
"426 324 LINE",
"509 396 LINE",
"503 413 LINE"
);
},
{
closed = 1;
nodes = (
"323 422 LINE",
"338 413 LINE",
"386 532 LINE",
"371 541 LINE"
);
},
{
closed = 1;
nodes = (
"143 550 LINE",
"143 532 LINE",
"383 532 LINE",
"383 550 LINE"
);
},
{
closed = 1;
nodes = (
"324 417 LINE",
"419 321 LINE",
"433 335 LINE",
"338 431 LINE"
);
},
{
closed = 1;
nodes = (
"503 410 LINE",
"503 190 LINE",
"523 190 LINE",
"523 410 LINE"
);
},
{
closed = 1;
nodes = (
"293 386 LINE",
"299 366 LINE",
"424 319 LINE",
"418 339 LINE"
);
},
{
closed = 1;
nodes = (
"188 431 LINE",
"188 413 LINE",
"338 413 LINE",
"338 431 LINE"
);
},
{
closed = 1;
nodes = (
"268 383 LINE",
"281 373 LINE",
"341 417 LINE",
"328 427 LINE"
);
},
{
closed = 1;
nodes = (
"423 335 LINE",
"423 185 LINE",
"513 190 LINE",
"513 410 LINE"
);
},
{
closed = 1;
nodes = (
"188 422 LINE",
"245 382 LINE",
"281 382 LINE",
"338 422 LINE"
);
},
{
closed = 1;
nodes = (
"140 532 LINE",
"188 413 LINE",
"203 422 LINE",
"155 541 LINE"
);
},
{
closed = 1;
nodes = (
"413 335 LINE",
"413 185 LINE",
"433 185 LINE",
"433 335 LINE"
);
},
{
closed = 1;
nodes = (
"267 377 LINE",
"299 361 LINE",
"313 375 LINE",
"281 391 LINE"
);
},
{
closed = 1;
nodes = (
"245 391 LINE",
"245 373 LINE",
"281 373 LINE",
"281 391 LINE"
);
},
{
closed = 1;
nodes = (
"185 417 LINE",
"245 373 LINE",
"258 383 LINE",
"198 427 LINE"
);
},
{
closed = 1;
nodes = (
"213 375 LINE",
"227 361 LINE",
"259 377 LINE",
"245 391 LINE"
);
},
{
closed = 1;
nodes = (
"103 335 LINE",
"223 380 LINE",
"245 382 LINE",
"188 422 LINE"
);
},
{
closed = 1;
nodes = (
"420 179 LINE",
"503 187 LINE",
"509 204 LINE",
"426 196 LINE"
);
},
{
closed = 1;
nodes = (
"93 335 LINE",
"107 321 LINE",
"202 417 LINE",
"188 431 LINE"
);
},
{
closed = 1;
nodes = (
"293 370 LINE",
"293 245 LINE",
"313 245 LINE",
"313 370 LINE"
);
},
{
closed = 1;
nodes = (
"3 410 LINE",
"17 396 LINE",
"157 536 LINE",
"143 550 LINE"
);
},
{
closed = 1;
nodes = (
"102 319 LINE",
"227 366 LINE",
"233 386 LINE",
"108 339 LINE"
);
},
{
closed = 1;
nodes = (
"293 243 LINE",
"413 183 LINE",
"419 199 LINE",
"299 259 LINE"
);
},
{
closed = 1;
nodes = (
"213 380 LINE",
"213 245 LINE",
"233 245 LINE",
"233 380 LINE"
);
},
{
closed = 1;
nodes = (
"359 64 LINE",
"373 50 LINE",
"523 190 LINE",
"509 204 LINE"
);
},
{
closed = 1;
nodes = (
"328 92 LINE",
"373 58 LINE",
"513 190 LINE",
"423 186 LINE"
);
},
{
closed = 1;
nodes = (
"314 98 LINE",
"328 84 LINE",
"433 185 LINE",
"419 199 LINE"
);
},
{
closed = 1;
nodes = (
"17 396 LINE",
"100 324 LINE",
"106 341 LINE",
"23 413 LINE"
);
},
{
closed = 1;
nodes = (
"267 228 LINE",
"281 214 LINE",
"313 245 LINE",
"299 259 LINE"
);
},
{
closed = 1;
nodes = (
"245 232 LINE",
"245 214 LINE",
"281 214 LINE",
"281 232 LINE"
);
},
{
closed = 1;
nodes = (
"266 222 LINE",
"318 90 LINE",
"333 100 LINE",
"281 232 LINE"
);
},
{
closed = 1;
nodes = (
"213 245 LINE",
"245 214 LINE",
"259 228 LINE",
"227 259 LINE"
);
},
{
closed = 1;
nodes = (
"93 335 LINE",
"93 185 LINE",
"113 185 LINE",
"113 335 LINE"
);
},
{
closed = 1;
nodes = (
"315 95 LINE",
"357 64 LINE",
"374 70 LINE",
"332 101 LINE"
);
},
{
closed = 1;
nodes = (
"193 100 LINE",
"208 90 LINE",
"260 222 LINE",
"245 232 LINE"
);
},
{
closed = 1;
nodes = (
"107 199 LINE",
"113 183 LINE",
"233 243 LINE",
"227 259 LINE"
);
},
{
closed = 1;
nodes = (
"198 102 LINE",
"198 84 LINE",
"328 84 LINE",
"328 102 LINE"
);
},
{
closed = 1;
nodes = (
"103 185 LINE",
"198 92 LINE",
"245 222 LINE",
"223 245 LINE"
);
},
{
closed = 1;
nodes = (
"198 92 LINE",
"157 58 LINE",
"373 58 LINE",
"328 92 LINE"
);
},
{
closed = 1;
nodes = (
"3 410 LINE",
"3 190 LINE",
"23 190 LINE",
"23 410 LINE"
);
},
{
closed = 1;
nodes = (
"93 185 LINE",
"198 84 LINE",
"212 98 LINE",
"107 199 LINE"
);
},
{
closed = 1;
nodes = (
"153 68 LINE",
"153 50 LINE",
"373 50 LINE",
"373 68 LINE"
);
},
{
closed = 1;
nodes = (
"152 70 LINE",
"169 64 LINE",
"211 95 LINE",
"194 101 LINE"
);
},
{
closed = 1;
nodes = (
"17 204 LINE",
"23 187 LINE",
"106 179 LINE",
"100 196 LINE"
);
},
{
closed = 1;
nodes = (
"3 190 LINE",
"153 50 LINE",
"167 64 LINE",
"17 204 LINE"
);
}
);
width = 530;
},
{
layerId = "67EC95E2-4054-440D-AB4B-F0B974CBBED7";
paths = (
{
closed = 1;
nodes = (
"425 335 LINE",
"305 375 LINE",
"305 240 LINE",
"425 195 LINE"
);
},
{
closed = 1;
nodes = (
"169 64 LINE",
"19 194 LINE",
"5 180 LINE",
"155 50 LINE"
);
},
{
closed = 1;
nodes = (
"190 93 LINE",
"105 195 LINE",
"15 180 LINE",
"155 60 LINE"
);
},
{
closed = 1;
nodes = (
"108 189 LINE",
"102 206 LINE",
"19 194 LINE",
"25 177 LINE"
);
},
{
closed = 1;
nodes = (
"205 93 LINE",
"190 102 LINE",
"152 68 LINE",
"167 59 LINE"
);
},
{
closed = 1;
nodes = (
"375 50 LINE",
"375 68 LINE",
"155 68 LINE",
"155 50 LINE"
);
},
{
closed = 1;
nodes = (
"204 98 LINE",
"109 209 LINE",
"95 195 LINE",
"190 84 LINE"
);
},
{
closed = 1;
nodes = (
"25 180 LINE",
"25 410 LINE",
"5 410 LINE",
"5 180 LINE"
);
},
{
closed = 1;
nodes = (
"235 238 LINE",
"229 254 LINE",
"104 207 LINE",
"110 191 LINE"
);
},
{
closed = 1;
nodes = (
"340 88 LINE",
"340 106 LINE",
"190 106 LINE",
"190 88 LINE"
);
},
{
closed = 1;
nodes = (
"260 217 LINE",
"247 227 LINE",
"187 98 LINE",
"203 91 LINE"
);
},
{
closed = 1;
nodes = (
"105 195 LINE",
"105 335 LINE",
"15 410 LINE",
"15 180 LINE"
);
},
{
closed = 1;
nodes = (
"340 93 LINE",
"283 218 LINE",
"247 218 LINE",
"190 93 LINE"
);
},
{
closed = 1;
nodes = (
"378 68 LINE",
"340 102 LINE",
"325 93 LINE",
"363 59 LINE"
);
},
{
closed = 1;
nodes = (
"115 195 LINE",
"115 335 LINE",
"95 335 LINE",
"95 195 LINE"
);
},
{
closed = 1;
nodes = (
"261 223 LINE",
"229 254 LINE",
"215 240 LINE",
"247 209 LINE"
);
},
{
closed = 1;
nodes = (
"283 209 LINE",
"283 227 LINE",
"247 227 LINE",
"247 209 LINE"
);
},
{
closed = 1;
nodes = (
"343 98 LINE",
"283 227 LINE",
"270 217 LINE",
"330 88 LINE"
);
},
{
closed = 1;
nodes = (
"315 240 LINE",
"301 254 LINE",
"269 223 LINE",
"283 209 LINE"
);
},
{
closed = 1;
nodes = (
"425 195 LINE",
"305 240 LINE",
"283 218 LINE",
"340 93 LINE"
);
},
{
closed = 1;
nodes = (
"108 341 LINE",
"25 413 LINE",
"19 396 LINE",
"102 324 LINE"
);
},
{
closed = 1;
nodes = (
"435 195 LINE",
"421 209 LINE",
"326 98 LINE",
"340 84 LINE"
);
},
{
closed = 1;
nodes = (
"235 240 LINE",
"235 362 LINE",
"215 362 LINE",
"215 240 LINE"
);
},
{
closed = 1;
nodes = (
"525 180 LINE",
"511 194 LINE",
"361 64 LINE",
"375 50 LINE"
);
},
{
closed = 1;
nodes = (
"426 207 LINE",
"301 254 LINE",
"295 238 LINE",
"420 191 LINE"
);
},
{
closed = 1;
nodes = (
"243 382 LINE",
"115 337 LINE",
"109 321 LINE",
"237 364 LINE"
);
},
{
closed = 1;
nodes = (
"315 240 LINE",
"315 368 LINE",
"295 368 LINE",
"295 240 LINE"
);
},
{
closed = 1;
nodes = (
"159 536 LINE",
"145 550 LINE",
"5 410 LINE",
"19 396 LINE"
);
},
{
closed = 1;
nodes = (
"190 418 LINE",
"145 542 LINE",
"15 410 LINE",
"105 334 LINE"
);
},
{
closed = 1;
nodes = (
"204 412 LINE",
"190 426 LINE",
"95 335 LINE",
"109 321 LINE"
);
},
{
closed = 1;
nodes = (
"511 194 LINE",
"428 206 LINE",
"422 189 LINE",
"505 177 LINE"
);
},
{
closed = 1;
nodes = (
"261 372 LINE",
"247 386 LINE",
"215 363 LINE",
"229 356 LINE"
);
},
{
closed = 1;
nodes = (
"289 368 LINE",
"289 386 LINE",
"241 386 LINE",
"241 368 LINE"
);
},
{
closed = 1;
nodes = (
"262 378 LINE",
"200 420 LINE",
"185 410 LINE",
"247 368 LINE"
);
},
{
closed = 1;
nodes = (
"315 363 LINE",
"283 386 LINE",
"269 372 LINE",
"301 356 LINE"
);
},
{
closed = 1;
nodes = (
"435 195 LINE",
"435 335 LINE",
"415 335 LINE",
"415 195 LINE"
);
},
{
closed = 1;
nodes = (
"203 415 LINE",
"161 536 LINE",
"144 530 LINE",
"186 409 LINE"
);
},
{
closed = 1;
nodes = (
"345 410 LINE",
"330 420 LINE",
"268 378 LINE",
"283 368 LINE"
);
},
{
closed = 1;
nodes = (
"421 321 LINE",
"415 337 LINE",
"295 379 LINE",
"301 361 LINE"
);
},
{
closed = 1;
nodes = (
"340 408 LINE",
"340 426 LINE",
"190 426 LINE",
"190 408 LINE"
);
},
{
closed = 1;
nodes = (
"425 335 LINE",
"340 418 LINE",
"283 378 LINE",
"305 375 LINE"
);
},
{
closed = 1;
nodes = (
"340 418 LINE",
"381 542 LINE",
"145 542 LINE",
"190 418 LINE"
);
},
{
closed = 1;
nodes = (
"525 180 LINE",
"525 410 LINE",
"505 410 LINE",
"505 180 LINE"
);
},
{
closed = 1;
nodes = (
"435 335 LINE",
"340 426 LINE",
"326 412 LINE",
"421 321 LINE"
);
},
{
closed = 1;
nodes = (
"385 532 LINE",
"385 550 LINE",
"145 550 LINE",
"145 532 LINE"
);
},
{
closed = 1;
nodes = (
"386 530 LINE",
"369 536 LINE",
"327 415 LINE",
"344 409 LINE"
);
},
{
closed = 1;
nodes = (
"511 396 LINE",
"505 413 LINE",
"422 341 LINE",
"428 324 LINE"
);
},
{
closed = 1;
nodes = (
"525 410 LINE",
"385 550 LINE",
"371 536 LINE",
"511 396 LINE"
);
}
);
width = 530;
},
{
layerId = "5C408D9C-FBE9-43BC-96E3-8D1C776DB785";
name = public.background;
paths = (
{
closed = 1;
nodes = (
"196 192 LINE",
"115 259 LINE",
"11 198 LINE",
"151 60 LINE"
);
},
{
closed = 1;
nodes = (
"154 61 LINE",
"15 197 LINE",
"5 184 LINE",
"144 48 LINE"
);
},
{
closed = 1;
nodes = (
"120 253 LINE",
"116 269 LINE",
"6 201 LINE",
"11 185 LINE"
);
},
{
closed = 1;
nodes = (
"198 184 LINE",
"185 193 LINE",
"142 71 LINE",
"155 61 LINE"
);
},
{
closed = 1;
nodes = (
"382 48 LINE",
"372 66 LINE",
"154 66 LINE",
"144 48 LINE"
);
},
{
closed = 1;
nodes = (
"25 184 LINE",
"25 413 LINE",
"5 413 LINE",
"5 184 LINE"
);
},
{
closed = 1;
nodes = (
"221 221 LINE",
"217 239 LINE",
"107 275 LINE",
"112 258 LINE"
);
},
{
closed = 1;
nodes = (
"201 192 LINE",
"112 272 LINE",
"102 259 LINE",
"191 179 LINE"
);
},
{
closed = 1;
nodes = (
"112 263 LINE",
"112 426 LINE",
"15 414 LINE",
"15 187 LINE"
);
},
{
closed = 1;
nodes = (
"326 178 LINE",
"326 189 LINE",
"190 189 LINE",
"190 178 LINE"
);
},
{
closed = 1;
nodes = (
"256 217 LINE",
"241 228 LINE",
"184 191 LINE",
"197 181 LINE"
);
},
{
closed = 1;
nodes = (
"329 186 LINE",
"270 214 LINE",
"241 214 LINE",
"192 184 LINE"
);
},
{
closed = 1;
nodes = (
"387 66 LINE",
"337 193 LINE",
"322 184 LINE",
"371 56 LINE"
);
},
{
closed = 1;
nodes = (
"256 218 LINE",
"223 241 LINE",
"210 228 LINE",
"243 205 LINE"
);
},
{
closed = 1;
nodes = (
"122 259 LINE",
"122 423 LINE",
"102 423 LINE",
"102 259 LINE"
);
},
{
closed = 1;
nodes = (
"283 205 LINE",
"283 223 LINE",
"243 223 LINE",
"243 205 LINE"
);
},
{
closed = 1;
nodes = (
"336 191 LINE",
"279 218 LINE",
"264 207 LINE",
"323 181 LINE"
);
},
{
closed = 1;
nodes = (
"316 228 LINE",
"303 241 LINE",
"270 218 LINE",
"283 205 LINE"
);
},
{
closed = 1;
nodes = (
"425 256 LINE",
"313 236 LINE",
"279 213 LINE",
"334 185 LINE"
);
},
{
closed = 1;
nodes = (
"117 414 LINE",
"115 429 LINE",
"14 415 LINE",
"13 401 LINE"
);
},
{
closed = 1;
nodes = (
"230 228 LINE",
"230 356 LINE",
"210 356 LINE",
"210 228 LINE"
);
},
{
closed = 1;
nodes = (
"221 360 LINE",
"117 431 LINE",
"110 417 LINE",
"221 342 LINE"
);
},
{
closed = 1;
nodes = (
"435 256 LINE",
"425 269 LINE",
"322 192 LINE",
"332 179 LINE"
);
},
{
closed = 1;
nodes = (
"532 184 LINE",
"519 200 LINE",
"369 64 LINE",
"382 48 LINE"
);
},
{
closed = 1;
nodes = (
"200 512 LINE",
"149 534 LINE",
"16 414 LINE",
"114 421 LINE"
);
},
{
closed = 1;
nodes = (
"418 264 LINE",
"308 243 LINE",
"304 227 LINE",
"413 248 LINE"
);
},
{
closed = 1;
nodes = (
"164 537 LINE",
"154 550 LINE",
"5 413 LINE",
"15 400 LINE"
);
},
{
closed = 1;
nodes = (
"316 228 LINE",
"316 356 LINE",
"296 356 LINE",
"296 228 LINE"
);
},
{
closed = 1;
nodes = (
"211 510 LINE",
"201 523 LINE",
"103 426 LINE",
"117 416 LINE"
);
},
{
closed = 1;
nodes = (
"256 376 LINE",
"243 389 LINE",
"210 356 LINE",
"223 343 LINE"
);
},
{
closed = 1;
nodes = (
"422 415 LINE",
"309 359 LINE",
"308 234 LINE",
"424 254 LINE"
);
},
{
closed = 1;
nodes = (
"283 371 LINE",
"283 389 LINE",
"243 389 LINE",
"243 371 LINE"
);
},
{
closed = 1;
nodes = (
"264 385 LINE",
"212 514 LINE",
"197 506 LINE",
"249 374 LINE"
);
},
{
closed = 1;
nodes = (
"527 195 LINE",
"425 269 LINE",
"416 252 LINE",
"516 182 LINE"
);
},
{
closed = 1;
nodes = (
"316 356 LINE",
"283 389 LINE",
"270 376 LINE",
"303 343 LINE"
);
},
{
closed = 1;
nodes = (
"212 512 LINE",
"155 543 LINE",
"142 533 LINE",
"199 503 LINE"
);
},
{
closed = 1;
nodes = (
"435 256 LINE",
"435 413 LINE",
"415 411 LINE",
"415 256 LINE"
);
},
{
closed = 1;
nodes = (
"335 509 LINE",
"320 517 LINE",
"264 385 LINE",
"279 374 LINE"
);
},
{
closed = 1;
nodes = (
"327 504 LINE",
"327 522 LINE",
"203 522 LINE",
"203 504 LINE"
);
},
{
closed = 1;
nodes = (
"423 404 LINE",
"409 418 LINE",
"302 362 LINE",
"308 344 LINE"
);
},
{
closed = 1;
nodes = (
"429 416 LINE",
"329 512 LINE",
"273 384 LINE",
"302 353 LINE"
);
},
{
closed = 1;
nodes = (
"325 511 LINE",
"378 536 LINE",
"151 537 LINE",
"210 508 LINE"
);
},
{
closed = 1;
nodes = (
"532 184 LINE",
"532 413 LINE",
"512 413 LINE",
"512 184 LINE"
);
},
{
closed = 1;
nodes = (
"433 416 LINE",
"327 521 LINE",
"317 508 LINE",
"420 403 LINE"
);
},
{
closed = 1;
nodes = (
"372 532 LINE",
"376 550 LINE",
"154 550 LINE",
"154 532 LINE"
);
},
{
closed = 1;
nodes = (
"387 533 LINE",
"373 544 LINE",
"317 517 LINE",
"329 505 LINE"
);
},
{
closed = 1;
nodes = (
"528 398 LINE",
"523 414 LINE",
"417 423 LINE",
"420 404 LINE"
);
},
{
closed = 1;
nodes = (
"532 413 LINE",
"376 550 LINE",
"362 537 LINE",
"522 400 LINE"
);
}
);
width = 530;
},
{
layerId = "94D2509E-AE09-4DCD-8AC9-FEB053E4A4EF";
paths = (
{
closed = 1;
nodes = (
"425 415 LINE",
"305 355 LINE",
"305 220 LINE",
"425 265 LINE"
);
},
{
closed = 1;
nodes = (
"159 64 LINE",
"19 204 LINE",
"5 190 LINE",
"145 50 LINE"
);
},
{
closed = 1;
nodes = (
"190 178 LINE",
"105 265 LINE",
"15 190 LINE",
"145 60 LINE"
);
},
{
closed = 1;
nodes = (
"108 259 LINE",
"102 276 LINE",
"19 204 LINE",
"25 187 LINE"
);
},
{
closed = 1;
nodes = (
"205 178 LINE",
"190 187 LINE",
"142 68 LINE",
"157 59 LINE"
);
},
{
closed = 1;
nodes = (
"385 50 LINE",
"385 68 LINE",
"145 68 LINE",
"145 50 LINE"
);
},
{
closed = 1;
nodes = (
"204 183 LINE",
"109 279 LINE",
"95 265 LINE",
"190 169 LINE"
);
},
{
closed = 1;
nodes = (
"25 190 LINE",
"25 410 LINE",
"5 410 LINE",
"5 190 LINE"
);
},
{
closed = 1;
nodes = (
"235 214 LINE",
"229 234 LINE",
"104 281 LINE",
"110 261 LINE"
);
},
{
closed = 1;
nodes = (
"340 169 LINE",
"340 187 LINE",
"190 187 LINE",
"190 169 LINE"
);
},
{
closed = 1;
nodes = (
"260 217 LINE",
"247 227 LINE",
"187 183 LINE",
"200 173 LINE"
);
},
{
closed = 1;
nodes = (
"105 265 LINE",
"105 415 LINE",
"15 410 LINE",
"15 190 LINE"
);
},
{
closed = 1;
nodes = (
"340 178 LINE",
"283 218 LINE",
"247 218 LINE",
"190 178 LINE"
);
},
{
closed = 1;
nodes = (
"388 68 LINE",
"340 187 LINE",
"325 178 LINE",
"373 59 LINE"
);
},
{
closed = 1;
nodes = (
"115 265 LINE",
"115 415 LINE",
"95 415 LINE",
"95 265 LINE"
);
},
{
closed = 1;
nodes = (
"261 223 LINE",
"229 239 LINE",
"215 225 LINE",
"247 209 LINE"
);
},
{
closed = 1;
nodes = (
"283 209 LINE",
"283 227 LINE",
"247 227 LINE",
"247 209 LINE"
);
},
{
closed = 1;
nodes = (
"343 183 LINE",
"283 227 LINE",
"270 217 LINE",
"330 173 LINE"
);
},
{
closed = 1;
nodes = (
"315 225 LINE",
"301 239 LINE",
"269 223 LINE",
"283 209 LINE"
);
},
{
closed = 1;
nodes = (
"425 265 LINE",
"305 220 LINE",
"283 218 LINE",
"340 178 LINE"
);
},
{
closed = 1;
nodes = (
"108 421 LINE",
"25 413 LINE",
"19 396 LINE",
"102 404 LINE"
);
},
{
closed = 1;
nodes = (
"435 265 LINE",
"421 279 LINE",
"326 183 LINE",
"340 169 LINE"
);
},
{
closed = 1;
nodes = (
"235 230 LINE",
"235 355 LINE",
"215 355 LINE",
"215 230 LINE"
);
},
{
closed = 1;
nodes = (
"525 190 LINE",
"511 204 LINE",
"371 64 LINE",
"385 50 LINE"
);
},
{
closed = 1;
nodes = (
"426 281 LINE",
"301 234 LINE",
"295 214 LINE",
"420 261 LINE"
);
},
{
closed = 1;
nodes = (
"235 357 LINE",
"115 417 LINE",
"109 401 LINE",
"229 341 LINE"
);
},
{
closed = 1;
nodes = (
"315 220 LINE",
"315 355 LINE",
"295 355 LINE",
"295 220 LINE"
);
},
{
closed = 1;
nodes = (
"169 536 LINE",
"155 550 LINE",
"5 410 LINE",
"19 396 LINE"
);
},
{
closed = 1;
nodes = (
"200 508 LINE",
"155 542 LINE",
"15 410 LINE",
"105 414 LINE"
);
},
{
closed = 1;
nodes = (
"214 502 LINE",
"200 516 LINE",
"95 415 LINE",
"109 401 LINE"
);
},
{
closed = 1;
nodes = (
"511 204 LINE",
"428 276 LINE",
"422 259 LINE",
"505 187 LINE"
);
},
{
closed = 1;
nodes = (
"261 372 LINE",
"247 386 LINE",
"215 355 LINE",
"229 341 LINE"
);
},
{
closed = 1;
nodes = (
"283 368 LINE",
"283 386 LINE",
"247 386 LINE",
"247 368 LINE"
);
},
{
closed = 1;
nodes = (
"262 378 LINE",
"210 510 LINE",
"195 500 LINE",
"247 368 LINE"
);
},
{
closed = 1;
nodes = (
"315 355 LINE",
"283 386 LINE",
"269 372 LINE",
"301 341 LINE"
);
},
{
closed = 1;
nodes = (
"435 265 LINE",
"435 415 LINE",
"415 415 LINE",
"415 265 LINE"
);
},
{
closed = 1;
nodes = (
"213 505 LINE",
"171 536 LINE",
"154 530 LINE",
"196 499 LINE"
);
},
{
closed = 1;
nodes = (
"335 500 LINE",
"320 510 LINE",
"268 378 LINE",
"283 368 LINE"
);
},
{
closed = 1;
nodes = (
"421 401 LINE",
"415 417 LINE",
"295 357 LINE",
"301 341 LINE"
);
},
{
closed = 1;
nodes = (
"330 498 LINE",
"330 516 LINE",
"200 516 LINE",
"200 498 LINE"
);
},
{
closed = 1;
nodes = (
"425 415 LINE",
"330 508 LINE",
"283 378 LINE",
"305 355 LINE"
);
},
{
closed = 1;
nodes = (
"330 508 LINE",
"371 542 LINE",
"155 542 LINE",
"200 508 LINE"
);
},
{
closed = 1;
nodes = (
"525 190 LINE",
"525 410 LINE",
"505 410 LINE",
"505 190 LINE"
);
},
{
closed = 1;
nodes = (
"435 415 LINE",
"330 516 LINE",
"316 502 LINE",
"421 401 LINE"
);
},
{
closed = 1;
nodes = (
"375 532 LINE",
"375 550 LINE",
"155 550 LINE",
"155 532 LINE"
);
},
{
closed = 1;
nodes = (
"376 530 LINE",
"359 536 LINE",
"317 505 LINE",
"334 499 LINE"
);
},
{
closed = 1;
nodes = (
"511 396 LINE",
"505 413 LINE",
"422 421 LINE",
"428 404 LINE"
);
},
{
closed = 1;
nodes = (
"525 410 LINE",
"375 550 LINE",
"361 536 LINE",
"511 396 LINE"
);
}
);
width = 530;
},
{
layerId = "5C408D9C-FBE9-43BC-96E3-8D1C776DB785";
name = public.background;
paths = (
{
closed = 1;
nodes = (
"196 102 LINE",
"115 176 LINE",
"11 151 LINE",
"151 12 LINE"
);
},
{
closed = 1;
nodes = (
"164 13 LINE",
"15 150 LINE",
"5 137 LINE",
"154 0 LINE"
);
},
{
closed = 1;
nodes = (
"120 170 LINE",
"116 186 LINE",
"6 154 LINE",
"11 138 LINE"
);
},
{
closed = 1;
nodes = (
"198 94 LINE",
"185 103 LINE",
"142 23 LINE",
"155 13 LINE"
);
},
{
closed = 1;
nodes = (
"372 0 LINE",
"372 18 LINE",
"154 18 LINE",
"154 0 LINE"
);
},
{
closed = 1;
nodes = (
"25 137 LINE",
"25 463 LINE",
"5 463 LINE",
"5 137 LINE"
);
},
{
closed = 1;
nodes = (
"221 190 LINE",
"217 206 LINE",
"107 184 LINE",
"112 168 LINE"
);
},
{
closed = 1;
nodes = (
"201 102 LINE",
"112 189 LINE",
"102 176 LINE",
"191 89 LINE"
);
},
{
closed = 1;
nodes = (
"112 180 LINE",
"112 430 LINE",
"15 460 LINE",
"15 140 LINE"
);
},
{
closed = 1;
nodes = (
"326 88 LINE",
"326 106 LINE",
"190 106 LINE",
"190 88 LINE"
);
},
{
closed = 1;
nodes = (
"256 170 LINE",
"241 181 LINE",
"184 101 LINE",
"197 91 LINE"
);
},
{
closed = 1;
nodes = (
"329 103 LINE",
"270 167 LINE",
"241 167 LINE",
"192 101 LINE"
);
},
{
closed = 1;
nodes = (
"382 23 LINE",
"335 103 LINE",
"322 94 LINE",
"369 13 LINE"
);
},
{
closed = 1;
nodes = (
"256 171 LINE",
"223 204 LINE",
"210 191 LINE",
"243 158 LINE"
);
},
{
closed = 1;
nodes = (
"122 176 LINE",
"122 439 LINE",
"102 439 LINE",
"102 176 LINE"
);
},
{
closed = 1;
nodes = (
"283 158 LINE",
"283 176 LINE",
"243 176 LINE",
"243 158 LINE"
);
},
{
closed = 1;
nodes = (
"336 101 LINE",
"279 171 LINE",
"264 160 LINE",
"323 91 LINE"
);
},
{
closed = 1;
nodes = (
"316 191 LINE",
"303 204 LINE",
"270 171 LINE",
"283 158 LINE"
);
},
{
closed = 1;
nodes = (
"425 176 LINE",
"313 199 LINE",
"279 166 LINE",
"334 95 LINE"
);
},
{
closed = 1;
nodes = (
"116 426 LINE",
"120 442 LINE",
"21 471 LINE",
"6 458 LINE"
);
},
{
closed = 1;
nodes = (
"230 191 LINE",
"230 403 LINE",
"210 403 LINE",
"210 191 LINE"
);
},
{
closed = 1;
nodes = (
"221 411 LINE",
"109 445 LINE",
"105 430 LINE",
"221 393 LINE"
);
},
{
closed = 1;
nodes = (
"435 176 LINE",
"425 189 LINE",
"322 102 LINE",
"332 89 LINE"
);
},
{
closed = 1;
nodes = (
"532 137 LINE",
"522 150 LINE",
"362 13 LINE",
"372 0 LINE"
);
},
{
closed = 1;
nodes = (
"195 518 LINE",
"149 580 LINE",
"22 467 LINE",
"115 435 LINE"
);
},
{
closed = 1;
nodes = (
"418 184 LINE",
"308 206 LINE",
"304 190 LINE",
"413 168 LINE"
);
},
{
closed = 1;
nodes = (
"164 587 LINE",
"154 600 LINE",
"5 463 LINE",
"15 450 LINE"
);
},
{
closed = 1;
nodes = (
"316 191 LINE",
"316 403 LINE",
"296 403 LINE",
"296 191 LINE"
);
},
{
closed = 1;
nodes = (
"205 513 LINE",
"195 526 LINE",
"106 439 LINE",
"116 426 LINE"
);
},
{
closed = 1;
nodes = (
"256 423 LINE",
"243 436 LINE",
"210 403 LINE",
"223 390 LINE"
);
},
{
closed = 1;
nodes = (
"421 437 LINE",
"309 406 LINE",
"308 197 LINE",
"427 173 LINE"
);
},
{
closed = 1;
nodes = (
"283 418 LINE",
"283 436 LINE",
"243 436 LINE",
"243 418 LINE"
);
},
{
closed = 1;
nodes = (
"266 432 LINE",
"207 521 LINE",
"194 511 LINE",
"251 421 LINE"
);
},
{
closed = 1;
nodes = (
"528 154 LINE",
"418 186 LINE",
"414 170 LINE",
"523 138 LINE"
);
},
{
closed = 1;
nodes = (
"316 403 LINE",
"283 436 LINE",
"270 423 LINE",
"303 390 LINE"
);
},
{
closed = 1;
nodes = (
"212 512 LINE",
"155 593 LINE",
"142 583 LINE",
"199 503 LINE"
);
},
{
closed = 1;
nodes = (
"435 176 LINE",
"435 439 LINE",
"415 429 LINE",
"415 176 LINE"
);
},
{
closed = 1;
nodes = (
"336 511 LINE",
"323 521 LINE",
"264 432 LINE",
"279 421 LINE"
);
},
{
closed = 1;
nodes = (
"326 504 LINE",
"326 522 LINE",
"200 522 LINE",
"200 504 LINE"
);
},
{
closed = 1;
nodes = (
"421 426 LINE",
"402 440 LINE",
"305 414 LINE",
"305 396 LINE"
);
},
{
closed = 1;
nodes = (
"427 440 LINE",
"329 512 LINE",
"273 431 LINE",
"302 400 LINE"
);
},
{
closed = 1;
nodes = (
"322 515 LINE",
"378 586 LINE",
"151 587 LINE",
"210 508 LINE"
);
},
{
closed = 1;
nodes = (
"532 137 LINE",
"532 463 LINE",
"512 463 LINE",
"512 137 LINE"
);
},
{
closed = 1;
nodes = (
"435 434 LINE",
"328 520 LINE",
"318 507 LINE",
"425 421 LINE"
);
},
{
closed = 1;
nodes = (
"372 582 LINE",
"372 600 LINE",
"154 600 LINE",
"154 582 LINE"
);
},
{
closed = 1;
nodes = (
"387 583 LINE",
"374 593 LINE",
"317 512 LINE",
"330 503 LINE"
);
},
{
closed = 1;
nodes = (
"528 448 LINE",
"523 464 LINE",
"414 442 LINE",
"418 426 LINE"
);
},
{
closed = 1;
nodes = (
"532 463 LINE",
"372 600 LINE",
"362 587 LINE",
"522 450 LINE"
);
}
);
width = 530;
},
{
layerId = "B386CC4D-AD36-4992-A5CF-4B6CB312D231";
paths = (
{
closed = 1;
nodes = (
"425 435 LINE",
"305 405 LINE",
"305 190 LINE",
"425 175 LINE"
);
},
{
closed = 1;
nodes = (
"189 14 LINE",
"19 164 LINE",
"5 150 LINE",
"175 0 LINE"
);
},
{
closed = 1;
nodes = (
"200 98 LINE",
"105 175 LINE",
"15 150 LINE",
"175 10 LINE"
);
},
{
closed = 1;
nodes = (
"108 169 LINE",
"102 186 LINE",
"19 164 LINE",
"25 147 LINE"
);
},
{
closed = 1;
nodes = (
"215 98 LINE",
"200 107 LINE",
"172 18 LINE",
"187 9 LINE"
);
},
{
closed = 1;
nodes = (
"375 0 LINE",
"375 18 LINE",
"175 18 LINE",
"175 0 LINE"
);
},
{
closed = 1;
nodes = (
"214 103 LINE",
"109 189 LINE",
"95 175 LINE",
"200 89 LINE"
);
},
{
closed = 1;
nodes = (
"25 150 LINE",
"25 460 LINE",
"5 460 LINE",
"5 150 LINE"
);
},
{
closed = 1;
nodes = (
"235 188 LINE",
"229 204 LINE",
"104 187 LINE",
"110 171 LINE"
);
},
{
closed = 1;
nodes = (
"330 89 LINE",
"330 107 LINE",
"200 107 LINE",
"200 89 LINE"
);
},
{
closed = 1;
nodes = (
"260 167 LINE",
"247 177 LINE",
"197 103 LINE",
"210 93 LINE"
);
},
{
closed = 1;
nodes = (
"105 175 LINE",
"105 435 LINE",
"15 460 LINE",
"15 150 LINE"
);
},
{
closed = 1;
nodes = (
"330 98 LINE",
"283 168 LINE",
"247 168 LINE",
"200 98 LINE"
);
},
{
closed = 1;
nodes = (
"378 18 LINE",
"330 107 LINE",
"315 98 LINE",
"363 9 LINE"
);
},
{
closed = 1;
nodes = (
"115 175 LINE",
"115 435 LINE",
"95 435 LINE",
"95 175 LINE"
);
},
{
closed = 1;
nodes = (
"261 173 LINE",
"229 204 LINE",
"215 190 LINE",
"247 159 LINE"
);
},
{
closed = 1;
nodes = (
"283 159 LINE",
"283 177 LINE",
"247 177 LINE",
"247 159 LINE"
);
},
{
closed = 1;
nodes = (
"333 103 LINE",
"283 177 LINE",
"270 167 LINE",
"320 93 LINE"
);
},
{
closed = 1;
nodes = (
"315 190 LINE",
"301 204 LINE",
"269 173 LINE",
"283 159 LINE"
);
},
{
closed = 1;
nodes = (
"425 175 LINE",
"305 190 LINE",
"283 168 LINE",
"330 98 LINE"
);
},
{
closed = 1;
nodes = (
"108 441 LINE",
"25 463 LINE",
"19 446 LINE",
"102 424 LINE"
);
},
{
closed = 1;
nodes = (
"435 175 LINE",
"421 189 LINE",
"316 103 LINE",
"330 89 LINE"
);
},
{
closed = 1;
nodes = (
"235 190 LINE",
"235 405 LINE",
"215 405 LINE",
"215 190 LINE"
);
},
{
closed = 1;
nodes = (
"525 150 LINE",
"511 164 LINE",
"361 14 LINE",
"375 0 LINE"
);
},
{
closed = 1;
nodes = (
"426 187 LINE",
"301 204 LINE",
"295 188 LINE",
"420 171 LINE"
);
},
{
closed = 1;
nodes = (
"235 407 LINE",
"115 437 LINE",
"109 421 LINE",
"229 391 LINE"
);
},
{
closed = 1;
nodes = (
"315 190 LINE",
"315 405 LINE",
"295 405 LINE",
"295 190 LINE"
);
},
{
closed = 1;
nodes = (
"169 586 LINE",
"155 600 LINE",
"5 460 LINE",
"19 446 LINE"
);
},
{
closed = 1;
nodes = (
"200 518 LINE",
"155 592 LINE",
"15 460 LINE",
"105 434 LINE"
);
},
{
closed = 1;
nodes = (
"214 512 LINE",
"200 526 LINE",
"95 435 LINE",
"109 421 LINE"
);
},
{
closed = 1;
nodes = (
"511 164 LINE",
"428 186 LINE",
"422 169 LINE",
"505 147 LINE"
);
},
{
closed = 1;
nodes = (
"261 422 LINE",
"247 436 LINE",
"215 405 LINE",
"229 391 LINE"
);
},
{
closed = 1;
nodes = (
"283 418 LINE",
"283 436 LINE",
"247 436 LINE",
"247 418 LINE"
);
},
{
closed = 1;
nodes = (
"262 428 LINE",
"210 520 LINE",
"195 510 LINE",
"247 418 LINE"
);
},
{
closed = 1;
nodes = (
"315 405 LINE",
"283 436 LINE",
"269 422 LINE",
"301 391 LINE"
);
},
{
closed = 1;
nodes = (
"435 175 LINE",
"435 435 LINE",
"415 435 LINE",
"415 175 LINE"
);
},
{
closed = 1;
nodes = (
"213 515 LINE",
"171 586 LINE",
"154 580 LINE",
"196 509 LINE"
);
},
{
closed = 1;
nodes = (
"335 510 LINE",
"320 520 LINE",
"268 428 LINE",
"283 418 LINE"
);
},
{
closed = 1;
nodes = (
"421 421 LINE",
"415 437 LINE",
"295 407 LINE",
"301 391 LINE"
);
},
{
closed = 1;
nodes = (
"330 508 LINE",
"330 526 LINE",
"200 526 LINE",
"200 508 LINE"
);
},
{
closed = 1;
nodes = (
"425 435 LINE",
"330 518 LINE",
"283 428 LINE",
"305 405 LINE"
);
},
{
closed = 1;
nodes = (
"330 518 LINE",
"371 592 LINE",
"155 592 LINE",
"200 518 LINE"
);
},
{
closed = 1;
nodes = (
"525 150 LINE",
"525 460 LINE",
"505 460 LINE",
"505 150 LINE"
);
},
{
closed = 1;
nodes = (
"435 435 LINE",
"330 526 LINE",
"316 512 LINE",
"421 421 LINE"
);
},
{
closed = 1;
nodes = (
"375 582 LINE",
"375 600 LINE",
"155 600 LINE",
"155 582 LINE"
);
},
{
closed = 1;
nodes = (
"376 580 LINE",
"359 586 LINE",
"317 515 LINE",
"334 509 LINE"
);
},
{
closed = 1;
nodes = (
"511 446 LINE",
"505 463 LINE",
"422 441 LINE",
"428 424 LINE"
);
},
{
closed = 1;
nodes = (
"525 460 LINE",
"375 600 LINE",
"361 586 LINE",
"511 446 LINE"
);
}
);
width = 530;
}
);
unicode = 004F;
},
{
glyphname = P;
layers = (
{
layerId = "E9386F05-ADE6-4680-88CE-E5F12972D961";
width = 607;
},
{
layerId = "62CD5346-0352-4548-B9DD-500D447F2E30";
width = 487;
},
{
layerId = "67EC95E2-4054-440D-AB4B-F0B974CBBED7";
width = 607;
},
{
layerId = "94D2509E-AE09-4DCD-8AC9-FEB053E4A4EF";
width = 607;
},
{
layerId = "B386CC4D-AD36-4992-A5CF-4B6CB312D231";
paths = (
{
closed = 1;
nodes = (
"5 0 LINE",
"25 0 LINE",
"25 599 LINE",
"5 599 LINE"
);
},
{
closed = 1;
nodes = (
"222 0 LINE",
"242 0 LINE",
"243 219 LINE",
"223 219 LINE"
);
},
{
closed = 1;
nodes = (
"10 20 LINE",
"9 0 LINE",
"235 0 LINE",
"235 20 LINE"
);
},
{
closed = 1;
nodes = (
"223 237 LINE",
"223 218 LINE",
"406 218 LINE",
"406 238 LINE"
);
},
{
closed = 1;
nodes = (
"5 600 LINE",
"5 580 LINE",
"404 580 LINE",
"404 600 LINE"
);
},
{
closed = 1;
nodes = (
"221 365 LINE",
"240 365 LINE",
"241 446 LINE",
"221 446 LINE"
);
},
{
closed = 1;
nodes = (
"426 356 LINE",
"445 356 LINE",
"446 459 LINE",
"427 459 LINE"
);
},
{
closed = 1;
nodes = (
"130 112 LINE",
"117 125 LINE",
"5 13 LINE",
"18 0 LINE"
);
},
{
closed = 1;
nodes = (
"242 13 LINE",
"133 125 LINE",
"120 112 LINE",
"232 0 LINE"
);
},
{
closed = 1;
nodes = (
"135 110 LINE",
"135 505 LINE",
"115 508 LINE",
"115 110 LINE"
);
},
{
closed = 1;
nodes = (
"237 451 LINE",
"138 505 LINE",
"120 492 LINE",
"234 430 LINE"
);
},
{
closed = 1;
nodes = (
"246 230 LINE",
"138 308 LINE",
"129 288 LINE",
"233 212 LINE"
);
},
{
closed = 1;
nodes = (
"349 497 LINE",
"403 579 LINE",
"394 599 LINE",
"327 498 LINE"
);
},
{
closed = 1;
nodes = (
"437 446 LINE",
"444 460 LINE",
"349 515 LINE",
"332 506 LINE"
);
},
{
closed = 1;
nodes = (
"551 487 LINE",
"561 501 LINE",
"404 600 LINE",
"390 586 LINE"
);
},
{
closed = 1;
nodes = (
"560 485 LINE",
"550 499 LINE",
"426 461 LINE",
"437 446 LINE"
);
},
{
closed = 1;
nodes = (
"543 317 LINE",
"563 317 LINE",
"561 501 LINE",
"541 501 LINE"
);
},
{
closed = 1;
nodes = (
"406 218 LINE",
"563 317 LINE",
"552 333 LINE",
"391 234 LINE"
);
},
{
closed = 1;
nodes = (
"422 356 LINE",
"555 313 LINE",
"555 332 LINE",
"432 370 LINE"
);
},
{
closed = 1;
nodes = (
"399 220 LINE",
"409 237 LINE",
"343 314 LINE",
"321 313 LINE"
);
},
{
closed = 1;
nodes = (
"341 295 LINE",
"438 352 LINE",
"431 367 LINE",
"326 307 LINE"
);
},
{
closed = 1;
nodes = (
"135 313 LINE",
"135 294 LINE",
"344 295 LINE",
"344 315 LINE"
);
},
{
closed = 1;
nodes = (
"119 515 LINE",
"119 496 LINE",
"352 497 LINE",
"352 517 LINE"
);
},
{
closed = 1;
nodes = (
"123 313 LINE",
"134 297 LINE",
"243 370 LINE",
"223 378 LINE"
);
},
{
closed = 1;
nodes = (
"331 303 LINE",
"345 317 LINE",
"313 376 LINE",
"294 375 LINE"
);
},
{
closed = 1;
nodes = (
"230 381 LINE",
"230 364 LINE",
"313 363 LINE",
"313 381 LINE"
);
},
{
closed = 1;
nodes = (
"222 451 LINE",
"222 432 LINE",
"296 432 LINE",
"298 451 LINE"
);
},
{
closed = 1;
nodes = (
"309 440 LINE",
"357 508 LINE",
"338 512 LINE",
"285 437 LINE"
);
},
{
closed = 1;
nodes = (
"326 394 LINE",
"345 394 LINE",
"345 418 LINE",
"326 419 LINE"
);
},
{
closed = 1;
nodes = (
"445 448 LINE",
"436 462 LINE",
"334 426 LINE",
"340 408 LINE"
);
},
{
closed = 1;
nodes = (
"321 387 LINE",
"434 352 LINE",
"442 368 LINE",
"340 401 LINE"
);
},
{
closed = 1;
nodes = (
"306 359 LINE",
"348 386 LINE",
"334 401 LINE",
"293 372 LINE"
);
},
{
closed = 1;
nodes = (
"328 414 LINE",
"347 423 LINE",
"305 450 LINE",
"290 436 LINE"
);
},
{
closed = 1;
nodes = (
"128 514 LINE",
"31 588 LINE",
"15 575 LINE",
"120 492 LINE"
);
}
);
width = 568;
}
);
unicode = 0050;
},
{
glyphname = Q;
layers = (
{
layerId = "E9386F05-ADE6-4680-88CE-E5F12972D961";
width = 600;
},
{
layerId = "62CD5346-0352-4548-B9DD-500D447F2E30";
width = 600;
},
{
layerId = "67EC95E2-4054-440D-AB4B-F0B974CBBED7";
width = 600;
},
{
layerId = "94D2509E-AE09-4DCD-8AC9-FEB053E4A4EF";
width = 600;
},
{
layerId = "B386CC4D-AD36-4992-A5CF-4B6CB312D231";
paths = (
{
closed = 1;
nodes = (
"189 14 LINE",
"19 164 LINE",
"5 150 LINE",
"175 0 LINE"
);
},
{
closed = 1;
nodes = (
"108 169 LINE",
"102 186 LINE",
"19 164 LINE",
"25 147 LINE"
);
},
{
closed = 1;
nodes = (
"215 98 LINE",
"200 107 LINE",
"172 18 LINE",
"187 9 LINE"
);
},
{
closed = 1;
nodes = (
"222 0 LINE",
"222 18 LINE",
"175 18 LINE",
"175 0 LINE"
);
},
{
closed = 1;
nodes = (
"214 103 LINE",
"109 189 LINE",
"95 175 LINE",
"200 89 LINE"
);
},
{
closed = 1;
nodes = (
"25 150 LINE",
"25 460 LINE",
"5 460 LINE",
"5 150 LINE"
);
},
{
closed = 1;
nodes = (
"235 188 LINE",
"229 204 LINE",
"104 187 LINE",
"110 171 LINE"
);
},
{
closed = 1;
nodes = (
"330 89 LINE",
"330 107 LINE",
"200 107 LINE",
"200 89 LINE"
);
},
{
closed = 1;
nodes = (
"260 167 LINE",
"247 177 LINE",
"197 103 LINE",
"210 93 LINE"
);
},
{
closed = 1;
nodes = (
"371 18 LINE",
"330 107 LINE",
"315 98 LINE",
"363 -3 LINE"
);
},
{
closed = 1;
nodes = (
"115 175 LINE",
"115 435 LINE",
"95 435 LINE",
"95 175 LINE"
);
},
{
closed = 1;
nodes = (
"261 173 LINE",
"229 204 LINE",
"215 190 LINE",
"247 159 LINE"
);
},
{
closed = 1;
nodes = (
"283 159 LINE",
"283 177 LINE",
"247 177 LINE",
"247 159 LINE"
);
},
{
closed = 1;
nodes = (
"333 103 LINE",
"283 177 LINE",
"270 167 LINE",
"320 93 LINE"
);
},
{
closed = 1;
nodes = (
"315 190 LINE",
"301 204 LINE",
"269 173 LINE",
"283 159 LINE"
);
},
{
closed = 1;
nodes = (
"108 441 LINE",
"25 463 LINE",
"19 446 LINE",
"102 424 LINE"
);
},
{
closed = 1;
nodes = (
"435 175 LINE",
"421 189 LINE",
"316 103 LINE",
"330 89 LINE"
);
},
{
closed = 1;
nodes = (
"235 190 LINE",
"235 405 LINE",
"215 405 LINE",
"215 190 LINE"
);
},
{
closed = 1;
nodes = (
"525 150 LINE",
"511 164 LINE",
"356 17 LINE",
"363 -3 LINE"
);
},
{
closed = 1;
nodes = (
"426 187 LINE",
"301 204 LINE",
"295 188 LINE",
"420 171 LINE"
);
},
{
closed = 1;
nodes = (
"235 407 LINE",
"115 437 LINE",
"109 421 LINE",
"229 391 LINE"
);
},
{
closed = 1;
nodes = (
"315 190 LINE",
"315 405 LINE",
"295 405 LINE",
"295 190 LINE"
);
},
{
closed = 1;
nodes = (
"169 586 LINE",
"155 600 LINE",
"5 460 LINE",
"19 446 LINE"
);
},
{
closed = 1;
nodes = (
"214 512 LINE",
"200 526 LINE",
"95 435 LINE",
"109 421 LINE"
);
},
{
closed = 1;
nodes = (
"511 164 LINE",
"428 186 LINE",
"422 169 LINE",
"505 147 LINE"
);
},
{
closed = 1;
nodes = (
"261 422 LINE",
"247 436 LINE",
"215 405 LINE",
"229 391 LINE"
);
},
{
closed = 1;
nodes = (
"283 418 LINE",
"283 436 LINE",
"247 436 LINE",
"247 418 LINE"
);
},
{
closed = 1;
nodes = (
"262 428 LINE",
"210 520 LINE",
"195 510 LINE",
"247 418 LINE"
);
},
{
closed = 1;
nodes = (
"315 405 LINE",
"283 436 LINE",
"269 422 LINE",
"301 391 LINE"
);
},
{
closed = 1;
nodes = (
"435 175 LINE",
"435 435 LINE",
"415 435 LINE",
"415 175 LINE"
);
},
{
closed = 1;
nodes = (
"213 515 LINE",
"171 586 LINE",
"154 580 LINE",
"196 509 LINE"
);
},
{
closed = 1;
nodes = (
"335 510 LINE",
"320 520 LINE",
"268 428 LINE",
"283 418 LINE"
);
},
{
closed = 1;
nodes = (
"421 421 LINE",
"415 437 LINE",
"295 407 LINE",
"301 391 LINE"
);
},
{
closed = 1;
nodes = (
"330 508 LINE",
"330 526 LINE",
"200 526 LINE",
"200 508 LINE"
);
},
{
closed = 1;
nodes = (
"525 150 LINE",
"525 460 LINE",
"505 460 LINE",
"505 150 LINE"
);
},
{
closed = 1;
nodes = (
"435 435 LINE",
"330 526 LINE",
"316 512 LINE",
"421 421 LINE"
);
},
{
closed = 1;
nodes = (
"375 582 LINE",
"375 600 LINE",
"155 600 LINE",
"155 582 LINE"
);
},
{
closed = 1;
nodes = (
"376 580 LINE",
"359 586 LINE",
"317 515 LINE",
"334 509 LINE"
);
},
{
closed = 1;
nodes = (
"511 446 LINE",
"505 463 LINE",
"422 441 LINE",
"428 424 LINE"
);
},
{
closed = 1;
nodes = (
"525 460 LINE",
"375 600 LINE",
"361 586 LINE",
"511 446 LINE"
);
},
{
closed = 1;
nodes = (
"326 94 LINE",
"312 102 LINE",
"207 10 LINE",
"221 2 LINE"
);
},
{
closed = 1;
nodes = (
"400 -81 LINE",
"400 -63 LINE",
"300 -63 LINE",
"300 -81 LINE"
);
},
{
closed = 1;
nodes = (
"405 -81 LINE",
"405 41 LINE",
"385 41 LINE",
"385 -81 LINE"
);
},
{
closed = 1;
nodes = (
"315 -70 LINE",
"227 16 LINE",
"211 6 LINE",
"300 -81 LINE"
);
},
{
closed = 1;
nodes = (
"404 -68 LINE",
"299 31 LINE",
"288 17 LINE",
"391 -79 LINE"
);
},
{
closed = 1;
nodes = (
"301 10 LINE",
"302 27 LINE",
"226 17 LINE",
"225 1 LINE"
);
},
{
closed = 1;
nodes = (
"306 10 LINE",
"332 97 LINE",
"316 96 LINE",
"287 9 LINE"
);
}
);
width = 530;
}
);
unicode = 0051;
},
{
glyphname = R;
layers = (
{
layerId = "E9386F05-ADE6-4680-88CE-E5F12972D961";
width = 600;
},
{
layerId = "62CD5346-0352-4548-B9DD-500D447F2E30";
width = 600;
},
{
layerId = "67EC95E2-4054-440D-AB4B-F0B974CBBED7";
width = 600;
},
{
layerId = "94D2509E-AE09-4DCD-8AC9-FEB053E4A4EF";
width = 600;
},
{
layerId = "B386CC4D-AD36-4992-A5CF-4B6CB312D231";
paths = (
{
closed = 1;
nodes = (
"15 10 LINE",
"125 117 LINE"
);
},
{
closed = 1;
nodes = (
"255 0 LINE",
"255 20 LINE",
"5 20 LINE",
"5 0 LINE"
);
},
{
closed = 1;
nodes = (
"25 0 LINE",
"25 600 LINE",
"5 600 LINE",
"5 0 LINE"
);
},
{
closed = 1;
nodes = (
"255 0 LINE",
"255 228 LINE",
"235 228 LINE",
"235 0 LINE"
);
},
{
closed = 1;
nodes = (
"29 600 LINE",
"9 600 LINE"
);
},
{
closed = 1;
nodes = (
"129 111 LINE",
"116 124 LINE",
"5 13 LINE",
"18 0 LINE"
);
},
{
closed = 1;
nodes = (
"255 13 LINE",
"129 111 LINE",
"115 97 LINE",
"242 0 LINE"
);
},
{
closed = 1;
nodes = (
"126 99 LINE",
"126 515 LINE",
"106 515 LINE",
"106 99 LINE"
);
},
{
closed = 1;
nodes = (
"340 7 LINE",
"257 232 LINE",
"239 227 LINE",
"320 0 LINE"
);
},
{
closed = 1;
nodes = (
"567 0 LINE",
"567 20 LINE",
"321 20 LINE",
"321 0 LINE"
);
},
{
closed = 1;
nodes = (
"584 0 LINE",
"461 279 LINE",
"441 274 LINE",
"563 0 LINE"
);
},
{
closed = 1;
nodes = (
"560 327 LINE",
"560 530 LINE",
"540 530 LINE",
"540 327 LINE"
);
},
{
closed = 1;
nodes = (
"560 327 LINE",
"550 343 LINE",
"446 280 LINE",
"456 265 LINE"
);
},
{
closed = 1;
nodes = (
"438 359 LINE",
"427 371 LINE",
"362 315 LINE",
"372 301 LINE"
);
},
{
closed = 1;
nodes = (
"379 301 LINE",
"379 321 LINE",
"110 321 LINE",
"110 301 LINE"
);
},
{
closed = 1;
nodes = (
"9 580 LINE",
"447 580 LINE",
"447 600 LINE",
"9 600 LINE"
);
},
{
closed = 1;
nodes = (
"106 500 LINE",
"368 500 LINE",
"368 520 LINE",
"106 520 LINE"
);
},
{
closed = 1;
nodes = (
"552 509 LINE",
"545 527 LINE",
"423 474 LINE",
"431 458 LINE"
);
},
{
closed = 1;
nodes = (
"449 585 LINE",
"436 598 LINE",
"361 517 LINE",
"377 507 LINE"
);
},
{
closed = 1;
nodes = (
"560 530 LINE",
"447 600 LINE",
"434 586 LINE",
"552 512 LINE"
);
},
{
closed = 1;
nodes = (
"434 473 LINE",
"369 522 LINE",
"360 508 LINE",
"426 458 LINE"
);
},
{
closed = 1;
nodes = (
"423 110 LINE",
"356 292 LINE",
"336 284 LINE",
"404 101 LINE"
);
},
{
closed = 1;
nodes = (
"379 506 LINE",
"364 519 LINE",
"303 446 LINE",
"317 434 LINE"
);
},
{
closed = 1;
nodes = (
"256 228 LINE",
"125 315 LINE",
"112 297 LINE",
"241 213 LINE"
);
},
{
closed = 1;
nodes = (
"382 304 LINE",
"371 318 LINE",
"241 228 LINE",
"252 212 LINE"
);
},
{
closed = 1;
nodes = (
"546 325 LINE",
"550 346 LINE",
"423 375 LINE",
"419 355 LINE"
);
},
{
closed = 1;
nodes = (
"451 264 LINE",
"459 281 LINE",
"380 318 LINE",
"372 302 LINE"
);
},
{
closed = 1;
nodes = (
"219 430 LINE",
"317 430 LINE",
"317 450 LINE",
"219 450 LINE"
);
},
{
closed = 1;
nodes = (
"219 450 LINE",
"219 359 LINE",
"239 359 LINE",
"239 450 LINE"
);
},
{
closed = 1;
nodes = (
"224 431 LINE",
"236 446 LINE",
"117 519 LINE",
"109 504 LINE"
);
},
{
closed = 1;
nodes = (
"219 359 LINE",
"317 359 LINE",
"317 379 LINE",
"219 379 LINE"
);
},
{
closed = 1;
nodes = (
"417 473 LINE",
"417 361 LINE",
"437 361 LINE",
"437 473 LINE"
);
},
{
closed = 1;
nodes = (
"325 428 LINE",
"325 382 LINE",
"345 382 LINE",
"345 428 LINE"
);
},
{
closed = 1;
nodes = (
"237 364 LINE",
"230 382 LINE",
"111 325 LINE",
"119 309 LINE"
);
},
{
closed = 1;
nodes = (
"317 359 LINE",
"343 378 LINE",
"330 392 LINE",
"305 373 LINE"
);
},
{
closed = 1;
nodes = (
"325 419 LINE",
"343 429 LINE",
"317 450 LINE",
"305 436 LINE"
);
},
{
closed = 1;
nodes = (
"320 17 LINE",
"337 9 LINE",
"419 116 LINE",
"405 126 LINE"
);
},
{
closed = 1;
nodes = (
"567 25 LINE",
"420 118 LINE",
"407 104 LINE",
"556 11 LINE"
);
},
{
closed = 1;
nodes = (
"371 303 LINE",
"382 314 LINE",
"313 376 LINE",
"301 366 LINE"
);
},
{
closed = 1;
nodes = (
"435 461 LINE",
"425 477 LINE",
"327 431 LINE",
"333 413 LINE"
);
},
{
closed = 1;
nodes = (
"328 377 LINE",
"423 354 LINE",
"431 372 LINE",
"337 394 LINE"
);
},
{
closed = 1;
nodes = (
"128 514 LINE",
"31 588 LINE",
"15 575 LINE",
"120 492 LINE"
);
}
);
width = 589;
}
);
unicode = 0052;
},
{
glyphname = S;
layers = (
{
layerId = "E9386F05-ADE6-4680-88CE-E5F12972D961";
width = 600;
},
{
layerId = "62CD5346-0352-4548-B9DD-500D447F2E30";
width = 600;
},
{
layerId = "67EC95E2-4054-440D-AB4B-F0B974CBBED7";
width = 600;
},
{
layerId = "94D2509E-AE09-4DCD-8AC9-FEB053E4A4EF";
width = 600;
},
{
layerId = "B386CC4D-AD36-4992-A5CF-4B6CB312D231";
paths = (
{
closed = 1;
nodes = (
"140 1 LINE",
"280 1 LINE",
"280 21 LINE",
"140 21 LINE"
);
},
{
closed = 1;
nodes = (
"323 152 LINE",
"323 240 LINE",
"303 240 LINE",
"303 152 LINE"
);
},
{
closed = 1;
nodes = (
"425 132 LINE",
"307 164 LINE",
"302 146 LINE",
"420 114 LINE"
);
},
{
closed = 1;
nodes = (
"289 11 LINE",
"246 101 LINE",
"229 93 LINE",
"273 3 LINE"
);
},
{
closed = 1;
nodes = (
"432 121 LINE",
"432 281 LINE",
"412 281 LINE",
"412 121 LINE"
);
},
{
closed = 1;
nodes = (
"412 407 LINE",
"412 488 LINE",
"392 488 LINE",
"392 407 LINE"
);
},
{
closed = 1;
nodes = (
"25 321 LINE",
"25 480 LINE",
"5 480 LINE",
"5 321 LINE"
);
},
{
closed = 1;
nodes = (
"25 98 LINE",
"25 199 LINE",
"5 199 LINE",
"5 98 LINE"
);
},
{
closed = 1;
nodes = (
"110 359 LINE",
"110 464 LINE",
"90 464 LINE",
"90 359 LINE"
);
},
{
closed = 1;
nodes = (
"221 402 LINE",
"221 444 LINE",
"201 444 LINE",
"201 402 LINE"
);
},
{
closed = 1;
nodes = (
"289 412 LINE",
"289 440 LINE",
"269 440 LINE",
"269 412 LINE"
);
},
{
closed = 1;
nodes = (
"173 140 LINE",
"204 140 LINE",
"204 160 LINE",
"173 160 LINE"
);
},
{
closed = 1;
nodes = (
"9 179 LINE",
"161 179 LINE",
"161 199 LINE",
"9 199 LINE"
);
},
{
closed = 1;
nodes = (
"150 574 LINE",
"281 574 LINE",
"281 594 LINE",
"150 594 LINE"
);
},
{
closed = 1;
nodes = (
"269 17 LINE",
"280 1 LINE",
"432 121 LINE",
"422 136 LINE"
);
},
{
closed = 1;
nodes = (
"5 98 LINE",
"140 1 LINE",
"150 16 LINE",
"15 113 LINE"
);
},
{
closed = 1;
nodes = (
"76 144 LINE",
"161 85 LINE",
"171 101 LINE",
"86 160 LINE"
);
},
{
closed = 1;
nodes = (
"96 144 LINE",
"96 199 LINE",
"76 199 LINE",
"76 144 LINE"
);
},
{
closed = 1;
nodes = (
"193 150 LINE",
"175 156 LINE",
"132 20 LINE",
"149 14 LINE"
);
},
{
closed = 1;
nodes = (
"228 205 LINE",
"15 336 LINE",
"5 321 LINE",
"218 190 LINE"
);
},
{
closed = 1;
nodes = (
"323 238 LINE",
"100 375 LINE",
"90 359 LINE",
"313 223 LINE"
);
},
{
closed = 1;
nodes = (
"432 281 LINE",
"211 417 LINE",
"201 401 LINE",
"422 266 LINE"
);
},
{
closed = 1;
nodes = (
"424 270 LINE",
"417 287 LINE",
"299 241 LINE",
"306 224 LINE"
);
},
{
closed = 1;
nodes = (
"222 400 LINE",
"216 416 LINE",
"102 373 LINE",
"108 356 LINE"
);
},
{
closed = 1;
nodes = (
"100 452 LINE",
"218 425 LINE",
"221 442 LINE",
"104 469 LINE"
);
},
{
closed = 1;
nodes = (
"403 480 LINE",
"396 496 LINE",
"276 442 LINE",
"283 426 LINE"
);
},
{
closed = 1;
nodes = (
"269 407 LINE",
"412 407 LINE",
"412 427 LINE",
"269 427 LINE"
);
},
{
closed = 1;
nodes = (
"231 100 LINE",
"242 84 LINE",
"324 149 LINE",
"314 164 LINE"
);
},
{
closed = 1;
nodes = (
"228 159 LINE",
"228 205 LINE",
"208 205 LINE",
"208 159 LINE"
);
},
{
closed = 1;
nodes = (
"161 164 LINE",
"161 198 LINE",
"141 198 LINE",
"141 164 LINE"
);
},
{
closed = 1;
nodes = (
"193 156 LINE",
"204 140 LINE",
"228 159 LINE",
"217 175 LINE"
);
},
{
closed = 1;
nodes = (
"141 164 LINE",
"175 139 LINE",
"186 155 LINE",
"152 179 LINE"
);
},
{
closed = 1;
nodes = (
"5 480 LINE",
"16 464 LINE",
"161 578 LINE",
"150 594 LINE"
);
},
{
closed = 1;
nodes = (
"90 464 LINE",
"100 449 LINE",
"199 524 LINE",
"189 539 LINE"
);
},
{
closed = 1;
nodes = (
"257 520 LINE",
"335 456 LINE",
"347 472 LINE",
"269 536 LINE"
);
},
{
closed = 1;
nodes = (
"229 442 LINE",
"258 442 LINE",
"258 462 LINE",
"229 462 LINE"
);
},
{
closed = 1;
nodes = (
"271 579 LINE",
"402 473 LINE",
"412 488 LINE",
"281 594 LINE"
);
},
{
closed = 1;
nodes = (
"189 519 LINE",
"263 519 LINE",
"263 539 LINE",
"189 539 LINE"
);
},
{
closed = 1;
nodes = (
"290 583 LINE",
"272 589 LINE",
"249 521 LINE",
"267 515 LINE"
);
},
{
closed = 1;
nodes = (
"268 442 LINE",
"268 519 LINE",
"248 519 LINE",
"248 442 LINE"
);
},
{
closed = 1;
nodes = (
"203 443 LINE",
"214 428 LINE",
"239 447 LINE",
"229 462 LINE"
);
},
{
closed = 1;
nodes = (
"250 447 LINE",
"280 425 LINE",
"291 440 LINE",
"260 462 LINE"
);
},
{
closed = 1;
nodes = (
"169 85 LINE",
"239 85 LINE",
"239 105 LINE",
"169 105 LINE"
);
}
);
width = 437;
}
);
unicode = 0053;
},
{
glyphname = T;
layers = (
{
layerId = "E9386F05-ADE6-4680-88CE-E5F12972D961";
width = 600;
},
{
layerId = "62CD5346-0352-4548-B9DD-500D447F2E30";
width = 600;
},
{
layerId = "67EC95E2-4054-440D-AB4B-F0B974CBBED7";
width = 600;
},
{
layerId = "94D2509E-AE09-4DCD-8AC9-FEB053E4A4EF";
width = 600;
},
{
layerId = "B386CC4D-AD36-4992-A5CF-4B6CB312D231";
paths = (
{
closed = 1;
nodes = (
"265 117 LINE",
"265 487 LINE",
"155 376 LINE",
"155 10 LINE"
);
},
{
closed = 1;
nodes = (
"270 112 LINE",
"257 125 LINE",
"145 13 LINE",
"158 0 LINE"
);
},
{
closed = 1;
nodes = (
"385 0 LINE",
"385 20 LINE",
"145 20 LINE",
"145 0 LINE"
);
},
{
closed = 1;
nodes = (
"165 0 LINE",
"165 380 LINE",
"145 380 LINE",
"145 0 LINE"
);
},
{
closed = 1;
nodes = (
"385 13 LINE",
"273 125 LINE",
"260 112 LINE",
"372 0 LINE"
);
},
{
closed = 1;
nodes = (
"154 366 LINE",
"154 386 LINE",
"6 386 LINE",
"6 366 LINE"
);
},
{
closed = 1;
nodes = (
"107 479 LINE",
"94 493 LINE",
"11 384 LINE",
"25 372 LINE"
);
},
{
closed = 1;
nodes = (
"25 366 LINE",
"25 600 LINE",
"5 600 LINE",
"5 366 LINE"
);
},
{
closed = 1;
nodes = (
"95 481 LINE",
"95 494 LINE",
"15 590 LINE",
"15 376 LINE"
);
},
{
closed = 1;
nodes = (
"275 110 LINE",
"275 481 LINE",
"255 481 LINE",
"255 110 LINE"
);
},
{
closed = 1;
nodes = (
"385 0 LINE",
"385 380 LINE",
"365 380 LINE",
"365 0 LINE"
);
},
{
closed = 1;
nodes = (
"107 493 LINE",
"25 600 LINE",
"11 588 LINE",
"94 479 LINE"
);
},
{
closed = 1;
nodes = (
"270 477 LINE",
"257 490 LINE",
"145 378 LINE",
"158 365 LINE"
);
},
{
closed = 1;
nodes = (
"384 378 LINE",
"272 490 LINE",
"259 477 LINE",
"371 365 LINE"
);
},
{
closed = 1;
nodes = (
"437 477 LINE",
"437 497 LINE",
"93 497 LINE",
"93 477 LINE"
);
},
{
closed = 1;
nodes = (
"431 487 LINE",
"513 590 LINE",
"23 590 LINE",
"98 487 LINE"
);
},
{
closed = 1;
nodes = (
"524 366 LINE",
"524 386 LINE",
"376 386 LINE",
"376 366 LINE"
);
},
{
closed = 1;
nodes = (
"524 580 LINE",
"524 600 LINE",
"6 600 LINE",
"6 580 LINE"
);
},
{
closed = 1;
nodes = (
"521 384 LINE",
"438 493 LINE",
"425 479 LINE",
"507 372 LINE"
);
},
{
closed = 1;
nodes = (
"525 366 LINE",
"525 600 LINE",
"505 600 LINE",
"505 366 LINE"
);
},
{
closed = 1;
nodes = (
"521 588 LINE",
"507 600 LINE",
"425 493 LINE",
"438 479 LINE"
);
}
);
width = 530;
}
);
unicode = 0054;
},
{
glyphname = U;
layers = (
{
layerId = "E9386F05-ADE6-4680-88CE-E5F12972D961";
paths = (
{
closed = 1;
nodes = (
"10 173 LINE",
"30 173 LINE",
"30 600 LINE",
"10 600 LINE"
);
},
{
closed = 1;
nodes = (
"230 203 LINE",
"250 203 LINE",
"250 600 LINE",
"230 600 LINE"
);
},
{
closed = 1;
nodes = (
"330 203 LINE",
"350 203 LINE",
"350 600 LINE",
"330 600 LINE"
);
},
{
closed = 1;
nodes = (
"490 174 LINE",
"510 174 LINE",
"510 600 LINE",
"490 600 LINE"
);
},
{
closed = 1;
nodes = (
"10 580 LINE",
"250 580 LINE",
"250 600 LINE",
"10 600 LINE"
);
},
{
closed = 1;
nodes = (
"330 580 LINE",
"510 580 LINE",
"510 600 LINE",
"330 600 LINE"
);
},
{
closed = 1;
nodes = (
"175 0 LINE",
"355 0 LINE",
"355 20 LINE",
"175 20 LINE"
);
},
{
closed = 1;
nodes = (
"175 0 LINE",
"190 13 LINE",
"25 188 LINE",
"10 174 LINE"
);
},
{
closed = 1;
nodes = (
"355 0 LINE",
"510 174 LINE",
"495 188 LINE",
"340 13 LINE"
);
},
{
closed = 1;
nodes = (
"170 174 LINE",
"190 174 LINE",
"190 500 LINE",
"170 500 LINE"
);
},
{
closed = 1;
nodes = (
"440 194 LINE",
"460 194 LINE",
"460 520 LINE",
"440 520 LINE"
);
},
{
closed = 1;
nodes = (
"170 500 LINE",
"182 484 LINE",
"244 579 LINE",
"232 595 LINE"
);
},
{
closed = 1;
nodes = (
"191 500 LINE",
"26 597 LINE",
"14 581 LINE",
"179 484 LINE"
);
},
{
closed = 1;
nodes = (
"268 165 LINE",
"325 165 LINE",
"325 185 LINE",
"268 185 LINE"
);
},
{
closed = 1;
nodes = (
"276 83 LINE",
"391 83 LINE",
"391 103 LINE",
"276 103 LINE"
);
},
{
closed = 1;
nodes = (
"442 523 LINE",
"454 507 LINE",
"506 582 LINE",
"494 598 LINE"
);
},
{
closed = 1;
nodes = (
"461 520 LINE",
"346 597 LINE",
"334 581 LINE",
"449 504 LINE"
);
},
{
closed = 1;
nodes = (
"11 173 LINE",
"190 173 LINE",
"190 193 LINE",
"11 193 LINE"
);
},
{
closed = 1;
nodes = (
"164 19 LINE",
"180 8 LINE",
"289 90 LINE",
"272 101 LINE"
);
},
{
closed = 1;
nodes = (
"272 101 LINE",
"288 90 LINE",
"282 173 LINE",
"265 184 LINE"
);
},
{
closed = 1;
nodes = (
"364 12 LINE",
"398 103 LINE",
"379 98 LINE",
"345 7 LINE"
);
},
{
closed = 1;
nodes = (
"400 102 LINE",
"325 185 LINE",
"305 180 LINE",
"381 96 LINE"
);
},
{
closed = 1;
nodes = (
"171 183 LINE",
"264 82 LINE",
"280 95 LINE",
"186 196 LINE"
);
},
{
closed = 1;
nodes = (
"448 183 LINE",
"496 164 LINE",
"501 183 LINE",
"453 202 LINE"
);
},
{
closed = 1;
nodes = (
"230 203 LINE",
"268 165 LINE",
"284 177 LINE",
"246 215 LINE"
);
},
{
closed = 1;
nodes = (
"461 188 LINE",
"446 201 LINE",
"375 96 LINE",
"391 83 LINE"
);
},
{
closed = 1;
nodes = (
"350 203 LINE",
"334 215 LINE",
"309 177 LINE",
"325 165 LINE"
);
},
{
closed = 1;
nodes = (
"251 199 LINE",
"246 218 LINE",
"174 193 LINE",
"179 174 LINE"
);
},
{
closed = 1;
nodes = (
"336 202 LINE",
"449 183 LINE",
"454 202 LINE",
"341 221 LINE"
);
}
);
width = 550;
},
{
layerId = "62CD5346-0352-4548-B9DD-500D447F2E30";
paths = (
{
closed = 1;
nodes = (
"30 173 LINE",
"50 173 LINE",
"50 600 LINE",
"30 600 LINE"
);
},
{
closed = 1;
nodes = (
"250 203 LINE",
"270 203 LINE",
"270 600 LINE",
"250 600 LINE"
);
},
{
closed = 1;
nodes = (
"340 203 LINE",
"360 203 LINE",
"360 600 LINE",
"340 600 LINE"
);
},
{
closed = 1;
nodes = (
"500 174 LINE",
"520 174 LINE",
"520 600 LINE",
"500 600 LINE"
);
},
{
closed = 1;
nodes = (
"30 580 LINE",
"270 580 LINE",
"270 600 LINE",
"30 600 LINE"
);
},
{
closed = 1;
nodes = (
"340 580 LINE",
"520 580 LINE",
"520 600 LINE",
"340 600 LINE"
);
},
{
closed = 1;
nodes = (
"195 0 LINE",
"375 0 LINE",
"375 20 LINE",
"195 20 LINE"
);
},
{
closed = 1;
nodes = (
"195 0 LINE",
"210 13 LINE",
"45 188 LINE",
"30 174 LINE"
);
},
{
closed = 1;
nodes = (
"375 0 LINE",
"520 174 LINE",
"505 188 LINE",
"360 13 LINE"
);
},
{
closed = 1;
nodes = (
"80 174 LINE",
"100 174 LINE",
"100 500 LINE",
"80 500 LINE"
);
},
{
closed = 1;
nodes = (
"390 194 LINE",
"410 194 LINE",
"410 520 LINE",
"390 520 LINE"
);
},
{
closed = 1;
nodes = (
"80 500 LINE",
"92 484 LINE",
"264 579 LINE",
"252 595 LINE"
);
},
{
closed = 1;
nodes = (
"101 500 LINE",
"46 597 LINE",
"34 581 LINE",
"89 484 LINE"
);
},
{
closed = 1;
nodes = (
"272 165 LINE",
"329 165 LINE",
"329 185 LINE",
"272 185 LINE"
);
},
{
closed = 1;
nodes = (
"196 83 LINE",
"316 83 LINE",
"316 103 LINE",
"196 103 LINE"
);
},
{
closed = 1;
nodes = (
"392 523 LINE",
"404 507 LINE",
"516 582 LINE",
"504 598 LINE"
);
},
{
closed = 1;
nodes = (
"411 520 LINE",
"356 597 LINE",
"344 581 LINE",
"399 504 LINE"
);
},
{
closed = 1;
nodes = (
"31 173 LINE",
"100 173 LINE",
"100 193 LINE",
"31 193 LINE"
);
},
{
closed = 1;
nodes = (
"184 17 LINE",
"200 6 LINE",
"206 89 LINE",
"189 100 LINE"
);
},
{
closed = 1;
nodes = (
"187 98 LINE",
"203 87 LINE",
"292 173 LINE",
"275 184 LINE"
);
},
{
closed = 1;
nodes = (
"384 12 LINE",
"316 96 LINE",
"297 91 LINE",
"365 7 LINE"
);
},
{
closed = 1;
nodes = (
"315 101 LINE",
"334 183 LINE",
"314 178 LINE",
"296 95 LINE"
);
},
{
closed = 1;
nodes = (
"81 183 LINE",
"184 82 LINE",
"200 95 LINE",
"96 196 LINE"
);
},
{
closed = 1;
nodes = (
"398 183 LINE",
"506 164 LINE",
"511 183 LINE",
"403 202 LINE"
);
},
{
closed = 1;
nodes = (
"250 203 LINE",
"270 165 LINE",
"286 177 LINE",
"266 215 LINE"
);
},
{
closed = 1;
nodes = (
"417 192 LINE",
"402 205 LINE",
"301 100 LINE",
"317 87 LINE"
);
},
{
closed = 1;
nodes = (
"360 203 LINE",
"344 215 LINE",
"310 176 LINE",
"326 164 LINE"
);
},
{
closed = 1;
nodes = (
"271 199 LINE",
"266 218 LINE",
"84 193 LINE",
"89 174 LINE"
);
},
{
closed = 1;
nodes = (
"346 202 LINE",
"399 183 LINE",
"404 202 LINE",
"351 221 LINE"
);
}
);
width = 550;
},
{
guideLines = (
{
position = "{0, 711}";
},
{
position = "{0, 640}";
}
);
layerId = "67EC95E2-4054-440D-AB4B-F0B974CBBED7";
paths = (
{
closed = 1;
nodes = (
"20 223 LINE",
"40 223 LINE",
"40 550 LINE",
"20 550 LINE"
);
},
{
closed = 1;
nodes = (
"240 263 LINE",
"260 263 LINE",
"260 550 LINE",
"240 550 LINE"
);
},
{
closed = 1;
nodes = (
"350 263 LINE",
"370 263 LINE",
"370 550 LINE",
"350 550 LINE"
);
},
{
closed = 1;
nodes = (
"510 224 LINE",
"530 224 LINE",
"530 550 LINE",
"510 550 LINE"
);
},
{
closed = 1;
nodes = (
"20 530 LINE",
"260 530 LINE",
"260 550 LINE",
"20 550 LINE"
);
},
{
closed = 1;
nodes = (
"350 530 LINE",
"530 530 LINE",
"530 550 LINE",
"350 550 LINE"
);
},
{
closed = 1;
nodes = (
"185 50 LINE",
"365 50 LINE",
"365 70 LINE",
"185 70 LINE"
);
},
{
closed = 1;
nodes = (
"185 50 LINE",
"200 63 LINE",
"35 238 LINE",
"20 224 LINE"
);
},
{
closed = 1;
nodes = (
"365 50 LINE",
"530 224 LINE",
"515 238 LINE",
"350 63 LINE"
);
},
{
closed = 1;
nodes = (
"125 201 LINE",
"145 201 LINE",
"145 396 LINE",
"125 396 LINE"
);
},
{
closed = 1;
nodes = (
"430 214 LINE",
"450 214 LINE",
"450 410 LINE",
"430 410 LINE"
);
},
{
closed = 1;
nodes = (
"125 396 LINE",
"137 380 LINE",
"254 529 LINE",
"242 545 LINE"
);
},
{
closed = 1;
nodes = (
"146 396 LINE",
"36 547 LINE",
"24 531 LINE",
"134 380 LINE"
);
},
{
closed = 1;
nodes = (
"278 225 LINE",
"335 225 LINE",
"335 245 LINE",
"278 245 LINE"
);
},
{
closed = 1;
nodes = (
"230 103 LINE",
"356 103 LINE",
"356 123 LINE",
"230 123 LINE"
);
},
{
closed = 1;
nodes = (
"432 413 LINE",
"444 397 LINE",
"526 532 LINE",
"514 548 LINE"
);
},
{
closed = 1;
nodes = (
"451 410 LINE",
"366 547 LINE",
"354 531 LINE",
"439 394 LINE"
);
},
{
closed = 1;
nodes = (
"21 223 LINE",
"145 193 LINE",
"145 213 LINE",
"21 243 LINE"
);
},
{
closed = 1;
nodes = (
"174 67 LINE",
"190 56 LINE",
"246 116 LINE",
"229 127 LINE"
);
},
{
closed = 1;
nodes = (
"228 126 LINE",
"244 115 LINE",
"298 233 LINE",
"281 244 LINE"
);
},
{
closed = 1;
nodes = (
"375 64 LINE",
"360 125 LINE",
"341 120 LINE",
"356 59 LINE"
);
},
{
closed = 1;
nodes = (
"360 122 LINE",
"335 245 LINE",
"315 240 LINE",
"341 116 LINE"
);
},
{
closed = 1;
nodes = (
"126 203 LINE",
"224 102 LINE",
"240 115 LINE",
"141 216 LINE"
);
},
{
closed = 1;
nodes = (
"438 203 LINE",
"520 218 LINE",
"525 237 LINE",
"443 222 LINE"
);
},
{
closed = 1;
nodes = (
"240 263 LINE",
"274 225 LINE",
"290 237 LINE",
"256 275 LINE"
);
},
{
closed = 1;
nodes = (
"457 212 LINE",
"442 225 LINE",
"347 120 LINE",
"363 107 LINE"
);
},
{
closed = 1;
nodes = (
"370 263 LINE",
"354 275 LINE",
"321 237 LINE",
"337 225 LINE"
);
},
{
closed = 1;
nodes = (
"261 259 LINE",
"256 278 LINE",
"133 215 LINE",
"138 196 LINE"
);
},
{
closed = 1;
nodes = (
"356 262 LINE",
"439 203 LINE",
"444 222 LINE",
"361 281 LINE"
);
}
);
width = 550;
},
{
layerId = "94D2509E-AE09-4DCD-8AC9-FEB053E4A4EF";
paths = (
{
closed = 1;
nodes = (
"20 223 LINE",
"40 223 LINE",
"40 550 LINE",
"20 550 LINE"
);
},
{
closed = 1;
nodes = (
"240 243 LINE",
"260 243 LINE",
"260 550 LINE",
"240 550 LINE"
);
},
{
closed = 1;
nodes = (
"350 243 LINE",
"370 243 LINE",
"370 550 LINE",
"350 550 LINE"
);
},
{
closed = 1;
nodes = (
"510 224 LINE",
"530 224 LINE",
"530 550 LINE",
"510 550 LINE"
);
},
{
closed = 1;
nodes = (
"20 530 LINE",
"260 530 LINE",
"260 550 LINE",
"20 550 LINE"
);
},
{
closed = 1;
nodes = (
"350 530 LINE",
"530 530 LINE",
"530 550 LINE",
"350 550 LINE"
);
},
{
closed = 1;
nodes = (
"185 50 LINE",
"365 50 LINE",
"365 70 LINE",
"185 70 LINE"
);
},
{
closed = 1;
nodes = (
"185 50 LINE",
"200 63 LINE",
"35 238 LINE",
"20 224 LINE"
);
},
{
closed = 1;
nodes = (
"365 50 LINE",
"530 224 LINE",
"515 238 LINE",
"350 63 LINE"
);
},
{
closed = 1;
nodes = (
"125 264 LINE",
"145 264 LINE",
"145 510 LINE",
"125 510 LINE"
);
},
{
closed = 1;
nodes = (
"430 284 LINE",
"450 284 LINE",
"450 518 LINE",
"430 518 LINE"
);
},
{
closed = 1;
nodes = (
"125 510 LINE",
"137 494 LINE",
"254 529 LINE",
"242 545 LINE"
);
},
{
closed = 1;
nodes = (
"146 510 LINE",
"36 547 LINE",
"24 531 LINE",
"134 494 LINE"
);
},
{
closed = 1;
nodes = (
"278 205 LINE",
"335 205 LINE",
"335 225 LINE",
"278 225 LINE"
);
},
{
closed = 1;
nodes = (
"236 173 LINE",
"356 173 LINE",
"356 193 LINE",
"236 193 LINE"
);
},
{
closed = 1;
nodes = (
"432 521 LINE",
"444 505 LINE",
"526 532 LINE",
"514 548 LINE"
);
},
{
closed = 1;
nodes = (
"451 518 LINE",
"366 547 LINE",
"354 531 LINE",
"439 502 LINE"
);
},
{
closed = 1;
nodes = (
"21 223 LINE",
"145 263 LINE",
"145 283 LINE",
"21 243 LINE"
);
},
{
closed = 1;
nodes = (
"174 66 LINE",
"190 55 LINE",
"246 184 LINE",
"229 195 LINE"
);
},
{
closed = 1;
nodes = (
"228 195 LINE",
"244 184 LINE",
"298 213 LINE",
"281 224 LINE"
);
},
{
closed = 1;
nodes = (
"373 64 LINE",
"356 198 LINE",
"337 193 LINE",
"354 59 LINE"
);
},
{
closed = 1;
nodes = (
"364 185 LINE",
"335 225 LINE",
"315 220 LINE",
"345 179 LINE"
);
},
{
closed = 1;
nodes = (
"126 271 LINE",
"224 172 LINE",
"240 185 LINE",
"141 284 LINE"
);
},
{
closed = 1;
nodes = (
"438 273 LINE",
"515 212 LINE",
"520 231 LINE",
"443 292 LINE"
);
},
{
closed = 1;
nodes = (
"240 243 LINE",
"271 205 LINE",
"287 217 LINE",
"256 255 LINE"
);
},
{
closed = 1;
nodes = (
"457 282 LINE",
"442 295 LINE",
"344 190 LINE",
"360 177 LINE"
);
},
{
closed = 1;
nodes = (
"370 243 LINE",
"354 255 LINE",
"321 210 LINE",
"337 198 LINE"
);
},
{
closed = 1;
nodes = (
"261 239 LINE",
"256 258 LINE",
"129 283 LINE",
"134 264 LINE"
);
},
{
closed = 1;
nodes = (
"356 236 LINE",
"439 273 LINE",
"444 292 LINE",
"361 255 LINE"
);
}
);
width = 550;
},
{
layerId = "B386CC4D-AD36-4992-A5CF-4B6CB312D231";
paths = (
{
closed = 1;
nodes = (
"20 173 LINE",
"40 173 LINE",
"40 600 LINE",
"20 600 LINE"
);
},
{
closed = 1;
nodes = (
"240 203 LINE",
"260 203 LINE",
"260 600 LINE",
"240 600 LINE"
);
},
{
closed = 1;
nodes = (
"350 203 LINE",
"370 203 LINE",
"370 600 LINE",
"350 600 LINE"
);
},
{
closed = 1;
nodes = (
"510 174 LINE",
"530 174 LINE",
"530 600 LINE",
"510 600 LINE"
);
},
{
closed = 1;
nodes = (
"20 580 LINE",
"260 580 LINE",
"260 600 LINE",
"20 600 LINE"
);
},
{
closed = 1;
nodes = (
"350 580 LINE",
"530 580 LINE",
"530 600 LINE",
"350 600 LINE"
);
},
{
closed = 1;
nodes = (
"185 0 LINE",
"365 0 LINE",
"365 20 LINE",
"185 20 LINE"
);
},
{
closed = 1;
nodes = (
"185 0 LINE",
"200 13 LINE",
"35 188 LINE",
"20 174 LINE"
);
},
{
closed = 1;
nodes = (
"365 0 LINE",
"530 174 LINE",
"515 188 LINE",
"350 13 LINE"
);
},
{
closed = 1;
nodes = (
"125 174 LINE",
"145 174 LINE",
"145 500 LINE",
"125 500 LINE"
);
},
{
closed = 1;
nodes = (
"430 194 LINE",
"450 194 LINE",
"450 520 LINE",
"430 520 LINE"
);
},
{
closed = 1;
nodes = (
"125 500 LINE",
"137 484 LINE",
"254 579 LINE",
"242 595 LINE"
);
},
{
closed = 1;
nodes = (
"146 500 LINE",
"36 597 LINE",
"24 581 LINE",
"134 484 LINE"
);
},
{
closed = 1;
nodes = (
"278 165 LINE",
"335 165 LINE",
"335 185 LINE",
"278 185 LINE"
);
},
{
closed = 1;
nodes = (
"236 83 LINE",
"356 83 LINE",
"356 103 LINE",
"236 103 LINE"
);
},
{
closed = 1;
nodes = (
"432 523 LINE",
"444 507 LINE",
"526 582 LINE",
"514 598 LINE"
);
},
{
closed = 1;
nodes = (
"451 520 LINE",
"366 597 LINE",
"354 581 LINE",
"439 504 LINE"
);
},
{
closed = 1;
nodes = (
"21 173 LINE",
"145 173 LINE",
"145 193 LINE",
"21 193 LINE"
);
},
{
closed = 1;
nodes = (
"174 17 LINE",
"190 6 LINE",
"249 100 LINE",
"232 111 LINE"
);
},
{
closed = 1;
nodes = (
"232 111 LINE",
"248 100 LINE",
"298 173 LINE",
"281 184 LINE"
);
},
{
closed = 1;
nodes = (
"374 12 LINE",
"356 96 LINE",
"337 91 LINE",
"355 7 LINE"
);
},
{
closed = 1;
nodes = (
"355 101 LINE",
"335 185 LINE",
"315 180 LINE",
"336 95 LINE"
);
},
{
closed = 1;
nodes = (
"126 183 LINE",
"224 82 LINE",
"240 95 LINE",
"141 196 LINE"
);
},
{
closed = 1;
nodes = (
"438 183 LINE",
"516 164 LINE",
"521 183 LINE",
"443 202 LINE"
);
},
{
closed = 1;
nodes = (
"240 203 LINE",
"271 165 LINE",
"287 177 LINE",
"256 215 LINE"
);
},
{
closed = 1;
nodes = (
"457 192 LINE",
"442 205 LINE",
"341 100 LINE",
"357 87 LINE"
);
},
{
closed = 1;
nodes = (
"370 203 LINE",
"354 215 LINE",
"321 170 LINE",
"337 158 LINE"
);
},
{
closed = 1;
nodes = (
"261 199 LINE",
"256 218 LINE",
"129 193 LINE",
"134 174 LINE"
);
},
{
closed = 1;
nodes = (
"356 202 LINE",
"439 183 LINE",
"444 202 LINE",
"361 221 LINE"
);
}
);
width = 550;
}
);
unicode = 0055;
},
{
glyphname = V;
layers = (
{
layerId = "E9386F05-ADE6-4680-88CE-E5F12972D961";
width = 600;
},
{
layerId = "62CD5346-0352-4548-B9DD-500D447F2E30";
width = 600;
},
{
layerId = "67EC95E2-4054-440D-AB4B-F0B974CBBED7";
width = 600;
},
{
layerId = "94D2509E-AE09-4DCD-8AC9-FEB053E4A4EF";
width = 600;
},
{
layerId = "B386CC4D-AD36-4992-A5CF-4B6CB312D231";
paths = (
{
closed = 1;
nodes = (
"200 5 LINE",
"26 600 LINE",
"5 600 LINE",
"180 0 LINE"
);
},
{
closed = 1;
nodes = (
"442 0 LINE",
"442 20 LINE",
"180 20 LINE",
"180 0 LINE"
);
},
{
closed = 1;
nodes = (
"200 5 LINE",
"30 586 LINE",
"11 580 LINE",
"180 0 LINE"
);
},
{
closed = 1;
nodes = (
"602 600 LINE",
"582 600 LINE",
"422 5 LINE",
"442 0 LINE"
);
},
{
closed = 1;
nodes = (
"252 580 LINE",
"252 600 LINE",
"11 600 LINE",
"11 580 LINE"
);
},
{
closed = 1;
nodes = (
"453 594 LINE",
"434 600 LINE",
"301 111 LINE",
"321 106 LINE"
);
},
{
closed = 1;
nodes = (
"595 580 LINE",
"595 600 LINE",
"434 600 LINE",
"434 580 LINE"
);
},
{
closed = 1;
nodes = (
"500 531 LINE",
"481 537 LINE",
"353 78 LINE",
"370 64 LINE"
);
},
{
closed = 1;
nodes = (
"596 584 LINE",
"585 599 LINE",
"479 529 LINE",
"490 514 LINE"
);
},
{
closed = 1;
nodes = (
"253 582 LINE",
"242 597 LINE",
"166 528 LINE",
"177 513 LINE"
);
},
{
closed = 1;
nodes = (
"318 106 LINE",
"182 529 LINE",
"159 529 LINE",
"298 97 LINE"
);
},
{
closed = 1;
nodes = (
"358 257 LINE",
"252 600 LINE",
"233 597 LINE",
"341 244 LINE"
);
},
{
closed = 1;
nodes = (
"448 23 LINE",
"312 123 LINE",
"301 104 LINE",
"437 5 LINE"
);
},
{
closed = 1;
nodes = (
"500 530 LINE",
"449 593 LINE",
"431 584 LINE",
"485 515 LINE"
);
},
{
closed = 1;
nodes = (
"177 527 LINE",
"21 597 LINE",
"10 582 LINE",
"166 512 LINE"
);
},
{
closed = 1;
nodes = (
"324 104 LINE",
"313 123 LINE",
"177 23 LINE",
"188 5 LINE"
);
}
);
width = 607;
}
);
unicode = 0056;
},
{
glyphname = X;
layers = (
{
layerId = "E9386F05-ADE6-4680-88CE-E5F12972D961";
width = 600;
},
{
layerId = "62CD5346-0352-4548-B9DD-500D447F2E30";
width = 600;
},
{
layerId = "67EC95E2-4054-440D-AB4B-F0B974CBBED7";
width = 600;
},
{
layerId = "94D2509E-AE09-4DCD-8AC9-FEB053E4A4EF";
width = 600;
},
{
layerId = "B386CC4D-AD36-4992-A5CF-4B6CB312D231";
paths = (
{
closed = 1;
nodes = (
"329 496 LINE",
"283 600 LINE",
"269 586 LINE",
"315 482 LINE"
);
},
{
nodes = (
"315 482 LINE",
"329 496 LINE"
);
},
{
closed = 1;
nodes = (
"584 0 LINE",
"408 345 LINE",
"394 331 LINE",
"562 0 LINE"
);
},
{
closed = 1;
nodes = (
"584 600 LINE",
"561 600 LINE",
"388 333 LINE",
"411 332 LINE"
);
},
{
closed = 1;
nodes = (
"283 580 LINE",
"283 600 LINE",
"27 600 LINE",
"27 580 LINE"
);
},
{
closed = 1;
nodes = (
"568 580 LINE",
"568 600 LINE",
"383 600 LINE",
"383 580 LINE"
);
},
{
closed = 1;
nodes = (
"341 14 LINE",
"287 127 LINE",
"273 113 LINE",
"327 0 LINE"
);
},
{
closed = 1;
nodes = (
"206 274 LINE",
"36 600 LINE",
"16 600 LINE",
"191 261 LINE"
);
},
{
closed = 1;
nodes = (
"205 267 LINE",
"190 279 LINE",
"5 0 LINE",
"28 0 LINE"
);
},
{
closed = 1;
nodes = (
"206 0 LINE",
"206 20 LINE",
"22 20 LINE",
"22 0 LINE"
);
},
{
closed = 1;
nodes = (
"572 0 LINE",
"572 20 LINE",
"327 20 LINE",
"327 0 LINE"
);
},
{
closed = 1;
nodes = (
"449 519 LINE",
"435 533 LINE",
"290 314 LINE",
"308 303 LINE"
);
},
{
closed = 1;
nodes = (
"288 126 LINE",
"279 145 LINE",
"183 0 LINE",
"207 0 LINE"
);
},
{
closed = 1;
nodes = (
"397 586 LINE",
"383 600 LINE",
"259 400 LINE",
"269 378 LINE"
);
},
{
closed = 1;
nodes = (
"564 582 LINE",
"551 595 LINE",
"431 529 LINE",
"444 516 LINE"
);
},
{
closed = 1;
nodes = (
"313 305 LINE",
"200 518 LINE",
"186 504 LINE",
"299 291 LINE"
);
},
{
closed = 1;
nodes = (
"288 581 LINE",
"275 594 LINE",
"184 513 LINE",
"197 500 LINE"
);
},
{
closed = 1;
nodes = (
"208 512 LINE",
"49 589 LINE",
"36 576 LINE",
"195 499 LINE"
);
},
{
closed = 1;
nodes = (
"306 296 LINE",
"292 310 LINE",
"158 97 LINE",
"176 86 LINE"
);
},
{
closed = 1;
nodes = (
"210 16 LINE",
"177 111 LINE",
"164 98 LINE",
"195 4 LINE"
);
},
{
closed = 1;
nodes = (
"181 96 LINE",
"168 109 LINE",
"29 18 LINE",
"42 5 LINE"
);
},
{
closed = 1;
nodes = (
"284 136 LINE",
"246 222 LINE",
"233 209 LINE",
"271 123 LINE"
);
},
{
closed = 1;
nodes = (
"416 100 LINE",
"309 320 LINE",
"295 306 LINE",
"402 86 LINE"
);
},
{
closed = 1;
nodes = (
"569 21 LINE",
"410 110 LINE",
"397 97 LINE",
"557 7 LINE"
);
},
{
closed = 1;
nodes = (
"417 93 LINE",
"404 106 LINE",
"320 18 LINE",
"333 5 LINE"
);
},
{
closed = 1;
nodes = (
"411 331 LINE",
"398 344 LINE",
"290 313 LINE",
"303 300 LINE"
);
},
{
closed = 1;
nodes = (
"317 308 LINE",
"304 321 LINE",
"187 275 LINE",
"200 262 LINE"
);
},
{
closed = 1;
nodes = (
"449 528 LINE",
"396 594 LINE",
"383 581 LINE",
"436 515 LINE"
);
}
);
width = 589;
}
);
unicode = 0058;
},
{
glyphname = Y;
layers = (
{
layerId = "E9386F05-ADE6-4680-88CE-E5F12972D961";
width = 600;
},
{
layerId = "62CD5346-0352-4548-B9DD-500D447F2E30";
width = 600;
},
{
layerId = "67EC95E2-4054-440D-AB4B-F0B974CBBED7";
width = 600;
},
{
layerId = "94D2509E-AE09-4DCD-8AC9-FEB053E4A4EF";
width = 600;
},
{
layerId = "B386CC4D-AD36-4992-A5CF-4B6CB312D231";
paths = (
{
closed = 1;
nodes = (
"262 580 LINE",
"262 600 LINE",
"23 600 LINE",
"23 580 LINE"
);
},
{
closed = 1;
nodes = (
"565 580 LINE",
"565 600 LINE",
"387 600 LINE",
"387 580 LINE"
);
},
{
closed = 1;
nodes = (
"332 413 LINE",
"262 600 LINE",
"243 591 LINE",
"313 405 LINE"
);
},
{
closed = 1;
nodes = (
"193 195 LINE",
"26 600 LINE",
"5 600 LINE",
"175 186 LINE"
);
},
{
closed = 1;
nodes = (
"406 591 LINE",
"387 600 LINE",
"311 414 LINE",
"330 406 LINE"
);
},
{
closed = 1;
nodes = (
"574 600 LINE",
"554 600 LINE",
"390 195 LINE",
"409 187 LINE"
);
},
{
closed = 1;
nodes = (
"263 581 LINE",
"251 597 LINE",
"129 522 LINE",
"138 503 LINE"
);
},
{
closed = 1;
nodes = (
"150 519 LINE",
"33 590 LINE",
"17 575 LINE",
"136 502 LINE"
);
},
{
closed = 1;
nodes = (
"300 144 LINE",
"146 516 LINE",
"125 512 LINE",
"283 131 LINE"
);
},
{
closed = 1;
nodes = (
"467 520 LINE",
"448 527 LINE",
"289 147 LINE",
"307 139 LINE"
);
},
{
closed = 1;
nodes = (
"336 421 LINE",
"317 428 LINE",
"241 244 LINE",
"259 236 LINE"
);
},
{
closed = 1;
nodes = (
"562 576 LINE",
"551 592 LINE",
"453 530 LINE",
"459 510 LINE"
);
},
{
closed = 1;
nodes = (
"466 522 LINE",
"394 592 LINE",
"380 577 LINE",
"453 505 LINE"
);
},
{
closed = 1;
nodes = (
"301 144 LINE",
"182 214 LINE",
"171 196 LINE",
"291 126 LINE"
);
},
{
closed = 1;
nodes = (
"411 198 LINE",
"402 215 LINE",
"284 142 LINE",
"295 127 LINE"
);
},
{
closed = 1;
nodes = (
"412 0 LINE",
"412 20 LINE",
"172 20 LINE",
"172 0 LINE"
);
},
{
closed = 1;
nodes = (
"297 117 LINE",
"284 130 LINE",
"172 13 LINE",
"185 0 LINE"
);
},
{
closed = 1;
nodes = (
"192 0 LINE",
"192 204 LINE",
"172 204 LINE",
"172 0 LINE"
);
},
{
closed = 1;
nodes = (
"412 13 LINE",
"300 130 LINE",
"287 117 LINE",
"399 0 LINE"
);
},
{
closed = 1;
nodes = (
"412 0 LINE",
"412 204 LINE",
"392 204 LINE",
"392 0 LINE"
);
},
{
closed = 1;
nodes = (
"302 115 LINE",
"302 144 LINE",
"282 144 LINE",
"282 115 LINE"
);
}
);
width = 579;
}
);
unicode = 0059;
},
{
glyphname = Z;
layers = (
{
layerId = "E9386F05-ADE6-4680-88CE-E5F12972D961";
width = 600;
},
{
layerId = "62CD5346-0352-4548-B9DD-500D447F2E30";
width = 600;
},
{
layerId = "67EC95E2-4054-440D-AB4B-F0B974CBBED7";
width = 600;
},
{
layerId = "94D2509E-AE09-4DCD-8AC9-FEB053E4A4EF";
width = 600;
},
{
layerId = "B386CC4D-AD36-4992-A5CF-4B6CB312D231";
paths = (
{
closed = 1;
nodes = (
"563 20 LINE",
"19 20 LINE"
);
},
{
closed = 1;
nodes = (
"566 238 LINE",
"546 238 LINE",
"546 0 LINE",
"566 0 LINE"
);
},
{
closed = 1;
nodes = (
"566 222 LINE",
"566 241 LINE",
"369 241 LINE",
"362 222 LINE"
);
},
{
closed = 1;
nodes = (
"562 225 LINE",
"550 240 LINE",
"424 138 LINE",
"438 124 LINE"
);
},
{
closed = 1;
nodes = (
"554 27 LINE",
"443 142 LINE",
"428 128 LINE",
"540 13 LINE"
);
},
{
closed = 1;
nodes = (
"448 125 LINE",
"448 145 LINE",
"198 145 LINE",
"198 125 LINE"
);
},
{
closed = 1;
nodes = (
"384 227 LINE",
"373 243 LINE",
"199 146 LINE",
"209 130 LINE"
);
},
{
closed = 1;
nodes = (
"226 139 LINE",
"213 157 LINE",
"26 24 LINE",
"39 7 LINE"
);
},
{
closed = 1;
nodes = (
"219 371 LINE",
"197 372 LINE",
"5 0 LINE",
"30 0 LINE"
);
},
{
closed = 1;
nodes = (
"563 572 LINE",
"563 592 LINE",
"22 592 LINE",
"22 572 LINE"
);
},
{
closed = 1;
nodes = (
"563 0 LINE",
"563 20 LINE",
"21 20 LINE",
"14 0 LINE"
);
},
{
closed = 1;
nodes = (
"574 592 LINE",
"552 592 LINE",
"362 232 LINE",
"380 224 LINE"
);
},
{
closed = 1;
nodes = (
"41 589 LINE",
"21 589 LINE",
"21 365 LINE",
"41 365 LINE"
);
},
{
closed = 1;
nodes = (
"211 365 LINE",
"211 382 LINE",
"26 382 LINE",
"26 365 LINE"
);
},
{
closed = 1;
nodes = (
"374 479 LINE",
"364 494 LINE",
"196 374 LINE",
"211 360 LINE"
);
},
{
closed = 1;
nodes = (
"377 479 LINE",
"377 499 LINE",
"136 499 LINE",
"136 479 LINE"
);
},
{
closed = 1;
nodes = (
"152 490 LINE",
"136 498 LINE",
"25 375 LINE",
"40 365 LINE"
);
},
{
closed = 1;
nodes = (
"387 491 LINE",
"371 498 LINE",
"199 146 LINE",
"215 135 LINE"
);
},
{
closed = 1;
nodes = (
"563 573 LINE",
"559 592 LINE",
"365 495 LINE",
"376 478 LINE"
);
},
{
closed = 1;
nodes = (
"150 491 LINE",
"35 586 LINE",
"22 574 LINE",
"136 478 LINE"
);
}
);
width = 579;
}
);
unicode = 005A;
},
{
glyphname = period;
layers = (
{
layerId = "5C408D9C-FBE9-43BC-96E3-8D1C776DB785";
name = public.background;
paths = (
{
closed = 1;
nodes = (
"136 84 LINE",
"127 94 LINE",
"5 10 LINE",
"15 0 LINE"
);
},
{
closed = 1;
nodes = (
"163 0 LINE",
"163 15 LINE",
"5 15 LINE",
"5 0 LINE"
);
},
{
closed = 1;
nodes = (
"163 10 LINE",
"139 94 LINE",
"129 84 LINE",
"153 0 LINE"
);
},
{
closed = 1;
nodes = (
"140 83 LINE",
"140 108 LINE",
"125 108 LINE",
"125 83 LINE"
);
},
{
closed = 1;
nodes = (
"163 0 LINE",
"163 190 LINE",
"148 190 LINE",
"148 0 LINE"
);
},
{
closed = 1;
nodes = (
"136 106 LINE",
"15 190 LINE",
"5 180 LINE",
"127 96 LINE"
);
},
{
closed = 1;
nodes = (
"163 175 LINE",
"163 190 LINE",
"9 190 LINE",
"9 175 LINE"
);
},
{
closed = 1;
nodes = (
"162 180 LINE",
"152 190 LINE",
"128 106 LINE",
"138 96 LINE"
);
},
{
closed = 1;
nodes = (
"5 0 LINE",
"20 0 LINE",
"20 190 LINE",
"5 190 LINE"
);
},
{
closed = 1;
nodes = (
"133 88 LINE",
"133 102 LINE",
"13 183 LINE",
"13 8 LINE"
);
},
{
closed = 1;
nodes = (
"136 102 LINE",
"155 183 LINE",
"13 183 LINE",
"130 102 LINE"
);
}
);
width = 224;
},
{
layerId = "E9386F05-ADE6-4680-88CE-E5F12972D961";
paths = (
{
closed = 1;
nodes = (
"152 105 LINE",
"152 110 LINE",
"23 186 LINE",
"23 8 LINE"
);
},
{
closed = 1;
nodes = (
"179 0 LINE",
"179 19 LINE",
"15 19 LINE",
"15 0 LINE"
);
},
{
closed = 1;
nodes = (
"156 96 LINE",
"144 114 LINE",
"15 15 LINE",
"30 0 LINE"
);
},
{
closed = 1;
nodes = (
"177 15 LINE",
"159 115 LINE",
"147 97 LINE",
"162 0 LINE"
);
},
{
closed = 1;
nodes = (
"34 0 LINE",
"34 194 LINE",
"15 194 LINE",
"15 0 LINE"
);
},
{
closed = 1;
nodes = (
"160 99 LINE",
"160 115 LINE",
"144 115 LINE",
"144 99 LINE"
);
},
{
closed = 1;
nodes = (
"179 0 LINE",
"179 194 LINE",
"160 194 LINE",
"160 0 LINE"
);
},
{
closed = 1;
nodes = (
"157 118 LINE",
"30 194 LINE",
"15 179 LINE",
"145 100 LINE"
);
},
{
closed = 1;
nodes = (
"155 110 LINE",
"171 186 LINE",
"23 186 LINE",
"149 110 LINE"
);
},
{
closed = 1;
nodes = (
"179 175 LINE",
"179 194 LINE",
"19 194 LINE",
"19 175 LINE"
);
},
{
closed = 1;
nodes = (
"178 179 LINE",
"163 194 LINE",
"147 118 LINE",
"159 100 LINE"
);
}
);
width = 194;
},
{
layerId = "5C408D9C-FBE9-43BC-96E3-8D1C776DB785";
name = public.background;
paths = (
{
closed = 1;
nodes = (
"30 84 LINE",
"20 94 LINE",
"-4 10 LINE",
"6 0 LINE"
);
},
{
closed = 1;
nodes = (
"154 0 LINE",
"154 15 LINE",
"-4 15 LINE",
"-4 0 LINE"
);
},
{
closed = 1;
nodes = (
"154 10 LINE",
"32 94 LINE",
"22 84 LINE",
"144 0 LINE"
);
},
{
closed = 1;
nodes = (
"34 83 LINE",
"34 108 LINE",
"19 108 LINE",
"19 83 LINE"
);
},
{
closed = 1;
nodes = (
"154 0 LINE",
"154 190 LINE",
"139 190 LINE",
"139 0 LINE"
);
},
{
closed = 1;
nodes = (
"30 106 LINE",
"6 190 LINE",
"-4 180 LINE",
"20 96 LINE"
);
},
{
closed = 1;
nodes = (
"154 175 LINE",
"154 190 LINE",
"0 190 LINE",
"0 175 LINE"
);
},
{
closed = 1;
nodes = (
"153 180 LINE",
"143 190 LINE",
"22 106 LINE",
"31 96 LINE"
);
},
{
closed = 1;
nodes = (
"-4 0 LINE",
"11 0 LINE",
"11 190 LINE",
"-4 190 LINE"
);
},
{
closed = 1;
nodes = (
"26 88 LINE",
"26 102 LINE",
"4 183 LINE",
"4 8 LINE"
);
},
{
closed = 1;
nodes = (
"29 102 LINE",
"146 183 LINE",
"4 183 LINE",
"23 102 LINE"
);
}
);
width = 224;
},
{
layerId = "62CD5346-0352-4548-B9DD-500D447F2E30";
paths = (
{
closed = 1;
nodes = (
"43 105 LINE",
"43 110 LINE",
"23 186 LINE",
"23 8 LINE"
);
},
{
closed = 1;
nodes = (
"179 0 LINE",
"179 19 LINE",
"15 19 LINE",
"15 0 LINE"
);
},
{
closed = 1;
nodes = (
"50 96 LINE",
"38 114 LINE",
"18 15 LINE",
"33 0 LINE"
);
},
{
closed = 1;
nodes = (
"179 15 LINE",
"50 115 LINE",
"38 97 LINE",
"164 0 LINE"
);
},
{
closed = 1;
nodes = (
"34 0 LINE",
"34 194 LINE",
"15 194 LINE",
"15 0 LINE"
);
},
{
closed = 1;
nodes = (
"51 99 LINE",
"51 115 LINE",
"35 115 LINE",
"35 99 LINE"
);
},
{
closed = 1;
nodes = (
"179 0 LINE",
"179 194 LINE",
"160 194 LINE",
"160 0 LINE"
);
},
{
closed = 1;
nodes = (
"48 118 LINE",
"30 194 LINE",
"15 179 LINE",
"36 100 LINE"
);
},
{
closed = 1;
nodes = (
"46 110 LINE",
"171 186 LINE",
"23 186 LINE",
"40 110 LINE"
);
},
{
closed = 1;
nodes = (
"179 175 LINE",
"179 194 LINE",
"19 194 LINE",
"19 175 LINE"
);
},
{
closed = 1;
nodes = (
"178 179 LINE",
"163 194 LINE",
"38 118 LINE",
"50 100 LINE"
);
}
);
width = 194;
},
{
layerId = "5C408D9C-FBE9-43BC-96E3-8D1C776DB785";
name = public.background;
paths = (
{
closed = 1;
nodes = (
"115 88 LINE",
"105 98 LINE",
"21 64 LINE",
"31 50 LINE"
);
},
{
closed = 1;
nodes = (
"201 50 LINE",
"201 69 LINE",
"21 69 LINE",
"21 50 LINE"
);
},
{
closed = 1;
nodes = (
"203 64 LINE",
"119 98 LINE",
"105 88 LINE",
"189 50 LINE"
);
},
{
closed = 1;
nodes = (
"119 87 LINE",
"119 102 LINE",
"104 102 LINE",
"104 87 LINE"
);
},
{
closed = 1;
nodes = (
"207 50 LINE",
"207 234 LINE",
"186 234 LINE",
"186 50 LINE"
);
},
{
closed = 1;
nodes = (
"115 100 LINE",
"31 234 LINE",
"21 224 LINE",
"105 90 LINE"
);
},
{
closed = 1;
nodes = (
"201 219 LINE",
"201 234 LINE",
"25 234 LINE",
"25 219 LINE"
);
},
{
closed = 1;
nodes = (
"200 224 LINE",
"191 234 LINE",
"107 100 LINE",
"116 90 LINE"
);
},
{
closed = 1;
nodes = (
"15 50 LINE",
"36 50 LINE",
"36 234 LINE",
"15 234 LINE"
);
},
{
closed = 1;
nodes = (
"111 92 LINE",
"111 96 LINE",
"29 227 LINE",
"29 62 LINE"
);
},
{
closed = 1;
nodes = (
"114 96 LINE",
"194 227 LINE",
"29 227 LINE",
"108 96 LINE"
);
}
);
width = 224;
},
{
layerId = "67EC95E2-4054-440D-AB4B-F0B974CBBED7";
paths = (
{
closed = 1;
nodes = (
"112 109 LINE",
"112 114 LINE",
"23 226 LINE",
"23 58 LINE"
);
},
{
closed = 1;
nodes = (
"209 50 LINE",
"209 69 LINE",
"15 69 LINE",
"15 50 LINE"
);
},
{
closed = 1;
nodes = (
"116 102 LINE",
"104 118 LINE",
"15 73 LINE",
"26 60 LINE"
);
},
{
closed = 1;
nodes = (
"209 80 LINE",
"119 119 LINE",
"102 104 LINE",
"196 65 LINE"
);
},
{
closed = 1;
nodes = (
"34 50 LINE",
"34 234 LINE",
"15 234 LINE",
"15 50 LINE"
);
},
{
closed = 1;
nodes = (
"120 103 LINE",
"120 119 LINE",
"104 119 LINE",
"104 103 LINE"
);
},
{
closed = 1;
nodes = (
"209 50 LINE",
"209 234 LINE",
"190 234 LINE",
"190 50 LINE"
);
},
{
closed = 1;
nodes = (
"117 122 LINE",
"30 234 LINE",
"15 229 LINE",
"105 104 LINE"
);
},
{
closed = 1;
nodes = (
"115 114 LINE",
"201 226 LINE",
"23 226 LINE",
"109 114 LINE"
);
},
{
closed = 1;
nodes = (
"209 215 LINE",
"209 234 LINE",
"19 234 LINE",
"19 215 LINE"
);
},
{
closed = 1;
nodes = (
"208 229 LINE",
"193 234 LINE",
"107 122 LINE",
"119 104 LINE"
);
}
);
width = 224;
},
{
layerId = "5C408D9C-FBE9-43BC-96E3-8D1C776DB785";
name = public.background;
paths = (
{
closed = 1;
nodes = (
"115 198 LINE",
"105 208 LINE",
"21 64 LINE",
"31 50 LINE"
);
},
{
closed = 1;
nodes = (
"201 50 LINE",
"201 69 LINE",
"21 69 LINE",
"21 50 LINE"
);
},
{
closed = 1;
nodes = (
"203 64 LINE",
"119 208 LINE",
"105 198 LINE",
"189 50 LINE"
);
},
{
closed = 1;
nodes = (
"119 197 LINE",
"119 212 LINE",
"104 212 LINE",
"104 197 LINE"
);
},
{
closed = 1;
nodes = (
"207 50 LINE",
"207 234 LINE",
"186 234 LINE",
"186 50 LINE"
);
},
{
closed = 1;
nodes = (
"115 210 LINE",
"31 234 LINE",
"21 224 LINE",
"105 200 LINE"
);
},
{
closed = 1;
nodes = (
"201 219 LINE",
"201 234 LINE",
"25 234 LINE",
"25 219 LINE"
);
},
{
closed = 1;
nodes = (
"200 224 LINE",
"191 234 LINE",
"107 210 LINE",
"116 200 LINE"
);
},
{
closed = 1;
nodes = (
"15 50 LINE",
"36 50 LINE",
"36 234 LINE",
"15 234 LINE"
);
},
{
closed = 1;
nodes = (
"111 202 LINE",
"111 206 LINE",
"29 227 LINE",
"29 62 LINE"
);
},
{
closed = 1;
nodes = (
"114 206 LINE",
"194 227 LINE",
"29 227 LINE",
"108 206 LINE"
);
}
);
width = 224;
},
{
layerId = "94D2509E-AE09-4DCD-8AC9-FEB053E4A4EF";
paths = (
{
closed = 1;
nodes = (
"112 200 LINE",
"112 205 LINE",
"23 226 LINE",
"23 58 LINE"
);
},
{
closed = 1;
nodes = (
"209 50 LINE",
"209 69 LINE",
"15 69 LINE",
"15 50 LINE"
);
},
{
closed = 1;
nodes = (
"116 191 LINE",
"104 209 LINE",
"19 65 LINE",
"34 50 LINE"
);
},
{
closed = 1;
nodes = (
"205 65 LINE",
"119 210 LINE",
"107 192 LINE",
"190 50 LINE"
);
},
{
closed = 1;
nodes = (
"34 50 LINE",
"34 234 LINE",
"15 234 LINE",
"15 50 LINE"
);
},
{
closed = 1;
nodes = (
"120 194 LINE",
"120 210 LINE",
"104 210 LINE",
"104 194 LINE"
);
},
{
closed = 1;
nodes = (
"209 50 LINE",
"209 234 LINE",
"190 234 LINE",
"190 50 LINE"
);
},
{
closed = 1;
nodes = (
"117 213 LINE",
"30 234 LINE",
"15 217 LINE",
"105 195 LINE"
);
},
{
closed = 1;
nodes = (
"115 205 LINE",
"201 226 LINE",
"23 226 LINE",
"109 205 LINE"
);
},
{
closed = 1;
nodes = (
"209 215 LINE",
"209 234 LINE",
"19 234 LINE",
"19 215 LINE"
);
},
{
closed = 1;
nodes = (
"208 217 LINE",
"193 234 LINE",
"107 213 LINE",
"119 195 LINE"
);
}
);
width = 224;
},
{
layerId = "5C408D9C-FBE9-43BC-96E3-8D1C776DB785";
name = public.background;
paths = (
{
closed = 1;
nodes = (
"122 88 LINE",
"112 98 LINE",
"28 14 LINE",
"38 0 LINE"
);
},
{
closed = 1;
nodes = (
"208 0 LINE",
"208 19 LINE",
"28 19 LINE",
"28 0 LINE"
);
},
{
closed = 1;
nodes = (
"210 14 LINE",
"126 98 LINE",
"112 88 LINE",
"196 0 LINE"
);
},
{
closed = 1;
nodes = (
"126 87 LINE",
"126 102 LINE",
"111 102 LINE",
"111 87 LINE"
);
},
{
closed = 1;
nodes = (
"214 0 LINE",
"214 184 LINE",
"193 184 LINE",
"193 0 LINE"
);
},
{
closed = 1;
nodes = (
"122 100 LINE",
"38 184 LINE",
"28 174 LINE",
"112 90 LINE"
);
},
{
closed = 1;
nodes = (
"208 169 LINE",
"208 184 LINE",
"32 184 LINE",
"32 169 LINE"
);
},
{
closed = 1;
nodes = (
"207 174 LINE",
"198 184 LINE",
"114 100 LINE",
"123 90 LINE"
);
},
{
closed = 1;
nodes = (
"22 0 LINE",
"43 0 LINE",
"43 184 LINE",
"22 184 LINE"
);
},
{
closed = 1;
nodes = (
"118 92 LINE",
"118 96 LINE",
"36 177 LINE",
"36 12 LINE"
);
},
{
closed = 1;
nodes = (
"121 96 LINE",
"201 177 LINE",
"36 177 LINE",
"115 96 LINE"
);
}
);
width = 224;
},
{
layerId = "B386CC4D-AD36-4992-A5CF-4B6CB312D231";
paths = (
{
closed = 1;
nodes = (
"112 95 LINE",
"112 100 LINE",
"23 186 LINE",
"23 8 LINE"
);
},
{
closed = 1;
nodes = (
"209 0 LINE",
"209 19 LINE",
"15 19 LINE",
"15 0 LINE"
);
},
{
closed = 1;
nodes = (
"116 86 LINE",
"104 104 LINE",
"15 15 LINE",
"30 0 LINE"
);
},
{
closed = 1;
nodes = (
"209 15 LINE",
"119 105 LINE",
"107 87 LINE",
"194 0 LINE"
);
},
{
closed = 1;
nodes = (
"34 0 LINE",
"34 194 LINE",
"15 194 LINE",
"15 0 LINE"
);
},
{
closed = 1;
nodes = (
"120 89 LINE",
"120 105 LINE",
"104 105 LINE",
"104 89 LINE"
);
},
{
closed = 1;
nodes = (
"209 0 LINE",
"209 194 LINE",
"190 194 LINE",
"190 0 LINE"
);
},
{
closed = 1;
nodes = (
"117 108 LINE",
"30 194 LINE",
"15 179 LINE",
"105 90 LINE"
);
},
{
closed = 1;
nodes = (
"115 100 LINE",
"201 186 LINE",
"23 186 LINE",
"109 100 LINE"
);
},
{
closed = 1;
nodes = (
"209 175 LINE",
"209 194 LINE",
"19 194 LINE",
"19 175 LINE"
);
},
{
closed = 1;
nodes = (
"208 179 LINE",
"193 194 LINE",
"107 108 LINE",
"119 90 LINE"
);
}
);
width = 224;
}
);
unicode = 002E;
},
{
glyphname = colon;
layers = (
{
layerId = "E9386F05-ADE6-4680-88CE-E5F12972D961";
paths = (
{
closed = 1;
nodes = (
"133 140 LINE",
"133 145 LINE",
"22 210 LINE",
"22 57 LINE"
);
},
{
closed = 1;
nodes = (
"157 50 LINE",
"157 66 LINE",
"15 66 LINE",
"15 50 LINE"
);
},
{
closed = 1;
nodes = (
"137 133 LINE",
"126 148 LINE",
"15 63 LINE",
"28 50 LINE"
);
},
{
closed = 1;
nodes = (
"155 63 LINE",
"139 149 LINE",
"129 133 LINE",
"142 50 LINE"
);
},
{
closed = 1;
nodes = (
"32 50 LINE",
"32 217 LINE",
"15 217 LINE",
"15 50 LINE"
);
},
{
closed = 1;
nodes = (
"140 135 LINE",
"140 149 LINE",
"126 149 LINE",
"126 135 LINE"
);
},
{
closed = 1;
nodes = (
"157 50 LINE",
"157 217 LINE",
"140 217 LINE",
"140 50 LINE"
);
},
{
closed = 1;
nodes = (
"138 151 LINE",
"28 217 LINE",
"15 204 LINE",
"127 136 LINE"
);
},
{
closed = 1;
nodes = (
"136 145 LINE",
"150 210 LINE",
"22 210 LINE",
"131 145 LINE"
);
},
{
closed = 1;
nodes = (
"157 200 LINE",
"157 217 LINE",
"19 217 LINE",
"19 200 LINE"
);
},
{
closed = 1;
nodes = (
"156 204 LINE",
"143 217 LINE",
"129 151 LINE",
"139 136 LINE"
);
},
{
closed = 1;
nodes = (
"133 398 LINE",
"133 403 LINE",
"22 468 LINE",
"22 315 LINE"
);
},
{
closed = 1;
nodes = (
"157 308 LINE",
"157 325 LINE",
"15 325 LINE",
"15 308 LINE"
);
},
{
closed = 1;
nodes = (
"137 391 LINE",
"126 406 LINE",
"15 321 LINE",
"28 308 LINE"
);
},
{
closed = 1;
nodes = (
"155 321 LINE",
"139 407 LINE",
"129 392 LINE",
"142 308 LINE"
);
},
{
closed = 1;
nodes = (
"32 308 LINE",
"32 475 LINE",
"15 475 LINE",
"15 308 LINE"
);
},
{
closed = 1;
nodes = (
"140 393 LINE",
"140 407 LINE",
"126 407 LINE",
"126 393 LINE"
);
},
{
closed = 1;
nodes = (
"157 308 LINE",
"157 475 LINE",
"140 475 LINE",
"140 308 LINE"
);
},
{
closed = 1;
nodes = (
"138 410 LINE",
"28 475 LINE",
"15 462 LINE",
"127 394 LINE"
);
},
{
closed = 1;
nodes = (
"136 403 LINE",
"150 468 LINE",
"22 468 LINE",
"131 403 LINE"
);
},
{
closed = 1;
nodes = (
"157 459 LINE",
"157 475 LINE",
"19 475 LINE",
"19 459 LINE"
);
},
{
closed = 1;
nodes = (
"156 462 LINE",
"143 475 LINE",
"129 410 LINE",
"139 394 LINE"
);
}
);
width = 172;
},
{
layerId = "62CD5346-0352-4548-B9DD-500D447F2E30";
paths = (
{
closed = 1;
nodes = (
"40 140 LINE",
"40 145 LINE",
"22 210 LINE",
"22 57 LINE"
);
},
{
closed = 1;
nodes = (
"157 50 LINE",
"157 66 LINE",
"15 66 LINE",
"15 50 LINE"
);
},
{
closed = 1;
nodes = (
"46 133 LINE",
"35 148 LINE",
"18 63 LINE",
"31 50 LINE"
);
},
{
closed = 1;
nodes = (
"157 63 LINE",
"46 149 LINE",
"35 133 LINE",
"144 50 LINE"
);
},
{
closed = 1;
nodes = (
"32 50 LINE",
"32 217 LINE",
"15 217 LINE",
"15 50 LINE"
);
},
{
closed = 1;
nodes = (
"46 135 LINE",
"46 149 LINE",
"33 149 LINE",
"33 135 LINE"
);
},
{
closed = 1;
nodes = (
"157 50 LINE",
"157 217 LINE",
"140 217 LINE",
"140 50 LINE"
);
},
{
closed = 1;
nodes = (
"44 151 LINE",
"28 217 LINE",
"15 204 LINE",
"34 136 LINE"
);
},
{
closed = 1;
nodes = (
"42 145 LINE",
"150 210 LINE",
"22 210 LINE",
"37 145 LINE"
);
},
{
closed = 1;
nodes = (
"157 200 LINE",
"157 217 LINE",
"19 217 LINE",
"19 200 LINE"
);
},
{
closed = 1;
nodes = (
"156 204 LINE",
"143 217 LINE",
"35 151 LINE",
"46 136 LINE"
);
},
{
closed = 1;
nodes = (
"40 398 LINE",
"40 403 LINE",
"22 468 LINE",
"22 315 LINE"
);
},
{
closed = 1;
nodes = (
"157 308 LINE",
"157 325 LINE",
"15 325 LINE",
"15 308 LINE"
);
},
{
closed = 1;
nodes = (
"46 391 LINE",
"35 406 LINE",
"18 321 LINE",
"31 308 LINE"
);
},
{
closed = 1;
nodes = (
"157 321 LINE",
"46 407 LINE",
"35 392 LINE",
"144 308 LINE"
);
},
{
closed = 1;
nodes = (
"32 308 LINE",
"32 475 LINE",
"15 475 LINE",
"15 308 LINE"
);
},
{
closed = 1;
nodes = (
"46 393 LINE",
"46 407 LINE",
"33 407 LINE",
"33 393 LINE"
);
},
{
closed = 1;
nodes = (
"157 308 LINE",
"157 475 LINE",
"140 475 LINE",
"140 308 LINE"
);
},
{
closed = 1;
nodes = (
"44 410 LINE",
"28 475 LINE",
"15 462 LINE",
"34 394 LINE"
);
},
{
closed = 1;
nodes = (
"42 403 LINE",
"150 468 LINE",
"22 468 LINE",
"37 403 LINE"
);
},
{
closed = 1;
nodes = (
"157 459 LINE",
"157 475 LINE",
"19 475 LINE",
"19 459 LINE"
);
},
{
closed = 1;
nodes = (
"156 462 LINE",
"143 475 LINE",
"35 410 LINE",
"46 394 LINE"
);
}
);
width = 172;
},
{
layerId = "67EC95E2-4054-440D-AB4B-F0B974CBBED7";
paths = (
{
closed = 1;
nodes = (
"98 151 LINE",
"98 155 LINE",
"21 251 LINE",
"21 107 LINE"
);
},
{
closed = 1;
nodes = (
"181 100 LINE",
"181 116 LINE",
"15 116 LINE",
"15 100 LINE"
);
},
{
closed = 1;
nodes = (
"101 145 LINE",
"91 159 LINE",
"15 120 LINE",
"24 109 LINE"
);
},
{
closed = 1;
nodes = (
"181 126 LINE",
"104 159 LINE",
"89 147 LINE",
"170 113 LINE"
);
},
{
closed = 1;
nodes = (
"31 100 LINE",
"31 258 LINE",
"15 258 LINE",
"15 100 LINE"
);
},
{
closed = 1;
nodes = (
"105 146 LINE",
"105 159 LINE",
"91 159 LINE",
"91 146 LINE"
);
},
{
closed = 1;
nodes = (
"181 100 LINE",
"181 258 LINE",
"165 258 LINE",
"165 100 LINE"
);
},
{
closed = 1;
nodes = (
"102 162 LINE",
"27 258 LINE",
"15 254 LINE",
"92 147 LINE"
);
},
{
closed = 1;
nodes = (
"101 155 LINE",
"175 251 LINE",
"21 251 LINE",
"95 155 LINE"
);
},
{
closed = 1;
nodes = (
"181 242 LINE",
"181 258 LINE",
"18 258 LINE",
"18 242 LINE"
);
},
{
closed = 1;
nodes = (
"181 254 LINE",
"168 258 LINE",
"94 162 LINE",
"104 147 LINE"
);
},
{
closed = 1;
nodes = (
"98 343 LINE",
"98 348 LINE",
"21 444 LINE",
"21 300 LINE"
);
},
{
closed = 1;
nodes = (
"181 293 LINE",
"181 309 LINE",
"15 309 LINE",
"15 293 LINE"
);
},
{
closed = 1;
nodes = (
"101 337 LINE",
"91 351 LINE",
"15 312 LINE",
"24 301 LINE"
);
},
{
closed = 1;
nodes = (
"181 318 LINE",
"104 352 LINE",
"89 339 LINE",
"170 306 LINE"
);
},
{
closed = 1;
nodes = (
"31 293 LINE",
"31 451 LINE",
"15 451 LINE",
"15 293 LINE"
);
},
{
closed = 1;
nodes = (
"105 338 LINE",
"105 352 LINE",
"91 352 LINE",
"91 338 LINE"
);
},
{
closed = 1;
nodes = (
"181 293 LINE",
"181 451 LINE",
"165 451 LINE",
"165 293 LINE"
);
},
{
closed = 1;
nodes = (
"102 355 LINE",
"27 451 LINE",
"15 447 LINE",
"92 339 LINE"
);
},
{
closed = 1;
nodes = (
"101 348 LINE",
"175 444 LINE",
"21 444 LINE",
"95 348 LINE"
);
},
{
closed = 1;
nodes = (
"181 435 LINE",
"181 451 LINE",
"18 451 LINE",
"18 435 LINE"
);
},
{
closed = 1;
nodes = (
"181 447 LINE",
"168 451 LINE",
"94 355 LINE",
"104 339 LINE"
);
}
);
width = 196;
},
{
layerId = "94D2509E-AE09-4DCD-8AC9-FEB053E4A4EF";
paths = (
{
closed = 1;
nodes = (
"98 229 LINE",
"98 233 LINE",
"21 251 LINE",
"21 107 LINE"
);
},
{
closed = 1;
nodes = (
"181 100 LINE",
"181 116 LINE",
"15 116 LINE",
"15 100 LINE"
);
},
{
closed = 1;
nodes = (
"101 221 LINE",
"91 237 LINE",
"18 113 LINE",
"31 100 LINE"
);
},
{
closed = 1;
nodes = (
"178 113 LINE",
"104 238 LINE",
"94 222 LINE",
"165 100 LINE"
);
},
{
closed = 1;
nodes = (
"31 100 LINE",
"31 258 LINE",
"15 258 LINE",
"15 100 LINE"
);
},
{
closed = 1;
nodes = (
"105 224 LINE",
"105 238 LINE",
"91 238 LINE",
"91 224 LINE"
);
},
{
closed = 1;
nodes = (
"181 100 LINE",
"181 258 LINE",
"165 258 LINE",
"165 100 LINE"
);
},
{
closed = 1;
nodes = (
"102 240 LINE",
"27 258 LINE",
"15 244 LINE",
"92 225 LINE"
);
},
{
closed = 1;
nodes = (
"101 233 LINE",
"175 251 LINE",
"21 251 LINE",
"95 233 LINE"
);
},
{
closed = 1;
nodes = (
"181 242 LINE",
"181 258 LINE",
"18 258 LINE",
"18 242 LINE"
);
},
{
closed = 1;
nodes = (
"181 244 LINE",
"168 258 LINE",
"94 240 LINE",
"104 225 LINE"
);
},
{
closed = 1;
nodes = (
"98 422 LINE",
"98 426 LINE",
"21 444 LINE",
"21 300 LINE"
);
},
{
closed = 1;
nodes = (
"181 293 LINE",
"181 309 LINE",
"15 309 LINE",
"15 293 LINE"
);
},
{
closed = 1;
nodes = (
"101 414 LINE",
"91 429 LINE",
"18 306 LINE",
"31 293 LINE"
);
},
{
closed = 1;
nodes = (
"178 306 LINE",
"104 430 LINE",
"94 415 LINE",
"165 293 LINE"
);
},
{
closed = 1;
nodes = (
"31 293 LINE",
"31 451 LINE",
"15 451 LINE",
"15 293 LINE"
);
},
{
closed = 1;
nodes = (
"105 416 LINE",
"105 430 LINE",
"91 430 LINE",
"91 416 LINE"
);
},
{
closed = 1;
nodes = (
"181 293 LINE",
"181 451 LINE",
"165 451 LINE",
"165 293 LINE"
);
},
{
closed = 1;
nodes = (
"102 433 LINE",
"27 451 LINE",
"15 436 LINE",
"92 417 LINE"
);
},
{
closed = 1;
nodes = (
"101 426 LINE",
"175 444 LINE",
"21 444 LINE",
"95 426 LINE"
);
},
{
closed = 1;
nodes = (
"181 435 LINE",
"181 451 LINE",
"18 451 LINE",
"18 435 LINE"
);
},
{
closed = 1;
nodes = (
"181 436 LINE",
"168 451 LINE",
"94 433 LINE",
"104 417 LINE"
);
}
);
width = 196;
},
{
layerId = "B386CC4D-AD36-4992-A5CF-4B6CB312D231";
paths = (
{
closed = 1;
nodes = (
"98 132 LINE",
"98 136 LINE",
"21 210 LINE",
"21 57 LINE"
);
},
{
closed = 1;
nodes = (
"181 50 LINE",
"181 66 LINE",
"15 66 LINE",
"15 50 LINE"
);
},
{
closed = 1;
nodes = (
"101 124 LINE",
"91 139 LINE",
"15 63 LINE",
"27 50 LINE"
);
},
{
closed = 1;
nodes = (
"181 63 LINE",
"104 140 LINE",
"94 125 LINE",
"169 50 LINE"
);
},
{
closed = 1;
nodes = (
"31 50 LINE",
"31 217 LINE",
"15 217 LINE",
"15 50 LINE"
);
},
{
closed = 1;
nodes = (
"105 127 LINE",
"105 140 LINE",
"91 140 LINE",
"91 127 LINE"
);
},
{
closed = 1;
nodes = (
"181 50 LINE",
"181 217 LINE",
"165 217 LINE",
"165 50 LINE"
);
},
{
closed = 1;
nodes = (
"102 143 LINE",
"27 217 LINE",
"15 204 LINE",
"92 127 LINE"
);
},
{
closed = 1;
nodes = (
"101 136 LINE",
"175 210 LINE",
"21 210 LINE",
"95 136 LINE"
);
},
{
closed = 1;
nodes = (
"181 200 LINE",
"181 217 LINE",
"18 217 LINE",
"18 200 LINE"
);
},
{
closed = 1;
nodes = (
"181 204 LINE",
"168 217 LINE",
"94 143 LINE",
"104 127 LINE"
);
},
{
closed = 1;
nodes = (
"98 390 LINE",
"98 394 LINE",
"21 468 LINE",
"21 315 LINE"
);
},
{
closed = 1;
nodes = (
"181 308 LINE",
"181 325 LINE",
"15 325 LINE",
"15 308 LINE"
);
},
{
closed = 1;
nodes = (
"101 382 LINE",
"91 398 LINE",
"15 321 LINE",
"27 308 LINE"
);
},
{
closed = 1;
nodes = (
"181 321 LINE",
"104 398 LINE",
"94 383 LINE",
"169 308 LINE"
);
},
{
closed = 1;
nodes = (
"31 308 LINE",
"31 475 LINE",
"15 475 LINE",
"15 308 LINE"
);
},
{
closed = 1;
nodes = (
"105 385 LINE",
"105 398 LINE",
"91 398 LINE",
"91 385 LINE"
);
},
{
closed = 1;
nodes = (
"181 308 LINE",
"181 475 LINE",
"165 475 LINE",
"165 308 LINE"
);
},
{
closed = 1;
nodes = (
"102 401 LINE",
"27 475 LINE",
"15 462 LINE",
"92 386 LINE"
);
},
{
closed = 1;
nodes = (
"101 394 LINE",
"175 468 LINE",
"21 468 LINE",
"95 394 LINE"
);
},
{
closed = 1;
nodes = (
"181 459 LINE",
"181 475 LINE",
"18 475 LINE",
"18 459 LINE"
);
},
{
closed = 1;
nodes = (
"181 462 LINE",
"168 475 LINE",
"94 401 LINE",
"104 386 LINE"
);
}
);
width = 196;
}
);
unicode = 003A;
},
{
glyphname = diagonals;
layers = (
{
layerId = "E9386F05-ADE6-4680-88CE-E5F12972D961";
paths = (
{
closed = 1;
nodes = (
"150 13 LINE",
"33 130 LINE",
"20 117 LINE",
"137 0 LINE"
);
}
);
width = 170;
},
{
layerId = "62CD5346-0352-4548-B9DD-500D447F2E30";
paths = (
{
closed = 1;
nodes = (
"150 13 LINE",
"33 130 LINE",
"20 117 LINE",
"137 0 LINE"
);
}
);
width = 170;
},
{
layerId = "67EC95E2-4054-440D-AB4B-F0B974CBBED7";
paths = (
{
closed = 1;
nodes = (
"150 13 LINE",
"33 130 LINE",
"20 117 LINE",
"137 0 LINE"
);
}
);
width = 170;
},
{
layerId = "94D2509E-AE09-4DCD-8AC9-FEB053E4A4EF";
paths = (
{
closed = 1;
nodes = (
"150 13 LINE",
"33 130 LINE",
"20 117 LINE",
"137 0 LINE"
);
}
);
width = 170;
},
{
layerId = "B386CC4D-AD36-4992-A5CF-4B6CB312D231";
paths = (
{
closed = 1;
nodes = (
"150 13 LINE",
"33 130 LINE",
"20 117 LINE",
"137 0 LINE"
);
}
);
width = 170;
}
);
},
{
glyphname = horizontals;
layers = (
{
layerId = "E9386F05-ADE6-4680-88CE-E5F12972D961";
paths = (
{
closed = 1;
nodes = (
"260 0 LINE",
"260 20 LINE",
"20 20 LINE",
"20 0 LINE"
);
}
);
width = 280;
},
{
layerId = "62CD5346-0352-4548-B9DD-500D447F2E30";
paths = (
{
closed = 1;
nodes = (
"260 0 LINE",
"260 20 LINE",
"20 20 LINE",
"20 0 LINE"
);
}
);
width = 280;
},
{
layerId = "67EC95E2-4054-440D-AB4B-F0B974CBBED7";
paths = (
{
closed = 1;
nodes = (
"260 0 LINE",
"260 20 LINE",
"20 20 LINE",
"20 0 LINE"
);
}
);
width = 280;
},
{
layerId = "94D2509E-AE09-4DCD-8AC9-FEB053E4A4EF";
paths = (
{
closed = 1;
nodes = (
"260 0 LINE",
"260 20 LINE",
"20 20 LINE",
"20 0 LINE"
);
}
);
width = 280;
},
{
layerId = "B386CC4D-AD36-4992-A5CF-4B6CB312D231";
paths = (
{
closed = 1;
nodes = (
"260 0 LINE",
"260 20 LINE",
"20 20 LINE",
"20 0 LINE"
);
}
);
width = 280;
}
);
},
{
glyphname = verticals;
layers = (
{
layerId = "E9386F05-ADE6-4680-88CE-E5F12972D961";
paths = (
{
closed = 1;
nodes = (
"40 0 LINE",
"40 600 LINE",
"20 600 LINE",
"20 0 LINE"
);
}
